<?xml version="1.0" encoding="utf-8"?>
<!-- Generator: Adobe Adobe Illustrator 24.2.0, SVG Export Plug-In . SVG Version: 6.00 Build 0)  -->
<svg version="1.1" xmlns="http://www.w3.org/2000/svg" xmlns:xlink="http://www.w3.org/1999/xlink" x="0px" y="0px"
	 viewBox="0 0 390 844" style="enable-background:new 0 0 390 844;" xml:space="preserve">
<style type="text/css">
	.st0{fill:url(#SVGID_1_);}
	.st1{fill:url(#SVGID_2_);}
	.st2{fill:url(#SVGID_3_);}
	.st3{fill:#00937F;}
	.st4{fill:#47B192;}
	.st5{fill:#005F61;}
	.st6{fill:#FBFFF7;}
	.st7{fill:#81D292;}
	.st8{fill:#F2A796;}
	.st9{fill:#F17E8C;}
	.st10{fill:#CCAF2D;}
	.st11{fill:#F3FC77;}
	.st12{fill:#AA7F63;}
	.st13{fill:#F2DE85;}
</style>
<g id="Layer_8">
	<linearGradient id="SVGID_1_" gradientUnits="userSpaceOnUse" x1="195" y1="6.4035" x2="195" y2="885.7791">
		<stop  offset="0" style="stop-color:#96EDDD"/>
		<stop  offset="0.8707" style="stop-color:#E0F5F6"/>
		<stop  offset="1" style="stop-color:#EBF6FA"/>
	</linearGradient>
	<rect class="st0" width="390" height="844"/>
</g>
<g id="Layer_9">
	<g id="Layer_12">
		<linearGradient id="SVGID_2_" gradientUnits="userSpaceOnUse" x1="24.9419" y1="556.3191" x2="24.9419" y2="625.5797">
			<stop  offset="0" style="stop-color:#BC8365"/>
			<stop  offset="0.5696" style="stop-color:#98765F"/>
			<stop  offset="1" style="stop-color:#7A6B5A"/>
		</linearGradient>
		<path class="st1" d="M33.73,552.18c1.71,11.14,2.26,22.35,1.65,33.53c-0.54,9.79-1.96,19.64,0.12,29.36
			c-4.27-0.67-8.77-0.76-13.1-0.28c1.03-17.5,1.08-35.02,0.14-52.51c-2.25,0.04-4.51-0.07-6.72-0.32c-0.45-0.05-0.93-0.12-1.23-0.34
			c-0.34-0.24-0.34-0.6-0.32-0.92c0.19-2.79,0.38-5.57,0.57-8.36c1.24-0.25,2.56-0.33,3.85-0.24c-0.66,2.44-0.83,4.94-0.51,7.41
			c1.67-0.12,3.37-0.1,5.04,0.06c-0.03-2.29-0.05-4.57,0.07-6.86"/>
		<linearGradient id="SVGID_3_" gradientUnits="userSpaceOnUse" x1="375.3599" y1="599.5254" x2="375.3599" y2="678.7837">
			<stop  offset="0" style="stop-color:#B68365"/>
			<stop  offset="1" style="stop-color:#7A6B5A"/>
		</linearGradient>
		<path class="st2" d="M363.48,593.65c0.82-0.23,1.7-0.27,2.54-0.12c-0.67,3.75-1.12,7.55-1.33,11.36c0.56,1.05,2.26,0.88,3.03-0.03
			c0.77-0.91,0.86-2.19,0.93-3.38c0.16-3.02,0.31-6.04,0.47-9.06c2.75-0.18,5.5-0.35,8.26-0.53c0.35,8.47,0.69,16.94,1.04,25.41
			c0.01,0.28,0.05,0.61,0.29,0.75c0.23,0.14,0.52,0.05,0.77-0.05c1.84-0.71,3.69-1.41,5.53-2.12c0.4-0.15,0.83-0.33,1.06-0.69
			c0.19-0.3,0.24-0.66,0.22-1.01c-0.23-4.28-0.59-8.51-0.41-12.76c1.16,0.29,1.91,0.5,3.1,0.33c-0.46,5.2,0.2,10.26,0.12,15.48
			c-3.2,1.79-5.91,3.58-9.11,5.37c-0.32,0.18-0.66,0.38-0.82,0.71c-0.1,0.21-0.12,0.46-0.13,0.69c-0.62,12.73-0.33,25.51,0.88,38.21
			c-4.51,0.28-9.02,0.56-13.54,0.83c0.63-17.78,1.27-35.55,1.9-53.33c0.01-0.27,0.01-0.58-0.18-0.77c-0.17-0.18-0.44-0.2-0.69-0.22
			c-1.91-0.14-3.83-0.28-5.74-0.41C361.66,603.57,362.18,598.83,363.48,593.65z"/>
		<path class="st3" d="M0,549.93c6.89,6.59,16.94,7.34,25.1,2.4c3.59,3.58,8.86,5.39,13.89,4.77c1.66-0.2,3.35-0.69,4.63-1.76
			s2.08-2.85,1.64-4.47c4.73-1.36,7.02-7.31,5.59-12.02c-1.44-4.7-3.68-6.5-6.55-8.44c-2.32-1.57-4.63-2.19-4.63-2.19
			s0.42-1.75,0.51-3.4c0.37-6.61-0.78-10.51-6.09-16.34c-1.4-1.54-5.09-3.22-7.16-3.43c-1.8-0.18-5.37,0.23-7.04,0.93
			c-4.27,1.79-7.09,5.67-8.43,9.06c-1.7,4.31-2.4,8.95-3.13,13.52c-1.79-1.79-3.53-2.29-5.13-1.61c-3.67,1.57-3.21,5.78-3.21,5.78
			S0,542.45,0,549.93z"/>
		<path class="st3" d="M390,558.03c0,0-1.16-3.56-6.31-1.45c-0.7-3.47-3.55-6.41-7-7.2c-3.87-0.9-7.98,0.82-10.91,3.5
			s-4.91,6.22-6.82,9.71c-0.48-0.72-1.52-0.9-2.34-0.63s-1.48,0.89-2.08,1.52c-4.8,5.06-7.6,11.96-7.69,18.94
			c-0.03,2.49,0.29,5.04,1.41,7.26c2.19,4.34,7.57,6.78,12.27,5.58c0.5,2.6,3.68,3.75,6.33,3.55c3.25-0.24,6.38-1.82,8.51-4.28
			c1.78,5.59,7.21,9.83,13.07,10.18c1.53,0.09,1.56,0.11,1.56,0.11v-6.28v-4.89v-9.71v-12.5V558.03z"/>
	</g>
	<path class="st4" d="M0,612.2c0,0,66.13-31.19,148.44,21.09c36.21,23,83.23,39.13,125.97,42.83c42.25,3.66,73-10.24,115.59-19.95
		c0.85,36.43,0,109.75,0,109.75V844H103.85H0"/>
</g>
<g id="Layer_10">
	<path class="st5" d="M0,685.19c13.04-9.75,23.22-7.54,28.1-6.77c3.42,0.54,11.41,4.23,14.16,6.34c3.38,2.59,8.13,7.59,9.69,10.98
		c3.15,6.84,3.68,9.88,3.42,18.26c14.53-6.77,32.44-6.72,46.15,1.58c13.71,8.3,22.22,25.16,19.21,40.92
		c11.04-2.14,22.98,0.87,31.69,7.99c8.71,7.12,14.04,18.22,14.15,29.48c6.31-4.92,22.92-4.64,30.34-1.62
		c11.97,4.87,22.21,12.64,26.35,19.5c8.73,14.48,4.92,32.15,4.92,32.15H0"/>
	<path class="st6" d="M83.67,801.4c-2.76-2.62-2.5-7.25-0.67-10.59c1.77-3.21,5.41-5.86,8.94-4.87c2.24,0.63,3.86,2.54,5.19,4.45
		c-1.47-3.44-0.44-7.78,2.4-10.2c1.22-1.03,2.85-1.75,4.41-1.37c0.94,0.23,1.75,0.83,2.45,1.49c2.21,2.08,3.68,4.93,4.08,7.93
		c1.57-3.08,5.55-3.98,9.01-3.94c2.06,0.03,4.26,0.32,5.8,1.69c1.71,1.52,2.18,4.11,1.57,6.3c-0.62,2.2-2.17,4.03-3.97,5.44
		c4.15-1.64,8.58,0,10.91,2.48c1.7,1.8,2.25,4.87,1.43,8.15c-0.29,1.14-1.43,1.83-2.49,2.33c-3.03,1.42-7.92,5.23-11.25,4.85"/>
	<path class="st3" d="M0,713.92c9.15,0,17.57,0.99,21.74,2.79c5.66,2.44,12.67,8.35,16.62,16.63c4.43,9.3,7.8,15.92,6.35,32.09
		c5.51-3.64,12.64-4.36,19.19-3.51c4.12,0.53,8.5,2.24,12.24,4.05c5.93,2.87,9.72,6.85,11.59,10.4c4.37,8.3,4.93,14.28,4.4,25.99
		c4.6-3.73,10.31-6.42,16.76-6.13c6.45,0.29,14.6,4.82,16.13,11.09c6.71-4.41,14.69-6.85,22.71-6.97c4.2-0.06,8.49,0.53,12.22,2.46
		c4.14,2.14,9.77,5.83,12.3,9.74c7.83,12.07,7.04,18.49,3.1,31.5h-21.22H0"/>
	<path class="st3" d="M208.85,844.17c-3.19-7.64-4.08-12.03-4.48-16.79c-0.28-3.36,1.92-7.99,4.16-10.56
		c3.56-4.08,10.88-4.9,14.24-0.66c0.03-4.96,0.08-10.08,1.99-14.66c1.91-4.58,6.17-8.55,11.13-8.57c2.86-0.01,5.6,1.27,7.84,3.04
		c2.63,2.06,4.71,4.82,5.98,7.91c0.49-5.58,2.56-11.02,5.9-15.52c1.91-2.57,4.91-5.03,7.98-4.14c2.03,0.59,3.39,2.48,4.39,4.34
		c2.34,4.35,3.67,9.24,3.84,14.18c0.29-5.29,2.93-10.42,7.08-13.72c2.26-1.8,5.6-3.03,7.93-1.33c1.18,0.86,1.8,2.27,2.27,3.65
		c1.35,3.93,1.94,8.12,1.71,12.27c2.27-4.82,6.22-8.83,11-11.18c3.33-1.64,7.52-2.41,10.65-0.4c2.51,1.61,3.74,4.6,4.45,7.49
		c1.64,6.6,1.37,13.66-0.76,20.11c2.19-2.92,5.39-5.06,8.92-5.98c1.93-0.5,4.99-0.54,6.39,0.89c0.91,0.94,1.97,3.06,2.07,4.37
		c0.47,6.06-0.35,9.56-3.73,14.62c-3.44,5.15-4.12,6.38-10.04,10.64"/>
	<path class="st5" d="M302.67,844c-5.21-10.42-1.37-23.85,7.11-31.83s20.63-11.13,32.28-10.96c-0.4-10.3,2.41-20.87,8.73-29.01
		s16.29-13.61,26.6-13.56c10.31,0.04,12.98,4.85,12.98,4.85v40.49v16.44V844"/>
	<path class="st7" d="M17.06,748.31c-0.97,0.83-2.05,2.01-1.61,3.22c0.26,0.72,1.06,1.17,1.83,1.12s1.46-0.53,1.88-1.17
		c0.47-0.73,0.59-1.71,0.16-2.46C18.89,748.27,17.74,747.72,17.06,748.31z"/>
	<path class="st7" d="M18.63,826.98c-0.32,0.12-0.64,0.24-0.9,0.45c-0.26,0.22-0.45,0.55-0.39,0.89c0.02,0.15,0.09,0.28,0.16,0.41
		c0.23,0.42,0.57,0.86,1.05,0.87c0.41,0.01,0.75-0.31,1.01-0.62c0.17-0.21,0.34-0.43,0.43-0.69c0.09-0.26,0.11-0.55-0.02-0.8
		c-0.09-0.17-0.24-0.31-0.4-0.42C19.18,826.81,18.7,826.67,18.63,826.98z"/>
	<path class="st7" d="M55.42,804.94c-0.47-0.09-1-0.18-1.41,0.09c-0.29,0.19-0.45,0.53-0.57,0.85c-0.23,0.62-0.36,1.39,0.08,1.88
		c0.29,0.32,0.77,0.42,1.19,0.34c0.77-0.15,1.4-0.91,1.34-1.69C56,805.62,55.23,804.94,55.42,804.94z"/>
	<path class="st7" d="M54.88,776.83c-0.92,0.45-1.53,1.48-1.47,2.51c0.01,0.24,0.07,0.49,0.23,0.68c0.39,0.45,1.14,0.24,1.62-0.11
		c0.47-0.34,0.88-0.81,1.06-1.36c0.18-0.56,0.09-1.22-0.3-1.65S54.91,776.33,54.88,776.83z"/>
	<path class="st7" d="M109.35,822.4c-0.76,0.13-1.54,0.34-2.1,0.86s-0.81,1.45-0.37,2.09c0.34,0.49,1.01,0.68,1.6,0.57
		c0.59-0.11,1.1-0.49,1.51-0.92c0.29-0.3,0.55-0.67,0.58-1.09c0.04-0.52-0.3-1-0.73-1.29C109.4,822.32,108.89,822.19,109.35,822.4z"
		/>
	<path class="st7" d="M155.91,817.41c-0.13,0.33-0.35,0.61-0.51,0.92s-0.24,0.7-0.07,1.01c0.05,0.09,0.11,0.17,0.18,0.24
		c0.1,0.1,0.21,0.2,0.34,0.25c0.2,0.07,0.42,0.03,0.62-0.03c0.51-0.15,1.03-0.46,1.21-0.96c0.17-0.49-0.04-1.06-0.44-1.4
		C156.84,817.09,156.12,816.86,155.91,817.41z"/>
	<path class="st7" d="M3.83,785.58c-0.73,0.49-1.49,1.04-1.81,1.86c-0.32,0.82,0.02,1.96,0.88,2.15c0.6,0.13,1.2-0.22,1.65-0.63
		c0.66-0.6,1.21-1.4,1.24-2.29C5.82,785.77,5.11,784.72,3.83,785.58z"/>
	<path class="st7" d="M215.47,824.39c0.82,6.95,3.65,13.66,8.06,19.1c-1.9-3.46-3.16-7.23-4.81-10.81
		C217.4,829.83,215.84,827.09,215.47,824.39z"/>
	<path class="st7" d="M235.25,804.56c1.43,12.04,2.87,24.14,6.11,35.83c0.2-1.13,0.1-2.3-0.01-3.45
		C240.29,825.9,237.95,814.99,235.25,804.56z"/>
	<path class="st7" d="M260.62,797.24c-0.71,9.61-0.45,19.28,0.78,28.84c0.27,2.08,0.59,4.19,1.45,6.11
		c-0.46-10.04-0.92-20.08-1.37-30.13C261.39,800.1,261.29,798.13,260.62,797.24z"/>
	<path class="st7" d="M281.25,798.77c-1.52,11.2-2.26,22.5-2.2,33.8c-0.24-3.22,0.51-6.42,1.09-9.6c1.21-6.69,1.65-13.49,1.85-20.28
		"/>
	<path class="st7" d="M306.36,802.37c-5.49,9.96-8.67,21-11.44,32.03c3.69-9.84,7.39-19.68,11.08-29.52
		C306.34,804,306.67,803.12,306.36,802.37z"/>
	<path class="st7" d="M312.4,833.53c-0.25-0.62-0.4-1.28-0.45-1.94c0.41-0.29,0.96-0.41,1.43-0.23s0.81,0.7,0.71,1.19
		C313.99,833.05,313.38,833.39,312.4,833.53z"/>
	<path class="st7" d="M337.84,809.58c-0.39,0.73-0.58,1.56-0.54,2.39c0.43,0.32,1.08,0.19,1.45-0.19c0.38-0.38,0.51-0.94,0.49-1.47
		c-0.02-0.36-0.11-0.74-0.37-1S338.17,808.96,337.84,809.58z"/>
	<path class="st7" d="M346.17,837.54c0.07,0.38,0.11,0.76,0.11,1.14c0,0.16-0.01,0.34-0.1,0.47c-0.1,0.15-0.28,0.22-0.46,0.24
		c-0.62,0.08-1.26-0.43-1.3-1.06C344.37,837.71,344.93,837.11,346.17,837.54z"/>
	<path class="st7" d="M368.15,813.42c-0.41,0.48-0.84,0.99-0.96,1.61c-0.12,0.62,0.18,1.38,0.8,1.52c0.53,0.12,1.07-0.25,1.37-0.71
		c0.26-0.39,0.41-0.88,0.3-1.34C369.56,814.05,369.15,813.65,368.15,813.42z"/>
	<path class="st7" d="M369.25,776.1c-0.43,0.66-0.77,1.38-1.02,2.12c0.22,0.46,0.85,0.62,1.31,0.4c0.46-0.22,0.73-0.72,0.78-1.23
		C370.39,776.78,369.98,776.02,369.25,776.1z"/>
	<path class="st7" d="M387.65,794.45c-0.85,0.48-1.6,1.14-2.2,1.91c-0.2,0.26-0.38,0.56-0.33,0.88c0.04,0.27,0.24,0.48,0.45,0.65
		c0.54,0.44,1.23,0.76,1.92,0.65C388.18,798.43,388.81,797.8,387.65,794.45z"/>
	<path class="st7" d="M384.49,837.85c-0.18-0.28-0.5-0.48-0.84-0.5c-0.22,0.37-0.36,0.78-0.42,1.21c-0.03,0.22-0.03,0.44,0.04,0.65
		c0.07,0.21,0.23,0.39,0.44,0.45c0.12,0.03,0.25,0.02,0.37-0.01c0.51-0.14,0.87-0.7,0.77-1.22
		C384.76,837.9,384.23,837.5,384.49,837.85z"/>
</g>
<g id="Layer_15">
	<path class="st6" d="M20.43,695.03c-3.2-1.3-5.73-4.08-6.91-7.34s-1.03-6.93,0.22-10.16c0.78-2.02,2.11-3.98,4.12-4.78
		c2.25-0.89,5.07,0.02,6.36,2.06c0.74,1.17,0.99,2.57,1.12,3.95c0.32,3.43-0.03,6.92-1.02,10.21c-0.34,1.13-0.77,2.26-1.48,3.21
		S21.09,693.88,20.43,695.03z"/>
	<path class="st8" d="M23.97,694.06c-0.44-0.43-0.63,1.66-1.31,0.97c-4.01-4.65-5.08-9.62-4.02-15.87c0.21-0.63,0.41-1.27,0.63-2.05
		c0.86-2.07,2.65-3.8,4.82-4.35s4.69,0.2,6.03,2c1.31,1.75,1.38,4.11,1.39,6.3c0,0-0.08,0.4-0.21,1.33
		c-0.23,1.8-0.67,3.56-1.47,5.62c-0.41,1.19-0.91,2.34-1.66,3.71C27.65,693.36,25.77,690.89,23.97,694.06z"/>
	<path class="st6" d="M23.81,695.91c-1.42-2.5-2.73-5.09-3.46-7.87s-0.86-5.78,0.08-8.49c0.93-2.7,2.9-5.03,5.42-6.39
		c1.44-0.78,3.13-1.24,4.73-0.91c2.89,0.6,4.7,3.59,5.26,6.49c0.69,3.61-0.05,7.48-2.02,10.58
		C31.84,692.43,28.64,694.74,23.81,695.91z"/>
	<path class="st7" d="M19.75,716c-0.22-6.39,1.08-9.63,3.14-15.68c0.06-0.19,0.13-0.38,0.25-0.53c0.14-0.18,0.34-0.31,0.53-0.43
		c1.53-0.94,3.13-1.8,4.55-2.91c1.42-1.11,2.67-2.51,3.26-4.21c-1.18,0.56-2.36,1.12-3.54,1.67c-0.52,0.25-1.14,0.49-1.64,0.2
		c-0.3-0.17-0.47-0.49-0.62-0.8c-0.55-1.08-1.1-2.16-1.65-3.24c-0.06-0.12-0.13-0.25-0.26-0.28c-0.23-0.06-0.38,0.22-0.45,0.44
		c-0.3,0.99-0.6,1.97-0.9,2.96c-0.13,0.43-0.29,0.89-0.69,1.1c-0.63,0.33-1.35-0.2-1.86-0.69c-1.53-1.47-3.06-2.94-4.58-4.41
		c-0.21,1.51,0.32,3.05,1.11,4.36c0.8,1.31,1.86,2.42,2.85,3.58c0.3,0.35,0.6,0.71,0.73,1.14c0.17,0.58,0.03,1.2-0.1,1.79
		c-0.64,2.87-1.49,5.27-1.44,8.21c-1.14-2.06-1.35-3.75-2.42-5.84s-2.51-4.11-4.58-5.22c-1.38-0.74-2.96-1.04-4.52-1.04
		c-1.83,0-3.82,0.51-4.89,1.99c-1.21,1.66-0.85,4.08,0.33,5.76s3.01,2.78,4.82,3.74s3.7,1.88,5.15,3.34
		c0.42,0.42,0.84,0.63,1.32,0.98c0.34,0.25,0.67,0.69,1.02,0.94c0.47,0.34,1.33,2.2,1.33,2.2S17.25,715.35,19.75,716z"/>
</g>
<g id="Layer_14">
	<path class="st8" d="M168.78,775.31c-0.78-2.49-0.18-5.45,1.3-7.41c1.48-1.96,3.73-2.92,5.91-2.83c2.18,0.1,4.29,1.2,6.02,2.82
		c0.77-1.04,1.96-1.45,3.08-1.77c3.66-1.04,7.53-1.6,11.16-0.38s6.95,4.57,7.74,9.04c1.1-1.75,3.14-2.47,4.89-1.85
		s3.12,2.43,3.63,4.55c0.51,2.12,0.2,4.47-0.7,6.38c-0.68,1.44-1.68,2.67-2.91,3.38c-1.27,0.74-2.71,0.92-4.12,1.02
		c-9.07,0.64-18.13-1.43-26.92-4.2C174.99,783.16,170.99,782.37,168.78,775.31z"/>
	<path class="st6" d="M178.71,804.19c-4.52-3.12-9.05-10.48-11.5-16.06c-1.9-4.35-2.99-9.66-1.38-14.18
		c0.93-2.62,3.05-4.89,5.38-4.57c1.27,0.17,2.4,1.08,3.31,2.17c1.31,1.57,2.27,3.57,2.75,5.73c2.35-2.57,5.06-4.73,8.09-5.8
		c3.03-1.07,6.41-0.97,9.22,0.77c2.81,1.74,4.95,5.24,5.1,9.07c1.95-1.35,4.14-2.2,6.37-2.47c0.78-0.09,1.58-0.12,2.33,0.17
		c2.57,0.97,3.41,5.09,2.67,8.24c-0.8,3.43-2.86,6.21-4.99,8.65c-3.77,4.32-14.4,10.06-19.57,10.32"/>
	<path class="st7" d="M174.39,844c-0.15-3.17-2.14-6.09-4.32-7.84s-4.66-2.94-6.69-4.94c-2.03-1.99-3.62-5.16-3.03-8.25
		c0.59-3.07,3.13-5.07,5.66-5.72c1.4-0.36,2.89-0.41,4.25,0.15c1.76,0.73,3.16,2.42,4.14,4.35c0.97,1.93,1.56,4.1,2.15,6.25
		c0.24-5.43,0.91-10.84,2.01-16.11c0.16-0.78,0.31-1.69-0.1-2.33c-0.2-0.31-0.5-0.48-0.78-0.67c-3.64-2.37-5.95-7.5-5.63-12.51
		c0.02-0.36,0.1-0.79,0.38-0.92c0.24-0.11,0.5,0.06,0.72,0.24c2.54,2.04,4.73,4.67,7.18,6.88c0.73,0.66,1.51,1.29,2.38,1.6
		c1.39,0.49,2.88,0.12,4.28-0.34c2.92-0.97,5.75-2.35,8.42-4.1c0.42,1.49-0.14,3.14-0.92,4.4c-2.14,3.48-5.69,5.16-9.12,6.37
		c-0.84,6.71-1.68,13.42-2.84,20.05c2.36-3.72,5.69-6.51,9.38-7.86c2.68-0.98,5.98-1.02,7.86,1.51c1.43,1.92,1.59,4.98,0.6,7.28
		c-1.3,3.01-4.14,4.53-6.87,5.29s-5.59,1.03-8.11,2.52c-2.51,1.5-4.39,1.43-3.83,4.77L174.39,844z"/>
	<path class="st8" d="M203.83,778.66c-1.62,0.17-3.04,1.22-4.02,2.52s-1.62,2.83-2.15,4.36c-1.48,4.29-2.68,8.86-4.45,13.17
		c0.66-3.94,1.81-7.28,2.92-10.94c0.62-2.03,1.2-3.88,2.12-6.56c0.75-2.18,1.03-4.71-0.08-6.73"/>
	<path class="st8" d="M176.17,773.12c1.05,2.71,1.38,5.65,1.36,8.55c-0.02,2.9-0.38,5.79-0.65,8.68c-0.1,1.07-0.19,2.17,0.06,3.22
		c0.28-0.87,0.49-1.76,0.64-2.66c0.49-2.94,0.42-5.93,0.52-8.91c0.1-2.97-0.39-5.27,2.09-7.52c0.75-0.69,0.42-3.07,1.31-3.58
		c0-0.01,0.25-0.02,0.25-0.03"/>
</g>
<g id="Layer_14_copy">
	<path class="st8" d="M354.54,775.31c0.78-2.49,0.18-5.45-1.3-7.41c-1.48-1.96-3.73-2.92-5.91-2.83c-2.18,0.1-4.29,1.2-6.02,2.82
		c-0.77-1.04-1.96-1.45-3.08-1.77c-3.66-1.04-7.53-1.6-11.16-0.38c-3.62,1.23-6.95,4.57-7.74,9.04c-1.1-1.75-3.14-2.47-4.89-1.85
		c-1.74,0.61-3.12,2.43-3.63,4.55s-0.2,4.47,0.7,6.38c0.68,1.44,1.68,2.67,2.91,3.38c1.27,0.74,2.71,0.92,4.12,1.02
		c9.07,0.64,18.13-1.43,26.92-4.2C348.33,783.16,352.33,782.37,354.54,775.31z"/>
	<path class="st6" d="M344.61,804.19c4.52-3.12,9.05-10.48,11.5-16.06c1.9-4.35,2.99-9.66,1.38-14.18
		c-0.93-2.62-3.05-4.89-5.38-4.57c-1.27,0.17-2.4,1.08-3.31,2.17c-1.31,1.57-2.27,3.57-2.75,5.73c-2.35-2.57-5.06-4.73-8.09-5.8
		c-3.03-1.07-6.41-0.97-9.22,0.77c-2.81,1.74-4.95,5.24-5.1,9.07c-1.95-1.35-4.14-2.2-6.37-2.47c-0.78-0.09-1.58-0.12-2.33,0.17
		c-2.57,0.97-3.41,5.09-2.67,8.24c0.8,3.43,2.86,6.21,4.99,8.65c3.77,4.32,14.4,10.06,19.57,10.32"/>
	<path class="st7" d="M348.93,844c0.15-3.17,2.14-6.09,4.32-7.84c2.18-1.75,4.66-2.94,6.69-4.94s3.62-5.16,3.03-8.25
		c-0.59-3.07-3.13-5.07-5.66-5.72c-1.4-0.36-2.89-0.41-4.25,0.15c-1.76,0.73-3.16,2.42-4.14,4.35s-1.56,4.1-2.15,6.25
		c-0.24-5.43-0.91-10.84-2.01-16.11c-0.16-0.78-0.31-1.69,0.1-2.33c0.2-0.31,0.5-0.48,0.78-0.67c3.64-2.37,5.95-7.5,5.63-12.51
		c-0.02-0.36-0.1-0.79-0.38-0.92c-0.24-0.11-0.5,0.06-0.72,0.24c-2.54,2.04-4.73,4.67-7.18,6.88c-0.73,0.66-1.51,1.29-2.38,1.6
		c-1.39,0.49-2.88,0.12-4.28-0.34c-2.92-0.97-5.75-2.35-8.42-4.1c-0.42,1.49,0.14,3.14,0.92,4.4c2.14,3.48,5.69,5.16,9.12,6.37
		c0.84,6.71,1.68,13.42,2.84,20.05c-2.36-3.72-5.69-6.51-9.38-7.86c-2.68-0.98-5.98-1.02-7.86,1.51c-1.43,1.92-1.59,4.98-0.6,7.28
		c1.3,3.01,4.14,4.53,6.87,5.29c2.73,0.77,5.59,1.03,8.11,2.52c2.51,1.5,4.39,1.43,3.83,4.77L348.93,844z"/>
	<path class="st8" d="M319.49,778.66c1.62,0.17,3.04,1.22,4.02,2.52c0.98,1.3,1.62,2.83,2.15,4.36c1.48,4.29,2.68,8.86,4.45,13.17
		c-0.66-3.94-1.81-7.28-2.92-10.94c-0.62-2.03-1.2-3.88-2.12-6.56c-0.75-2.18-1.03-4.71,0.08-6.73"/>
	<path class="st8" d="M347.16,773.12c-1.05,2.71-1.38,5.65-1.36,8.55c0.02,2.9,0.38,5.79,0.65,8.68c0.1,1.07,0.19,2.17-0.06,3.22
		c-0.28-0.87-0.49-1.76-0.64-2.66c-0.49-2.94-0.42-5.93-0.52-8.91s0.39-5.27-2.09-7.52c-0.75-0.69-0.42-3.07-1.31-3.58
		c0-0.01-0.25-0.02-0.25-0.03"/>
</g>
<g id="Layer_11">
	<path class="st6" d="M0,76.41c0,0,3.62-5.83,16.47-8.21c9.41-1.75,19.34-0.46,26.9,2.36c2.59-6.78,3.43-11.6,8.33-16.95
		c5.09-5.56,12.36-9.48,19.62-9.41s15.24,4.38,19.32,9.8c2.82,3.74,4.87,9.34,5.01,14.03c7.88-3.13,17.26,0.91,22.42,7.65
		s6.82,15.51,7.2,23.98c0.05,1.07,0.06,2.21-0.51,3.11c-0.45,0.71-1.14,1.26-1.91,1.58c-21.84,9.19-39.41,12.08-64.87,12.08
		C44.9,116.3,25.33,115.71,0,103.12"/>
	<path class="st6" d="M217.22,308c-1.12-13.64-2.24-27.29-3.37-40.93c-0.9-10.89-1.79-21.89-0.29-32.71
		c1.5-10.82,5.63-21.61,13.46-29.24s19.77-11.51,30.11-7.98c5.58-17.16,18.8-28.2,37.73-28.2c10.83,0,23.6,6.63,29.58,12.53
		c5.97,5.91,9.58,14.4,8.74,22.76c13.88-4.41,30.26,0.68,39.19,12.19c8.93,11.5,9.8,28.63,2.09,40.99
		c9.21-1.46,15.91,6.06,15.91,6.06l-0.3,28.48v40.84v32.75"/>
	<path class="st6" d="M60.08,306.04c0.78-10.12,10.05-18.88,20.25-19.14c10.2-0.26,19.91,8.02,21.21,18.09
		c5.86-2.61,12.91-2.43,18.62,0.48c5.71,2.91,9.98,8.49,11.27,14.75c3.39-1.61,7.42-0.84,10.97,0.38c4.24,1.46,8.34,3.59,11.42,6.84
		c3.67,3.88,5.62,9.11,6.41,14.38c0.79,5.27,0.5,10.63,0.21,15.94c-0.06,1.14-0.15,2.35-0.81,3.27c-0.84,1.17-2.37,1.59-3.78,1.9
		c-38.42,8.4-78.99-7.04-117.53,0.82c-3.15,0.64-6.97,1.24-9.1-1.16c-0.79-0.88-1.18-2.04-1.54-3.16
		c-1.39-4.27-2.68-8.65-2.72-13.13c-0.04-4.49,1.33-9.17,4.59-12.27c4.83-4.6,12.29-4.7,18.98-4.51c-1.06-4.45-0.05-9.09,0.97-13.55
		c0.47-2.06,0.96-4.18,2.22-5.88C52.95,308.41,55.19,307.24,60.08,306.04z"/>
	<path class="st6" d="M283.67,85.94c-2.15-2.15-1.55-7.72,0.72-9.74c2.27-2.02,5.45-2.75,8.49-2.68c0.39-5.25,2.6-10.47,6.57-13.93
		c3.97-3.46,9.77-4.92,14.74-3.17c1.39,0.49,2.73,1.24,3.63,2.4c0.91,1.16,1.31,2.78,0.78,4.15c1.42-3.31,4.65-5.78,8.22-6.26
		c3.57-0.49,7.34,1.02,9.6,3.83c2.01,2.51,2.66,6.41,0.6,8.88c1.96-1.22,4.48-0.93,6.74-0.44c3.77,0.82,7.96,2.66,8.91,6.4
		c0.48,1.9-0.01,3.92-0.81,5.71c-0.16,0.35-0.33,0.73-0.25,1.1c0.16,0.75,1.11,0.93,1.76,1.34c1.46,0.91,1.36,3.13,0.55,4.64
		c-2.2,4.13-7.51,5.29-12.17,5.71C322.22,95.65,291,93.27,283.67,85.94z"/>
	<path class="st6" d="M150.25,490.57c-2.78-2.78-2-9.98,0.93-12.6c2.93-2.62,7.05-3.55,10.98-3.47c0.5-6.8,3.36-13.55,8.5-18.02
		c5.14-4.47,12.64-6.37,19.07-4.1c1.8,0.63,3.53,1.61,4.7,3.1c1.17,1.5,1.7,3.59,1,5.36c1.83-4.28,6.01-7.47,10.63-8.1
		s9.5,1.32,12.41,4.95c2.6,3.24,3.44,8.3,0.77,11.48c2.54-1.57,5.79-1.21,8.71-0.57c4.88,1.07,10.3,3.44,11.53,8.28
		c0.62,2.46-0.01,5.07-1.05,7.38c-0.2,0.45-0.43,0.94-0.33,1.42c0.2,0.97,1.43,1.21,2.27,1.73c1.88,1.18,1.76,4.04,0.71,6
		c-2.85,5.34-9.71,6.84-15.74,7.39C200.11,503.13,159.74,500.06,150.25,490.57z"/>
</g>
<g id="Layer_16">
	<path class="st9" d="M42.5,114.44c-0.69-2.52-1.86-4.91-3.42-6.99c-0.83-1.1-1.78-2.14-2.97-2.85c-1.18-0.71-2.61-1.08-3.96-0.79
		c-1.18,0.25-2.21,0.97-3.12,1.77c-2.86,2.5-4.87,5.85-6.32,9.36c-0.85,2.05-1.52,4.22-1.5,6.43c0.03,2.59,1.05,5.15,2.82,7.04
		c-2.32-0.42-4.72-0.45-7.05-0.1c-1.69,0.26-3.4,0.74-4.75,1.8c-1.34,1.06-2.26,2.79-1.97,4.48c0.16,0.94,0.67,1.79,1.28,2.54
		c1.69,2.09,4.14,3.48,6.75,4.15c2.6,0.67,5.35,0.64,8,0.2c1.74-0.29,3.51-0.78,4.85-1.91c1.08-0.91,1.8-2.16,2.48-3.4
		C36.96,129.99,39.58,123.45,42.5,114.44z"/>
	<path class="st8" d="M36.92,146.45c1.27-0.46,2.38-1.32,3.15-2.42c3.32,0.01,6.28-2.17,8.36-4.75c2.08-2.58,3.53-5.62,5.49-8.29
		c1.23-1.69,2.31-3.42,3.31-5.26c0.76-1.4,1.61-2.76,2.48-4.09c0.57-0.88,1.46-1.73,2.51-1.65c0.93,0.07,1.55,1.45,1.66,2.38
		c0.23,1.76-1.88,1.82-1.45,2.73c0.38,0.81,1.89-0.58,2.12-1.03c0.58-1.13,0.47-2.46-0.21-3.73c-0.6-1.11-1.56-2.04-2.82-1.93
		c-1.36,0.12-2.42,1.19-3.31,2.23c-2.06,2.43-2.97,4.2-5.45,7.84c1.18-6.15,0.16-12.7-2.82-18.2c-0.44-0.81-0.94-1.62-1.7-2.15
		c-0.66-0.46-1.46-0.67-2.26-0.74c-3.48-0.31-6.67,1.83-9.41,3.99c-2.4,1.89-4.76,3.91-6.5,6.43s-2.83,5.6-2.43,8.64
		c0.38,2.89,2.03,5.43,3.68,7.83c-3.28-1.78-6.68-3.6-10.4-3.88c-0.73-0.06-1.5-0.04-2.17,0.27c-0.61,0.29-1.08,0.81-1.49,1.34
		c-1.42,1.89-2.25,4.21-2.35,6.57c-0.04,1.11,0.1,2.31,0.84,3.14c0.43,0.49,1.09,0.7,1.62,1.09c4.47,3.28,9.1,3.69,13.92,4.52
		C32.78,147.55,34.38,147.37,36.92,146.45z"/>
	<path class="st9" d="M50.28,129.24c0.53-0.6,0.6-1.47,0.64-2.27c0.18-3.35,0.34-6.78-0.67-9.98c-0.23-0.71-0.52-1.43-1.03-1.98
		c-0.36-0.39-0.81-0.68-1.28-0.91c-2.67-1.31-6.02-0.58-8.39,1.2c-2.38,1.79-3.92,4.47-5.04,7.23c-0.64,1.59-1.16,3.24-1.26,4.95
		c-0.11,1.88,0.3,3.77,1.07,5.49c0.83,1.86,2.05,3.51,3.45,4.99c-3.41-1.87-7.41-2.67-11.28-2.24c-1.89,0.21-3.84,0.75-5.18,2.1
		c-1.35,1.34-1.86,3.65-0.73,5.18c1.02,1.39,2.94,1.7,4.65,1.91c-1.28-0.86-2.7-1.97-2.74-3.51c-0.02-0.99,0.58-1.91,1.38-2.49
		c0.81-0.57,1.79-0.83,2.77-0.96c4.81-0.64,9.5,1.56,14.29,2.31c0.22,0.03,0.47,0.06,0.64-0.1c0.26-0.24,0.07-0.67-0.13-0.96
		c-1.22-1.81-2.46-3.62-3.37-5.6s-1.49-4.16-1.32-6.34c0.24-3,1.86-5.69,3.53-8.18c0.68-1.01,1.43-2.06,2.56-2.51
		c1.59-0.64,3.49,0.15,4.56,1.49c1.08,1.33,1.48,3.08,1.69,4.79c0.2,1.69,0.24,3.4,0.1,5.1c-0.03,0.36-0.06,0.74,0.13,1.05
		C49.49,129.3,50.06,129.49,50.28,129.24z"/>
	<path class="st6" d="M46.47,127.87c1.11-1.62,1.11-3.92,0.01-5.55c-0.26-0.38-0.67-0.76-1.12-0.67c-0.3,0.06-0.52,0.32-0.69,0.58
		c-1.03,1.57-1.17,3.69-0.35,5.38c0.17,0.35,0.39,0.69,0.71,0.92C45.34,128.76,45.79,128.87,46.47,127.87z"/>
	<path class="st6" d="M42.78,131.22c0.01-1.01-0.22-2.04-0.74-2.91c-0.52-0.87-1.34-1.58-2.32-1.86c-0.2-0.06-0.41-0.1-0.62-0.05
		c-0.43,0.12-0.64,0.62-0.65,1.06c-0.03,1.04,0.65,1.95,1.34,2.73c0.35,0.4,0.76,0.81,1.28,0.88
		C41.64,131.14,42.17,130.82,42.78,131.22z"/>
	<path class="st6" d="M32.74,143.57c0.19-0.47,0.75-0.78,0.74-1.29c-0.01-0.33-0.28-0.6-0.54-0.8c-1.57-1.21-3.76-1.56-5.63-0.9
		c-0.49,0.17-1.02,0.48-1.1,0.99c-0.1,0.55,0.35,1.03,0.77,1.41c0.3,0.27,0.6,0.54,0.97,0.71c0.45,0.2,0.95,0.22,1.43,0.22
		C30.52,143.91,31.67,143.87,32.74,143.57z"/>
</g>
<g id="Layer_17">
	<path class="st10" d="M342.31,190.44c-1.61-1.7-3.6-3-5.4-4.51c-1.79-1.51-3.46-3.35-4.06-5.61c-0.56-2.12-0.13-4.4,0.78-6.4
		c0.95-2.09,2.54-4.04,4.74-4.73c2.84-0.89,6.01,0.6,7.89,2.91s2.73,5.27,3.39,8.17c0.5,2.19,0.9,4.53,0.16,6.65
		C349.07,189.04,346.76,190.77,342.31,190.44z"/>
	<path class="st11" d="M344.83,190.89c2.56,2.93,5.23,6.08,5.86,9.92c0.51,3.11-0.38,6.42,0.65,9.39c0.71,2.05,2.33,3.76,4.34,4.57
		c0.79,0.32,1.72,0.49,2.46,0.07c0.67-0.39,1.01-1.21,1.02-1.99c0.01-0.78-0.27-1.53-0.57-2.25c-1.06-2.52-2.51-4.88-4.28-6.96
		c-1.47-1.72-3.24-3.44-3.5-5.69"/>
	<path class="st11" d="M343.2,188.61c3.31-0.52,6.05-2.8,8.41-5.18c2.33-2.35,4.48-4.88,6.53-7.47c1.3-1.64,2.61-3.36,4.42-4.41
		c1.81-1.06,4.28-1.29,5.9,0.03c0.9,0.73,1.42,1.82,1.79,2.92c1.78,5.34,0.21,11.65-3.88,15.52c-0.14,0.13-0.29,0.27-0.33,0.46
		c-0.06,0.22,0.05,0.45,0.16,0.66c0.84,1.57,1.96,3.02,2.51,4.71s0.37,3.81-1.03,4.91c-0.58,0.46-1.34,0.72-1.74,1.35
		c-0.68,1.08,0.14,2.49,1.07,3.36c1.18,1.11,2.58,1.97,3.83,3.01c1.25,1.04,2.38,2.34,2.74,3.92c0.2,0.86,0.08,1.91-0.65,2.42
		c-0.34,0.23-0.76,0.31-1.17,0.34c-3.33,0.24-6.22-2.42-7.78-5.37c-0.56-1.06-1.01-2.2-1.78-3.12c-0.85-1.03-2.04-1.72-3.21-2.35
		c-1.9-1.01-3.86-1.91-5.87-2.68c-1.45-0.56-2.96-1.06-4.21-1.99C345.79,197.35,344.95,193.12,343.2,188.61z"/>
	<path class="st12" d="M342.33,195.58c1.77,2.57,3.85,4.93,6.17,7.01c1.14,1.01,2.45,2.01,3.97,2.04
		c-1.63-4.98-6.15-8.46-8.51-13.13c-1.14-2.26-1.76-4.76-2.95-6.99c-1.19-2.23-3.19-4.28-5.71-4.53c-1.1-0.11-2.34,0.21-2.97,1.12
		c-0.63,0.91-0.3,2.45,0.77,2.74c0.22-0.23-0.08-0.57-0.21-0.86c-0.18-0.39-0.02-0.89,0.3-1.18c0.32-0.29,0.76-0.42,1.19-0.48
		c1.72-0.23,3.49,0.54,4.64,1.83c1.15,1.29,1.71,3.05,1.73,4.78c-1.71-1.13-3.74-1.78-5.79-1.86c-0.61-0.02-1.29,0.03-1.73,0.46
		c-0.43,0.43-0.35,1.36,0.25,1.49c0.33,0.07,0.66-0.11,0.96-0.27c1.9-0.98,4.6-0.69,5.7,1.14
		C341.37,190.86,340.89,193.47,342.33,195.58z"/>
	<path class="st10" d="M351.32,187.1c2.83-2.83,5.66-5.65,8.48-8.48c1.74-1.74,3.83-3.61,6.27-3.37c0.34,0.03,0.7,0.12,0.96,0.35
		c0.31,0.27,0.42,0.7,0.51,1.1c0.43,2.03,0.54,4.33-0.74,5.97c0.41-1.43-1.02-2.88-2.5-3c-1.48-0.13-2.89,0.67-4.08,1.56
		c-2.88,2.15-5.26,5.05-8.53,6.57C351.32,187.97,350.58,187.84,351.32,187.1z"/>
	<path class="st10" d="M357.23,187.52c0.07-1.59,1.23-3.08,2.76-3.54c1.1-0.33,2.28-0.16,3.41,0.01c0.29,0.04,0.6,0.1,0.81,0.29
		c0.25,0.23,0.31,0.6,0.26,0.93c-0.13,0.8-0.81,1.39-1.51,1.79C361.37,187.92,359.48,188.27,357.23,187.52z"/>
	<path class="st10" d="M358.38,196.45c1.25-0.47,2.54-0.94,3.87-0.83c1.33,0.1,2.69,0.96,2.94,2.26c0.05,0.25,0.05,0.5-0.02,0.74
		c-0.2,0.65-0.92,0.99-1.59,1.08c-1.23,0.15-2.47-0.32-3.46-1.06C359.11,197.9,358.34,196.92,358.38,196.45z"/>
	<path class="st11" d="M340.94,182.6c-1.12-1.21-1.75-2.3-1.83-4.46c-0.04-1.14,0.11-2.4,0.94-3.18c0.91-0.86,3.71-1.49,3.06-0.45
		c-0.16,0.25-0.46,0.44-1.07,1.05c-0.63,0.63-0.74,1.02-0.95,1.88c-0.14,0.59,0.01,1.25,0.13,1.85c0.25,1.2,0.78,2.33,1.3,3.44
		c0.21,0.44,0.42,0.89,0.63,1.33C342.42,184.36,341.46,183.16,340.94,182.6z"/>
</g>
<g id="Layer_19">
	<path class="st9" d="M67.05,498.27c0.75-2.33,1.95-4.52,3.51-6.42c0.36-0.43,0.75-0.86,1.27-1.08c0.49-0.2,1.03-0.19,1.55-0.09
		c1.97,0.39,3.59,2.15,3.8,4.15c0.2,1.84-0.69,3.63-1.76,5.14c-1.54,2.18-3.61,4.09-5.76,5.62c0.03-0.33,0.06-0.67,0.1-1
		c0,0-0.38,1.62-0.44,1.62C69.85,504.42,70.14,502.56,67.05,498.27z"/>
	<path class="st8" d="M69.69,504.86c-0.98-6.44-0.39-9.54-0.1-14.31c0.06-0.98-0.69-3.56-1.34-4.31c-0.79-0.91-2.04-1.25-3.23-1.43
		c-1.47-0.23-2.98-0.29-4.42,0.06c-1.44,0.35-2.82,1.13-3.67,2.34c-0.91,1.29-1.15,2.97-0.84,4.51c0.31,1.54,1.14,2.95,2.21,4.1
		c-0.88-0.22-1.76-0.44-2.63-0.67c-1.36-0.34-2.73-0.69-4.13-0.63c-1.4,0.06-2.84,0.6-3.68,1.71c-1.09,1.45-0.9,3.58,0.05,5.12
		s2.55,2.58,4.18,3.38c2.32,1.13,4.86,1.86,7.44,1.82c1.76-0.03,3.6-0.4,5.2,0.32C65.49,507.22,66.19,507.81,69.69,504.86z"/>
	<path class="st13" d="M63.04,506.96c-0.79,0.32-1.57,0.65-2.36,0.97c-0.39,0.16-0.84,0.42-0.77,0.77c0.08,0.36,0.66,0.47,1.12,0.47
		c5.12,0.08,10.05-1.67,14.35-3.94c0.78-0.41,1.77-0.85,2.57-0.48c0.56-0.33,0.06-1.12-0.62-1.2c-0.68-0.08-1.31,0.26-1.89,0.56
		c-1.21,0.62-2.53,1.12-3.9,1.47c1.09-1.23,2.8-2.09,4.64-2.34c0.09-0.36-0.32-0.71-0.76-0.79s-0.91,0.04-1.33,0.17
		C70.9,503.64,67.9,504.95,63.04,506.96z"/>
	<path class="st6" d="M67.64,496.89c0.45-1.61,0.44-3.34-0.02-4.95c-0.26-0.9-0.66-1.76-1.05-2.62c-0.4-0.87-0.84-1.78-1.61-2.36
		c-0.55-0.41-1.24-0.61-1.92-0.66c-1.75-0.13-3.54,0.76-4.5,2.24c-0.96,1.47-1.04,3.47-0.21,5.02c0.39,0.72,1.02,1.38,1.82,1.51
		c0.15-1.03,0.31-2.09,0.84-2.99c0.53-0.9,1.52-1.6,2.55-1.48c0.91,0.11,1.65,0.84,2.03,1.67c0.39,0.83,0.48,1.76,0.59,2.67
		c0.1,0.91,0.22,1.84,0.65,2.65C66.93,497.5,67.06,497.4,67.64,496.89z"/>
	<path class="st6" d="M57.37,498.73c-1.38-1.32-3.34-2.03-5.24-1.88c-0.5,0.04-1.04,0.16-1.36,0.55c-0.17,0.21-0.26,0.48-0.32,0.74
		c-0.24,0.96-0.24,2.01,0.19,2.89c0.45,0.91,1.3,1.54,2.17,2.05c1.7,1.02,3.57,1.74,5.51,2.14c0.81,0.17,1.69,0.27,2.42-0.1
		c-1.34-0.74-2.84-1.16-4.22-1.81s-2.72-1.64-3.27-3.07c-0.09-0.24-0.16-0.54,0-0.75c0.07-0.1,0.19-0.16,0.3-0.21
		c0.39-0.18,0.82-0.29,1.39-0.21c0.59-0.04,1.19,0.12,1.68,0.46C56.86,499.71,57.08,499.94,57.37,498.73z"/>
	<path class="st6" d="M65.4,501.86c-0.82-0.02-1.59-0.49-2.1-1.13c-0.51-0.64-0.79-1.44-0.93-2.25c-0.16-0.92-0.16-1.86,0-2.78
		c0.04-0.25,0.12-0.52,0.33-0.65c0.27-0.16,0.63-0.02,0.82,0.23s0.24,0.57,0.3,0.88C64.12,497.89,64.65,499.74,65.4,501.86z"/>
</g>
</svg>
