<?xml version="1.0" encoding="utf-8"?>
<!-- Generator: Adobe Adobe Illustrator 24.2.0, SVG Export Plug-In . SVG Version: 6.00 Build 0)  -->
<svg version="1.1" xmlns="http://www.w3.org/2000/svg" xmlns:xlink="http://www.w3.org/1999/xlink" x="0px" y="0px"
	 viewBox="0 0 393 852" style="enable-background:new 0 0 393 852;" xml:space="preserve">
<style type="text/css">
	.st0{fill:#96EDDD;}
	.st1{fill:#005F61;}
	.st2{fill:#7A6B5A;}
	.st3{fill:#00937F;}
	.st4{fill:#008F4C;}
	.st5{fill:url(#SVGID_1_);}
	.st6{fill:#81D292;}
	.st7{fill:#F2A796;}
	.st8{fill:#FFFFFF;}
	.st9{fill:#FCFCFC;}
	.st10{fill:#F17E8C;}
	.st11{fill:#E3C553;}
	.st12{fill:#F9F38E;}
	.st13{fill:#AE8063;}
	.st14{fill:#1E2D2A;}
	.st15{fill:url(#SVGID_2_);}
</style>
<g id="Layer_1">
</g>
<g id="Layer_9">
	<rect class="st0" width="393" height="852"/>
</g>
<g id="Layer_13">
	<path class="st1" d="M180.44,210.68c9.05,9.15,21.74,14.59,34.61,14.82c12.87,0.23,25.75-4.75,35.12-13.57
		c7.69,8.35,19.39,13.1,30.65,11.62c11.26-1.48,21.62-9.5,25.1-20.31c3.48-10.81-0.61-23.82-10.1-30.06
		c14.68-11.26,20.44-32.78,13.34-49.87c-7.12-17.16-25.28-28.02-43.72-30.29c-18.94-2.33-35.74-2.53-50.42,9.66
		c-8.44-20.27-34.52-32.24-47.43-14.04c-3.86-16.16-19.18-19.99-35.39-16.33S66.74,35.63,66.74,35.63C59.71,30.6,0,22.19,0,22.19
		l0,110"/>
	<path class="st2" d="M0,295.07c21.37-17.76,32.12-24.71,56.17-38.64c66.68-38.61,144.06-90.26,212.46-111.98
		c-6.3-10.95-38.91-0.46-43.42-12.26c-20.23,14.65-32.79,25.06-54.77,36.92c-51.35,27.71-84.7,44.41-136.05,72.12
		C19.24,249.4,0,250.51,0,250.51"/>
	<path class="st3" d="M170.15,121.59c3.75,28.28,17.61,58.91,36.87,79.27c7.58,8.02,15.36,13.64,24.74,16.83
		c9.38,3.19,18,1.85,26.93-2.44c5.02-2.41,13.26-10.36,16.73-14.72c2.62-3.29,4.82-6.99,8.06-9.68c3.23-2.69,7.94-4.2,11.69-2.29
		c5.28,2.69,5.64,9.88,6.4,15.76c1.62,12.59,7.49,22.71,16.81,31.43c4.02,3.76,8.36,8.23,13.83,8.82
		c10.54,1.14,17.06-1.24,26.24-6.85c7.4-4.53,12.97-14.25,15.83-22.44c3.08,2.09,2.06,6.93,0.3,10.22
		c-6.32,11.78-15.3,16.79-22.73,20.44c-6.37,3.13-12.61,3.44-19.64,2.44c-8.94-1.27-16.23-7.84-21.79-14.96
		c-6.94-8.89-12.12-19.14-15.18-29.99c-0.79-2.8-1.88-6.11-4.69-6.87c-2.95-0.8-5.63,1.78-7.67,4.06
		c-6.97,7.81-14.88,15.07-24.42,19.38c-9.54,4.31-20.95,5.37-31.41,1.02c-15.42-6.42-24.8-17.74-36.31-33.35
		c-4.03-6.01-5.91-9.93-10.43-18.71C173.16,154.05,161.62,115.61,170.15,121.59z"/>
	<path class="st3" d="M181.43,161.69c1.18,1.26,3.31,1.21,4.76,0.27c1.45-0.93,2.33-2.53,2.93-4.15c2.38-6.33,1.32-13.5-1.22-19.76
		c-4.54,2.6-8.14,6.82-9.99,11.72c-0.62,1.64-1.05,3.37-1.01,5.11C176.93,156.63,177.9,157.94,181.43,161.69z"/>
	<path class="st3" d="M184.65,172.81c-1.43-3.47-5.1-5.64-8.82-6.19c-3.72-0.56-7.5,0.25-11.12,1.24c0.66,2.06,2.53,3.47,4.36,4.63
		c5.16,3.27,11.28,5.74,17.3,4.64C187.66,176.89,189.2,176.13,184.65,172.81z"/>
	<path class="st3" d="M206.11,202.12c0.63,0.63,1.64,0.76,2.49,0.48c0.85-0.28,1.54-0.89,2.11-1.58c2.97-3.59,2.72-8.83,1.65-13.37
		c-0.88-3.75-2.2-7.4-3.94-10.84c-0.3-0.59-0.62-1.19-1.14-1.6s-1.28-0.58-1.84-0.24c-0.36,0.22-0.59,0.61-0.78,0.99
		c-2.86,5.42-4.13,11.66-3.63,17.77C201.22,196.08,202.11,198.11,206.11,202.12z"/>
	<path class="st3" d="M225,217.73c-6.58,0.28-12.9,4.22-16.04,10.01c3.79,1.14,7.84,1.04,11.76,0.51c2.37-0.32,4.75-0.8,6.93-1.8
		s4.15-2.56,5.32-4.65c0.37-0.66,0.64-1.5,0.24-2.13"/>
	<path class="st3" d="M273.45,207.99c-1.15,0.16-1.92,1.38-1.96,2.54c-0.03,1.16,0.5,2.26,1.09,3.26c2.24,3.78,5.47,6.87,8.78,9.76
		c0.78,0.68,1.58,1.36,2.53,1.78c0.2,0.09,0.46,0.15,0.61,0c0.08-0.08,0.1-0.19,0.12-0.3c0.54-2.71-0.04-5.5-0.79-8.16
		c-0.7-2.47-1.6-4.97-3.36-6.83C278.58,208.04,276.05,207.62,273.45,207.99z"/>
	<path class="st3" d="M330.26,245.85c-0.34-1.2-1.78-1.84-3.02-1.66c-1.24,0.18-2.3,0.98-3.21,1.84c-2.72,2.57-4.62,5.88-6.34,9.2
		c-0.66,1.26-1.3,2.55-1.62,3.94c-0.04,0.19-0.08,0.42,0.05,0.57c0.09,0.1,0.23,0.14,0.36,0.17c3.07,0.71,6.29-0.25,9.09-1.69
		c1.87-0.96,3.63-2.15,5.06-3.69c1.43-1.54,2.51-3.43,2.88-5.5l0.2-0.59"/>
	<path class="st3" d="M367.63,231.89c-1.23,1.48-3.64,1.47-5.29,0.46s-2.71-2.73-3.65-4.41c-2.27-4.06-4.29-8.51-4.08-13.17
		c5.86,1.78,11.18,5.29,15.14,9.96"/>
	<path class="st3" d="M0,253.15c17.2,9.45,35.34,9.95,48.21-6.22c6.24,8.41,12.44,14.7,25.55,14.29c6.63-0.21,18-5.65,21.77-12.73
		c2.72,5.87,9.09,9.85,15.55,9.72c6.47-0.13,12.67-4.37,15.15-10.34c3.9,5.33,10.84,11.77,21.59,11.77c8.96,0,17.75-2.37,22.17-7.48
		c4.68-5.42,8.2-12.91,4.67-23.52c12.43,0,18.21-3.21,24.35-13.5c2.52-4.22,4.87-16.89,3.42-28.77c-0.75-6.14-3.7-15.07-7.53-19.93
		c-7.09-8.98-19.7-10.36-32.15-9.82c3.23-9.96-2.72-21.58-12.19-26.05c-9.47-4.48-21.29-2.32-29.59,4.07
		c-0.66-8.87-12.27-14.77-19.82-10.07c1.45-14.02-9.97-24.34-17.04-26.95c-10.85-4-21.18,0.38-30.99,6.51
		c-1.16-7.12-12.16-8.99-17.64-5.9C33.91,91,24.81,87.15,19.13,87.11C7.5,87.11,0,97.17,0,97.17"/>
</g>
<g id="Layer_10">
	<path class="st4" d="M128.94,46.91c0.99,17.6,10.19,34.82,24.95,44.45s34.87,10.98,50.26,2.38c2.28,13.6,15.08,24.66,28.86,24.94
		c-9.7,17.02-7.65,39.97,4.92,55c12.57,15.02,34.81,21.09,53.27,14.54c0.84,17.75,15.7,28.73,32.66,34.05
		c8.54,2.68,26.95,2.48,34.95,0.86c8.86-1.8,34.18-5.86,34.18-5.86v-70.16l-0.51-99.21"/>
	<linearGradient id="SVGID_1_" gradientUnits="userSpaceOnUse" x1="227.4228" y1="110.8195" x2="378.5618" y2="233.2248">
		<stop  offset="0" style="stop-color:#B68365"/>
		<stop  offset="1" style="stop-color:#7A6B5A"/>
	</linearGradient>
	<path class="st5" d="M239.85,71.42c21.97,21.97,46.12,45.74,63.32,69.78c-30.74-4.66-71.94-12.82-99.83-20.43
		c-2.45-0.67-37.04-9.22-37.04-9.22l-18.49,16.1c41.66,8.64,85.62,15.98,124.14,28.73c2.21,0.73,46.84,13.33,46.84,13.33
		s25.98,20.72,28.31,23.05C370.8,216.44,393,249.04,393,249.04v-17.6c0.33-1.52,0-24.48,0-24.48v-35.55c0,0-25.05-9.63-45.55-25.39
		c-7.03-5.4-24.67-25.44-24.67-25.44s-43.02-41.1-63.58-65.33C252.11,60.81,244.68,65.91,239.85,71.42z"/>
	<path class="st6" d="M0,0v37.45c0,0,4.32,16.08,20.31,21.3c13.3,4.35,29.08,0.95,37.9-6.36c8.33,14.64,30.7,27.59,50.56,28.4
		c14.1,0.58,42.86-1.22,56-31.14c4.76,10.5,12.04,16.46,22.71,20.84c8.17,3.36,24.13,0.66,34.36-10.74
		c5.82,15.94,21.04,22.98,34.34,22.41c15.06-0.65,27.74-6.52,34.83-19.82c5.3,10.11,19.62,16.53,29.78,11.31
		c-1.99,13.28-0.5,24.29,6.47,34.15c5.23,7.41,17.99,14.05,29.8,16.39c9.56,1.89,35.93-2.05,35.93-2.05V76.9V0c0,0-30.12,0-29.9,0"
		/>
</g>
<g id="foliage">
	<g id="flower_9">
		<path class="st7" d="M373.22,468.36c-0.94,0.34-1.11-2.07-1.98-2.56c-0.87-0.49-1.58-1.23-2.24-1.98
			c-2.53-2.82-4.75-5.92-6.6-9.23c-0.94-1.66-1.79-3.42-2.06-5.31c-0.37-2.59,0.39-5.22,1.56-7.56c0.52-1.03,1.24-2.12,2.37-2.37
			c0.97-0.22,1.95,0.25,2.79,0.77c1.77,1.11,3.33,2.55,4.57,4.24c0.93-2.19,2.09-4.28,3.47-6.22c0.7-0.99,1.51-1.97,2.63-2.43
			c1.88-0.78,4.15,0.23,5.34,1.88c1.32,1.82,1.55,4.18,2.27,6.32c0.65,1.91,1.71,3.69,2.04,5.68c0.35,2.09-0.15,4.24-1.04,6.16
			c-0.88,1.92-2.14,3.64-3.38,5.35c-1.47,2.01-2.94,4.03-4.4,6.04c-0.48,0.66-0.98,1.34-1.64,1.83c-0.66,0.49-1.52,0.78-2.31,0.58"
			/>
		<path class="st8" d="M379.03,468.36c1.4-0.34,2.55-1.31,3.52-2.38c4.6-5.04,6.07-12.32,5.47-19.12c-0.34-3.9-1.35-7.85-3.63-11.04
			c-0.49-0.68-1.05-1.34-1.79-1.73c-0.65-0.35-1.39-0.47-2.13-0.48c-2.7-0.03-5.36,1.51-6.66,3.87c-0.39,0.7-0.66,1.45-0.91,2.21
			c-2.15,6.59-2.45,13.77-0.85,20.51c0.52,2.2,1.27,4.4,2.69,6.15C375.61,467.42,376.9,468.87,379.03,468.36z"/>
		<path class="st8" d="M374.61,468.51c-2.98-1.39-6.09-3.81-8.36-6.18c-0.94-0.98-1.8-2.04-2.54-3.18c-0.97-1.5-1.71-3.13-2.41-4.77
			c-0.61-1.41-1.2-2.84-1.39-4.36c-0.21-1.68,0.1-3.38,0.41-5.04c0.23-1.26,0.48-2.53,0.93-3.72c0.53-1.41,1.53-2.84,3.02-3.08
			c1.66-0.27,3.13,1.02,4.32,2.21c0.79,0.79,1.63,1.8,2.32,2.69c-0.65,1.94-1.08,3.77-1.24,5.88c-0.27,3.64,0.04,5.96,0.33,7.96
			c0.38,2.55,1.4,5.71,2.21,7.49c0.25,0.54,0.9,1.43,1.26,1.91C374.14,467.17,374.6,467.31,374.61,468.51z"/>
		<path class="st1" d="M372.63,491.09c0.31-4.07,1.06-5.79-0.74-7.62c-1.8-1.82-2.96-0.65-5.52-0.74
			c-4.05-0.14-8.07-1.26-11.61-3.25c-1.49-0.84-2.93-1.86-3.84-3.3c-0.91-1.44-1.21-3.37-0.38-4.86c0.73-1.31,2.17-2.05,3.59-2.5
			c3.4-1.07,7.21-0.8,10.43,0.74c3.07,1.47,5.5,3.96,7.87,6.41c0.36-1.94,0.48-3.93,0.34-5.9c-0.02-0.24-0.04-0.48-0.15-0.69
			c-0.19-0.35-0.6-0.52-0.97-0.67c-3.68-1.57-6.52-4.95-7.44-8.84c2.46,1.35,4.92,2.7,7.38,4.05c0.36,0.2,0.83,0.4,1.17,0.15
			c0.25-0.18,0.31-0.52,0.35-0.82c0.34-2.41,1.04-4.78,2.08-6.98c0.93,0.97,1.2,2.4,1.23,3.74c0.03,1.34-0.13,2.7,0.12,4.02
			c0.05,0.28,0.14,0.57,0.36,0.74c0.34,0.27,0.83,0.15,1.24,0c3.18-1.13,6.15-2.87,8.68-5.1c0.52,1.61-0.44,3.31-1.52,4.61
			c-1.43,1.73-3.14,3.23-5.04,4.42c-0.71,0.44-1.46,0.85-1.98,1.5c-0.57,0.7-0.81,1.6-1.04,2.47c-0.44,1.68-0.89,3.47-0.35,5.12
			c3.28-3.73,7.14-6.95,11.4-9.5c1.9-1.14,4.7-1.76,4.7-1.76v3.1v5.8c0,0-0.15,4.74-4.45,7.3c-2.49,1.48-9-0.61-11.14,1.34
			c-1.86,1.7-0.36,4.28-0.07,8.57"/>
	</g>
	<path class="st4" d="M393,504.23c-4.36-11.37-20.7-13.89-25.97-13.89c-11.03,0-18.07,4.81-23.23,8.69
		c-5.75,4.32-9.36,10.67-9.74,19.56c-5.8-1.25-11.85,0.99-16.37,4.82c-6.81,5.77-4.57,13.57-3.32,19.37
		c-7.6-1.23-15.57-1.32-23.62,5.77c-6.06,5.34-9.28,14.16-6.98,21.9c-10-4.49-21.64-5.61-32.07-2.26
		c-10.44,3.35-19.46,11.38-23.21,21.68c-0.47,1.3-0.87,2.68-0.65,4.04c0.38,2.39,2.48,4.05,4.24,5.71
		c8.64,8.09,11.84,21.48,7.8,32.6c16.84-0.82,32.68,7.3,47.58,15.19c31.96,16.93,55.23,33.72,80.98,59.12
		c6.06,5.98,15.23,20.67,24.56,29.19"/>
	<g id="flower_6">
		<path class="st7" d="M231.81,564.07c-0.81,0.41-1.23-1.74-2.07-2.09s-1.55-0.94-2.24-1.54c-2.58-2.27-4.92-4.83-6.95-7.6
			c-1.02-1.4-1.98-2.89-2.43-4.56c-0.61-2.29-0.21-4.75,0.59-6.98c0.36-0.99,0.89-2.05,1.88-2.4c0.85-0.3,1.78,0.01,2.6,0.39
			c1.72,0.81,3.28,1.94,4.58,3.32c0.6-2.08,1.42-4.09,2.46-5.98c0.53-0.97,1.15-1.94,2.11-2.48c1.61-0.9,3.76-0.24,5.02,1.11
			c1.39,1.5,1.85,3.61,2.73,5.45c0.79,1.65,1.94,3.14,2.45,4.9c0.54,1.84,0.32,3.84-0.27,5.67s-1.53,3.52-2.47,5.19
			c-1.11,1.97-2.21,3.95-3.32,5.92c-0.36,0.65-0.74,1.31-1.28,1.83c-0.54,0.52-1.28,0.87-2.02,0.77"/>
		<path class="st8" d="M237.05,563.44c1.22-0.45,2.16-1.46,2.92-2.52c3.61-5.04,4.14-11.77,2.86-17.83
			c-0.73-3.48-2.06-6.93-4.47-9.56c-0.51-0.56-1.09-1.09-1.8-1.37c-0.62-0.24-1.31-0.27-1.97-0.2c-2.44,0.26-4.67,1.94-5.59,4.21
			c-0.27,0.67-0.44,1.38-0.58,2.09c-1.23,6.17-0.72,12.68,1.46,18.59c0.71,1.92,1.62,3.83,3.09,5.26
			C233.87,562.96,235.19,564.13,237.05,563.44z"/>
		<path class="st8" d="M233.08,564.05c-2.84-0.93-5.9-2.77-8.2-4.67c-0.95-0.78-1.84-1.64-2.63-2.59c-1.03-1.25-1.88-2.64-2.69-4.04
			c-0.7-1.2-1.39-2.43-1.73-3.78c-0.37-1.49-0.28-3.06-0.18-4.59c0.08-1.16,0.16-2.33,0.43-3.46c0.33-1.33,1.07-2.73,2.39-3.11
			c1.47-0.42,2.93,0.58,4.13,1.52c0.8,0.63,1.66,1.44,2.38,2.17c-0.37,1.82-0.57,3.52-0.48,5.43c0.15,3.31,0.68,5.37,1.16,7.14
			c0.62,2.26,1.89,5,2.81,6.51c0.28,0.46,0.97,1.19,1.35,1.58C232.51,562.9,232.95,562.97,233.08,564.05z"/>
		<path class="st1" d="M239.13,584.07c-1.01-5.93-1.88-11.88-2.62-17.85c-0.03-0.23-0.05-0.47,0.04-0.68
			c0.08-0.19,0.25-0.32,0.41-0.45c3.25-2.62,5.52-6.41,6.31-10.51c-1.98,1.36-3.76,3-5.27,4.86c-0.15,0.19-0.33,0.39-0.56,0.43
			c-0.47,0.07-0.74-0.5-0.89-0.95c-0.67-1.96-2.03-3.69-3.78-4.79c-0.4,2.66-0.39,5.38,0.02,8.04c-2.01-0.22-3.96-1.01-5.56-2.24
			c-1.03-0.79-2.05-1.82-3.35-1.84c0.62,4.18,4.41,7.67,8.63,7.95c0.32,0.02,0.67,0.03,0.94,0.2c0.36,0.22,0.51,0.66,0.63,1.07
			c1.08,3.74,1.45,7.65,1.81,11.53c-1.79-2.75-3.6-5.52-5.94-7.81c-2.34-2.29-5.29-4.1-8.55-4.5c-1.75-0.21-3.83,0.18-4.66,1.73
			c-0.55,5.91,4.99,11.09,8.98,13.13c2.93,1.49,7.07,0.42,8.81,3.21c0.81,1.3,1.58,2.64,1.97,4.12
			C237.24,587.94,239.7,587.43,239.13,584.07z"/>
	</g>
	<path class="st6" d="M106.82,571.06c5.48-15.02,21.46-20.22,31.89-20.22c7.04,0,12.73,1.82,17.86,6.15
		c2.74,2.31,7.2,6.31,8.03,10.47c4.7-6.85,12.46-10.5,19.33-10.93c5.69-0.35,10.13-0.52,15.68,1.93c4.19,1.84,7.27,4.68,9.99,8.37
		c2.72,3.69,4.33,7.81,3.79,14.21c7.88-3.33,18.18-3.93,25.37,0.71c8.85,5.7,12.57,14.02,13.45,21.97c1.67,15-0.32,16.87-9.93,29.02
		c-35.41,3.67-71.27,7.44-104.61,19.93"/>
	<g id="flower_2">
		<path class="st7" d="M40.35,493.51c-0.9,0.11-0.56-2.06-1.23-2.67c-0.67-0.61-1.14-1.41-1.58-2.21c-1.65-3.02-2.98-6.21-3.94-9.52
			c-0.48-1.66-0.88-3.39-0.73-5.12c0.2-2.36,1.42-4.54,2.94-6.36c0.67-0.81,1.53-1.62,2.58-1.61c0.9,0.01,1.67,0.62,2.31,1.26
			c1.34,1.34,2.42,2.94,3.17,4.69c1.27-1.75,2.73-3.35,4.35-4.78c0.83-0.73,1.74-1.43,2.83-1.61c1.82-0.3,3.62,1.05,4.34,2.76
			c0.79,1.88,0.51,4.02,0.71,6.05c0.18,1.82,0.75,3.62,0.63,5.45c-0.12,1.92-1.01,3.72-2.19,5.24c-1.18,1.52-2.64,2.78-4.09,4.04
			c-1.71,1.48-3.43,2.96-5.14,4.44c-0.57,0.49-1.14,0.98-1.82,1.28c-0.68,0.3-1.5,0.38-2.16,0.03"/>
		<path class="st8" d="M45.49,494.71c1.31-0.01,2.53-0.64,3.6-1.38c5.11-3.51,7.9-9.65,8.77-15.78c0.5-3.52,0.42-7.22-0.94-10.51
			c-0.29-0.7-0.65-1.4-1.23-1.9c-0.5-0.44-1.14-0.7-1.78-0.86c-2.38-0.59-5.05,0.23-6.69,2.05c-0.49,0.54-0.88,1.15-1.26,1.77
			c-3.26,5.38-5,11.68-4.97,17.97c0.01,2.05,0.22,4.15,1.12,6C42.66,493.17,43.5,494.73,45.49,494.71z"/>
		<path class="st8" d="M41.55,493.93c-2.35-1.84-4.6-4.62-6.12-7.19c-0.63-1.06-1.17-2.17-1.59-3.33c-0.55-1.52-0.86-3.12-1.15-4.71
			c-0.25-1.37-0.48-2.76-0.33-4.14c0.16-1.53,0.78-2.97,1.4-4.38c0.47-1.07,0.94-2.14,1.59-3.1c0.76-1.14,1.94-2.2,3.31-2.11
			c1.53,0.1,2.56,1.55,3.37,2.84c0.54,0.86,1.07,1.92,1.5,2.85c-0.97,1.58-1.73,3.11-2.31,4.94c-0.99,3.16-1.19,5.28-1.34,7.11
			c-0.19,2.33,0.07,5.34,0.42,7.08c0.11,0.53,0.51,1.45,0.73,1.95C41.41,492.65,41.79,492.87,41.55,493.93z"/>
		<path class="st1" d="M40.41,514.81c1.08-5.92,2.29-11.81,3.63-17.67c0.05-0.22,0.11-0.46,0.27-0.63c0.14-0.15,0.35-0.22,0.54-0.28
			c3.94-1.35,7.38-4.14,9.52-7.72c-2.32,0.6-4.56,1.53-6.61,2.77c-0.21,0.12-0.44,0.26-0.68,0.21c-0.46-0.09-0.53-0.72-0.52-1.19
			c0.04-2.07-0.65-4.16-1.92-5.8c-1.28,2.36-2.2,4.92-2.72,7.56c-1.82-0.9-3.38-2.3-4.46-4.01c-0.7-1.1-1.31-2.41-2.53-2.88
			c-0.84,4.14,1.53,8.71,5.4,10.41c0.3,0.13,0.62,0.26,0.82,0.51c0.26,0.33,0.25,0.79,0.22,1.22c-0.26,3.89-1.25,7.69-2.24,11.46
			c-0.74-3.19-1.5-6.41-2.92-9.37c-1.42-2.96-3.58-5.66-6.5-7.14c-1.57-0.8-3.66-1.14-4.97,0.04c4.23,2.61,6.68,7.31,8.4,11.97
			c1.14,3.08,2.06,6.25,2.75,9.47c0.32,1.49,0.59,3.02,0.45,4.54C37.31,517.8,39.8,518.17,40.41,514.81z"/>
	</g>
	<path id="flower_5" class="st8" d="M144.69,591.39c-1.96-1.18-2.78-3.58-3.2-5.83c-0.35-1.88-0.5-3.9,0.31-5.63s2.89-2.98,4.68-2.3
		c1.41,0.54,2.18,2.04,2.83,3.41c0.86,1.84,1.73,3.67,2.59,5.51c2.46-4.5,6.84-7.91,11.81-9.19c1.5-0.39,3.25-0.54,4.46,0.43
		c1.58,1.25,1.43,3.68,0.91,5.62c-1.08,4.02-3.18,7.76-6.05,10.78c4.04-3.62,9.9-5.66,15.02-3.87c0.84,0.29,1.71,0.76,2.03,1.58
		c0.47,1.23-0.51,2.52-1.52,3.36c-2.72,2.25-6.12,3.47-9.44,4.65c2.27-0.58,4.67-0.68,6.98-0.31c0.9,0.14,1.84,0.39,2.47,1.04
		c0.84,0.86,0.92,2.25,0.48,3.37c-0.44,1.12-1.31,2.01-2.22,2.79c-5.34,4.61-12.43,6.61-19.39,7.73"/>
	<path class="st4" d="M0,486.35c9.27-3.27,18.05-0.15,26.06,5.55s11,14.67,10.96,24.51c13.53-6.02,30.38-3.7,41.77,5.76
		c11.39,9.46,16.78,25.6,13.35,40c5.43-1.16,10.13-0.45,13.53,1.04c5.67,2.5,10.06,6.94,11.68,10.99
		c1.41,3.53,4.38,10.74-0.39,18.04c7.7-4.71,18.62-5.33,25.83-3.17c6.39,1.92,14.06,6.33,18.42,14.36
		c4.32,7.95,5.65,17.16,2.86,25.2c-2.54,7.32-3.17,8.95-9.94,12.73c-8.38,4.68-17.45,8.01-26.63,10.8
		c-21.14,6.42-43.13,10.05-65.21,10.78c-6.27,0.21-12.69,0.16-18.63-1.85c-2.51-0.85-4.93-2.04-7.53-2.56
		c-3.4-0.68-6.92-0.17-10.37-0.41c-9.95-0.7-15.97-7.54-25.77-5.68"/>
	<g id="flower_1">
		<path class="st7" d="M0,498.49c0,0,1.11-0.38,2.54,0.25c0.8,0.35,1.53,1.03,2.12,2.49c0.43-0.94,1.58-1.26,2.59-1.47
			c1.43-0.3,2.88-0.57,4.35-0.54c1.46,0.04,2.95,0.41,4.12,1.3c0.83,0.63,1.61,1.41,2.03,2.37c0.89,2.03,1.29,4.08,1.29,5.78
			c0,1.85-0.04,2.98-0.3,4.34c-0.65,3.31-0.86,3.44-2,5.27c-1.63,2.61-2.67,2.52-4.73,3.14c-1.28,0.39-1.63,0.15-2.96,0.12
			c-1.77-0.04-2.91-0.58-4.54-1.28c-1.78-0.77-2.13-0.82-4.49-3.29"/>
		<path class="st8" d="M10.54,520.35c-0.59-3.63-0.83-6.62-0.24-10.79c0.2-1.4,0.63-2.93,1.44-3.97c0.88-1.13,2.61-2.03,3.89-2.35
			c0.82-0.2,1.67,0.14,2.45,0.47c0.67,0.29,1.13,0.87,1.43,1.26c1.16,1.45,1.28,2.34,1.64,3.97c0.17,0.75,0.29,1.94,0.29,2.71
			c0,0.82-0.26,2.09-0.55,2.89c-0.44,1.23-0.68,1.83-1.14,2.52c-0.72,1.09-1.03,1.46-1.74,2.22
			C16.22,521.19,13.2,521.83,10.54,520.35z"/>
		<path class="st8" d="M8.7,517.65c0.27-2.09,0.53-4.2,0.41-6.31c-0.11-1.86-0.58-3.8-1.84-5.18c-0.88-0.97-2.1-1.6-3.38-1.91
			s-2.21-0.43-3.51-0.26c-0.11,0.01-0.27,0.07-0.38,0.08v11.15l0.05,5.71"/>
	</g>
	<g id="flower_3">
		<path class="st7" d="M51.7,537.74c-1.14,0.1-1.99-1.01-2.57-2c-2.09-3.51-4.1-7.15-5.02-11.13c-0.92-3.98-0.62-8.41,1.64-11.81
			c0.57-0.85,1.27-1.65,2.2-2.1c0.61-0.29,1.29,0.58,1.96,0.59c1.52,0.03,3-0.22,3.98,0.94c0.16,0.19,0.35,0.42,0.6,0.42
			c0.21,0.01,0.39-0.14,0.55-0.28c1.16-0.98,2.56-1.76,4.08-1.85c1.6-0.09,3.19,0.61,4.35,1.73c1.16,1.11,1.91,2.6,2.33,4.15
			c0.07,0.27,0.15,0.56,0.38,0.72c0.35,0.25,0.82,0.06,1.23-0.09c1.12-0.41,2.42-0.39,3.48,0.17c1.42,0.75,2.21,2.34,2.51,3.92
			c0.34,1.8,0.13,3.69-0.58,5.37c-0.93,2.2-2.65,3.96-4.34,5.64c-2.39,2.38-4.82,4.74-7.5,6.8c-1.06,0.82-2.22,1.61-3.55,1.77"/>
		<path class="st9" d="M55.71,539.43c1.49-0.96,3.34-2.42,4.45-3.8c4.81-5.97,5.62-9.79,6.2-14.86c0.22-1.93-0.01-5.23-0.01-5.23
			s2.07-0.98,2.71-1.03c2.5-0.21,3.92,1.04,4.92,2.04c1,1,1.63,2.27,2.23,4.16c0.29,0.91,0.47,1.88,0.41,2.83
			c-0.13,2.03-1.26,3.84-2.44,5.49c-2.08,2.92-4.46,5.72-7.5,7.61c-2.22,1.38-4.71,2.24-7.2,3.04
			C58.34,540.04,57.06,540.4,55.71,539.43z"/>
		<path class="st9" d="M53.69,538.31c-1.58-2.02-2.58-4.31-3.19-6.81c-0.66-2.72-0.73-5.01-0.88-7.83c-0.09-1.77,0.04-2.79,0.04-4.3
			c0-2.48,0.09-4.68,0.91-6.21c0.97-1.82,2.26-3.19,5.14-3.9c2-0.49,4.58-0.42,6.52,0.26c0.77,0.27,1.51,0.65,2.08,1.22
			c0.45,0.45,1.27,1.5,1.52,2.08c1.09,2.51,1.29,5.01,0.33,7.82c-1.17,3.42-2.28,6.55-3.85,9.8c-0.56,1.16-1.2,2.54-2.01,3.55
			c-0.92,1.13-1.73,2.18-2.85,3.12C56.57,537.86,55.38,538.51,53.69,538.31z"/>
		<path class="st9" d="M52.01,537.3c-1.97-2.42-2.71-5.6-3.14-8.7c-0.98-7.1,0.05-11.3,2.8-16.87c0.21-0.43,0.53-0.79,0.35-1.24
			c-0.08-0.19-0.21-0.6-0.21-0.6s-1.06-1.58-3.57-1.97c-1.25-0.19-2.95,0.44-3.86,0.92c-0.52,0.27-0.97,0.68-1.34,1.14
			c-1.24,1.5-1.82,3.43-2.2,5.34c-0.26,1.3-0.43,2.63-0.36,3.95c0.08,1.35,0.18,3.12,0.52,4.43c0.34,1.3,1.18,3.47,1.87,4.9
			c1.35,2.81,2.55,3.93,4.55,6.32c0.87,1.05,1.85,2.13,3.16,2.51C50.84,537.51,51.15,537.56,52.01,537.3z"/>
		<path class="st1" d="M48.97,566.99c0.9-8.23,1.87-16.67,5.7-24.01c0.19-0.36,0.39-0.72,0.7-0.98c0.32-0.27,0.71-0.52,1.13-0.54
			c4.74-0.2,7.59-2.41,10.27-5.38c-3.37,0.85-6.79,1.48-10.24,1.9c0.07-2.42-0.5-4.86-1.62-7.01c-1.05,1.76-2.1,3.51-3.15,5.27
			c-0.1,0.17-0.22,0.36-0.4,0.44c-0.36,0.17-0.76-0.12-1.05-0.39c-1.87-1.74-3.75-3.48-5.62-5.22c0.12,3.58,2.56,6.64,5.09,9.18
			c0.24,0.25,0.5,0.5,0.6,0.84c0.1,0.36,0.01,0.74-0.09,1.09c-0.73,2.78-1.47,5.56-2.2,8.35c-1.65-3.81-4.32-7.18-7.66-9.64
			c-0.95-0.7-2.02-1.35-3.2-1.38c-1.14-0.03-2.24,0.55-3.02,1.37c-1.87,1.98-1.95,5.2-0.75,7.65c1.2,2.45,3.13,4.08,5.29,5.74
			c2.39,1.84,4.39,2.87,7.34,3.93c-0.51,3.19-0.83,5.48-0.71,8.26"/>
	</g>
	<g id="flower_4">
		<path class="st7" d="M92.96,565.63c-0.88-0.26-1.7-0.75-2.57-1.61c-1.29-1.5-2.57-2.99-3.86-4.49c0,0-0.13-0.25-0.42-0.64
			c-1.12-1.55-2.19-3.14-3.18-4.77c0,0-0.14-0.24-0.26-0.5c-1.22-1.9-2.33-3.88-3.38-6.12c-0.56-1.47-1.12-2.97-1.24-4.54
			c-0.24-3.04,1.31-6.12,3.82-7.85s5.87-2.09,8.73-1.07l0.24-0.04c0,0,0.39,0.14,0.67,0.26c0.7,0.28,1.3,0.81,1.74,1.62
			c0.29,0.5,0.59,1,0.88,1.49c0.35-0.24,0.7-0.48,1.57-1.03c3.17-1.92,7.13-2.67,10.69-1.65c3.57,1.02,6.64,3.9,7.52,7.51
			c2.88-1.42,6.63-0.78,8.87,1.51c1.28,1.31,2.08,3.26,1.53,5c-0.25,0.8-0.76,1.49-1.27,2.16c-1.66,2.17-3.44,4.26-5.58,6.42
			c-2.71,2.63-5.74,4.92-9.26,6.94c-1.36,0.81-2.84,1.4-4.52,1.84c-1.54,0.33-3.09,0.66-4.63,0.99c-0.77,0.17-1.55,0.34-2.24,0.72"
			/>
		<path class="st8" d="M90.76,566.24c-3.38-1.54-6.3-4.02-8.64-6.91c-2.35-2.89-4.15-6.18-5.64-9.59c-0.64-1.47-1.23-2.98-1.47-4.8
			c0-0.33,0-0.66,0.05-1.21c0.22-0.69,0.44-1.39,0.81-2.01c0.37-0.62,0.9-1.18,1.69-1.5c0.32-0.14,0.63-0.28,1.14-0.46
			c0.78-0.16,1.57-0.25,2.51-0.22c0.55,0.01,1.1,0.07,1.75,0.3c0.28,0.1,0.56,0.2,0.95,0.38c0.77,0.41,1.5,0.87,2.28,1.45
			c0.78,0.87,1.37,1.92,1.72,3.12c0.03,0.46,0.05,0.91,0.16,1.53c-0.28,3.63-0.55,7.36,0.52,10.84
			C89.46,559.95,91.13,562.42,90.76,566.24z"/>
		<path class="st8" d="M93.7,566.91c-0.93-2.55-1.82-5.1-2.68-7.67c-0.62-1.85-1.23-3.72-1.46-5.66c-0.27-2.25-0.04-4.52,0.2-6.77
			c0.1-0.91,0.2-1.85,0.64-2.65c0.57-1.01,1.6-1.67,2.65-2.16c4.5-2.13,9.89-2.06,14.52-0.25c1.26,0.49,2.49,1.13,3.41,2.11
			c1.52,1.64,1.97,4.07,1.65,6.28c-0.32,2.22-1.31,4.27-2.36,6.25c-1.32,2.49-2.76,4.95-4.68,7.02s-4.36,3.73-7.12,4.32"/>
		<path class="st8" d="M102.58,566.9c3.12-0.97,5.22-3.83,7-6.57c1.13-1.73,2.22-3.49,3.27-5.26c0.77-1.31,1.53-2.63,2.04-4.06
			c0.58-1.64,0.87-3.48,2.11-4.7c0.76-0.75,1.83-1.17,2.9-1.13s2.11,0.55,2.78,1.38c1.2,1.47,1.12,3.61,0.61,5.44
			c-0.87,3.14-2.79,5.93-5.15,8.18c-2.36,2.25-4.96,2.71-7.84,4.25c-1.39,0.74-3.15,2.75-4.66,2.34"/>
		<path class="st1" d="M87.23,604.75c-4.36-2.43-8.5-5.39-11.74-9.19c-3.24-3.8-5.55-8.51-5.95-13.49c-0.09-1.15-0.07-2.36,0.44-3.4
			c1.03-2.07,3.79-2.78,6.01-2.15s3.99,2.29,5.56,3.98c2.66,2.87,5.03,6.04,6.77,9.55c1.27-6.11,2.55-12.22,3.82-18.33
			c0.05-0.22,0.09-0.45,0.01-0.66c-0.09-0.23-0.3-0.38-0.5-0.52c-1.99-1.36-4.03-2.72-5.58-4.57c-1.55-1.85-3.47-3.8-3.47-6.05
			c1.74,0.13,4.92,2.59,6.98,3.81c0.67,0.4,1.45,0.78,2.2,0.55c0.43-0.13,0.77-0.45,1.09-0.76c1.55-1.55,2.29-3.7,3.79-5.34
			c0.57,3.71,0.62,4.57,0.62,6c0,0.24,0.27,1.57,0.64,2.37c0.13,0.28,1.68,0.43,1.94,0.34c2.92-0.96,3.2-0.97,4.21-1.16
			c3.48-0.66,3.59-0.61,6.19-1.31c-2.41,4.92-8.8,7.71-14.27,8.09c-1.79,6.16-2.95,11.91-4.74,18.08c3.61-3.25,6.87-5.87,11.38-7.67
			c1.53-0.61,3.14-0.57,4.76-0.24c2.21,0.45,3.31,1.81,3.74,3.13c0.64,2.01,0.67,4.17-0.9,6.78c-0.96,1.61-2.55,2.7-4.2,3.59
			c-1.65,0.89-3.46,1.43-5.18,2.15c-2.07,0.86-4.05,1.96-5.86,3.29"/>
	</g>
	<g id="flower_7">
		<path class="st7" d="M278.26,589.57c-1,0.27-2.07,0.27-3.42-0.05c-2.11-0.69-4.22-1.38-6.33-2.07c0,0-0.27-0.16-0.78-0.37
			c-1.98-0.84-3.94-1.75-5.85-2.74c0,0-0.28-0.15-0.54-0.33c-2.28-1.12-4.5-2.38-6.82-3.92c-1.39-1.09-2.81-2.21-3.84-3.65
			c-2-2.79-2.3-6.66-0.9-9.78c1.41-3.13,4.43-5.44,7.79-6.12l0.21-0.18c0,0,0.46-0.09,0.79-0.14c0.84-0.14,1.72,0.02,2.62,0.55
			c0.57,0.31,1.15,0.62,1.72,0.93c0.2-0.44,0.4-0.87,0.91-1.91c1.94-3.7,5.31-6.72,9.34-7.83c4.03-1.1,8.67-0.11,11.62,2.85
			c1.94-3.04,5.93-4.61,9.43-3.71c2,0.51,3.9,1.92,4.39,3.93c0.22,0.92,0.14,1.88,0.04,2.82c-0.33,3.06-0.83,6.11-1.64,9.44
			c-1.08,4.11-2.66,8.09-4.87,12.09c-0.84,1.57-1.92,3.01-3.28,4.41c-1.29,1.22-2.59,2.44-3.88,3.66c-0.64,0.61-1.3,1.23-1.74,2"/>
		<path class="st8" d="M276.51,591.44c-4.16,0.49-8.41-0.2-12.35-1.62c-3.94-1.41-7.6-3.54-11.02-5.95
			c-1.47-1.04-2.93-2.15-4.21-3.77c-0.19-0.32-0.38-0.64-0.66-1.2c-0.19-0.79-0.39-1.59-0.39-2.41s0.18-1.66,0.76-2.43
			c0.22-0.32,0.45-0.64,0.83-1.11c0.65-0.61,1.36-1.16,2.29-1.68c0.54-0.31,1.1-0.57,1.86-0.73c0.33-0.07,0.66-0.13,1.14-0.19
			c0.97-0.05,1.95-0.04,3.04,0.07c1.26,0.38,2.43,1.05,3.47,2c0.29,0.43,0.58,0.85,1.04,1.39c1.85,3.66,3.76,7.41,6.82,10.13
			C271.58,586.14,274.64,587.54,276.51,591.44z"/>
		<path class="st8" d="M279.72,590.37c-2.38-1.91-4.73-3.85-7.05-5.82c-1.68-1.42-3.35-2.87-4.71-4.6
			c-1.57-2.01-2.67-4.33-3.75-6.64c-0.44-0.93-0.88-1.9-0.92-2.92c-0.05-1.31,0.57-2.54,1.29-3.63c3.09-4.68,8.32-7.75,13.84-8.71
			c1.5-0.26,3.06-0.37,4.52,0.05c2.42,0.69,4.27,2.77,5.25,5.09c0.98,2.32,1.23,4.88,1.37,7.4c0.18,3.17,0.22,6.38-0.42,9.49
			s-2.03,6.14-4.34,8.32"/>
		<path class="st8" d="M288.28,585.19c2.44-2.76,2.8-6.73,2.91-10.41c0.08-2.32,0.1-4.65,0.08-6.97c-0.02-1.71-0.06-3.43-0.4-5.1
			c-0.4-1.91-1.19-3.86-0.71-5.76c0.29-1.17,1.08-2.2,2.13-2.78c1.05-0.58,2.35-0.7,3.49-0.29c2.02,0.71,3.18,2.83,3.76,4.89
			c0.99,3.54,0.77,7.34-0.19,10.88c-0.96,3.55-3.2,5.51-5.08,8.66c-0.9,1.52-1.43,4.48-3.13,4.97"/>
		<path class="st1" d="M295.56,630.59c-5.62,0.2-11.32-0.23-16.66-2.01c-5.34-1.77-10.31-4.96-13.59-9.52
			c-0.76-1.06-1.45-2.23-1.56-3.53c-0.22-2.59,2.03-4.89,4.54-5.58c2.51-0.68,5.18-0.12,7.68,0.59c4.24,1.21,8.37,2.89,12.09,5.25
			c-2.33-6.63-4.67-13.26-7-19.89c-0.08-0.24-0.18-0.49-0.37-0.64c-0.22-0.17-0.51-0.2-0.79-0.21c-2.71-0.15-5.47-0.27-8.04-1.14
			c-2.57-0.88-5.55-1.63-6.87-3.81c1.75-0.89,6.25-0.38,8.95-0.4c0.88-0.01,1.85-0.1,2.44-0.75c0.34-0.38,0.49-0.88,0.61-1.37
			c0.59-2.4,0.05-4.9,0.54-7.35c2.71,3.24,3.26,4.03,4.1,5.42c0.14,0.23,1.18,1.35,2,1.91c0.29,0.19,1.87-0.56,2.07-0.8
			c2.25-2.63,2.52-2.8,3.38-3.58c2.97-2.66,3.1-2.68,5.2-4.88c0.54,6.15-3.98,12.56-9.03,16.11c1.86,6.98,4.11,13.19,5.97,20.18
			c1.58-5.23,3.19-9.66,6.49-14.02c1.12-1.48,2.7-2.38,4.44-3.01c2.39-0.86,4.25-0.19,5.42,0.84c1.79,1.56,3.07,3.63,3.09,7.06
			c0.01,2.11-0.88,4.09-1.96,5.9c-1.07,1.81-2.49,3.39-3.74,5.09c-1.5,2.04-2.75,4.25-3.73,6.58"/>
	</g>
	<g id="flower_8">
		<path class="st7" d="M363.9,524.54c-0.93-0.06-1.84-0.37-2.89-1.04c-1.59-1.2-3.18-2.4-4.77-3.6c0,0-0.19-0.22-0.55-0.54
			c-1.44-1.29-2.83-2.64-4.17-4.03c0,0-0.19-0.21-0.37-0.44c-1.61-1.62-3.13-3.33-4.65-5.32c-0.86-1.33-1.74-2.69-2.2-4.22
			c-0.89-2.95-0.02-6.32,2.09-8.57c2.11-2.25,5.35-3.33,8.4-2.93l0.23-0.09c0,0,0.41,0.06,0.72,0.11c0.75,0.12,1.46,0.52,2.07,1.23
			c0.4,0.43,0.79,0.86,1.19,1.29c0.3-0.31,0.59-0.62,1.33-1.36c2.72-2.58,6.47-4.16,10.21-3.92c3.74,0.24,7.39,2.43,9.04,5.8
			c2.54-2.02,6.38-2.19,9.09-0.41c1.55,1.02,2.75,2.77,2.58,4.62c-0.08,0.84-0.43,1.64-0.79,2.4c-1.17,2.5-2.49,4.94-4.14,7.54
			c-2.12,3.18-4.62,6.09-7.66,8.84c-1.17,1.09-2.51,1.99-4.07,2.79c-1.45,0.66-2.91,1.32-4.36,1.97c-0.72,0.33-1.46,0.66-2.06,1.19"
			/>
		<path class="st8" d="M361.87,525.61c-3.67-0.8-7.08-2.62-10.02-4.97c-2.94-2.35-5.42-5.22-7.63-8.27
			c-0.95-1.31-1.86-2.68-2.48-4.42c-0.07-0.33-0.14-0.65-0.21-1.21c0.07-0.73,0.14-1.46,0.37-2.16c0.23-0.69,0.64-1.36,1.35-1.84
			c0.28-0.21,0.57-0.41,1.03-0.7c0.73-0.33,1.49-0.59,2.43-0.76c0.55-0.11,1.1-0.17,1.79-0.08c0.3,0.04,0.6,0.08,1.02,0.17
			c0.84,0.24,1.67,0.53,2.56,0.94c0.96,0.69,1.76,1.6,2.36,2.71c0.12,0.45,0.25,0.89,0.48,1.48c0.5,3.64,1.04,7.39,2.84,10.59
			C359.23,519.68,361.41,521.76,361.87,525.61z"/>
		<path class="st8" d="M364.91,525.65c-1.46-2.32-2.89-4.65-4.29-7c-1.01-1.7-2.01-3.42-2.66-5.28c-0.75-2.16-1-4.46-1.25-6.73
			c-0.1-0.92-0.2-1.87,0.07-2.75c0.34-1.12,1.23-1.99,2.16-2.71c3.99-3.07,9.32-4.16,14.29-3.36c1.35,0.22,2.7,0.58,3.82,1.36
			c1.86,1.29,2.82,3.59,2.97,5.85c0.16,2.26-0.38,4.5-0.99,6.68c-0.77,2.75-1.67,5.48-3.12,7.94c-1.45,2.45-3.51,4.62-6.11,5.8"/>
		<path class="st8" d="M373.69,523.73c2.87-1.63,4.34-4.9,5.51-7.99c0.74-1.95,1.44-3.92,2.1-5.9c0.49-1.46,0.95-2.93,1.14-4.45
			c0.22-1.74,0.12-3.63,1.08-5.1c0.59-0.9,1.56-1.55,2.62-1.74c1.06-0.19,2.2,0.1,3.05,0.77c1.5,1.19,1.88,3.33,1.77,5.25
			c-0.19,3.29-1.49,6.45-3.33,9.19c-1.85,2.73-4.32,3.74-6.83,5.88c-1.21,1.03-2.52,3.39-4.1,3.31"/>
		<path class="st1" d="M366.64,564.41c-4.83-1.46-9.55-3.5-13.56-6.56s-7.31-7.21-8.77-12.04c-0.34-1.12-0.58-2.32-0.29-3.45
			c0.57-2.27,3.15-3.56,5.48-3.41c2.33,0.15,4.44,1.4,6.35,2.74c3.25,2.27,6.27,4.89,8.74,7.98c-0.05-6.31-0.1-12.62-0.15-18.93
			c0-0.23-0.01-0.47-0.13-0.66c-0.13-0.21-0.38-0.32-0.61-0.41c-2.26-0.92-4.57-1.82-6.49-3.31c-1.93-1.49-4.24-3.01-4.72-5.23
			c1.74-0.25,5.42,1.5,7.71,2.27c0.75,0.25,1.6,0.46,2.29,0.07c0.4-0.22,0.67-0.61,0.92-0.99c1.2-1.86,1.47-4.15,2.6-6.09
			c1.35,3.54,1.59,4.38,1.9,5.79c0.05,0.24,0.61,1.49,1.14,2.2c0.19,0.25,1.75,0.07,1.99-0.08c2.68-1.58,2.96-1.65,3.91-2.05
			c3.3-1.4,3.42-1.38,5.84-2.63c-1.33,5.38-7.04,9.5-12.36,11.05c-0.45,6.47-0.36,12.4-0.81,18.87c2.87-3.98,5.53-7.27,9.6-10.01
			c1.38-0.93,2.98-1.24,4.65-1.26c2.28-0.03,3.66,1.08,4.36,2.29c1.07,1.85,1.55,3.97,0.56,6.89c-0.61,1.79-1.94,3.21-3.38,4.44
			c-1.44,1.23-3.11,2.15-4.66,3.23c-1.87,1.29-3.58,2.81-5.08,4.5"/>
	</g>
	<path class="st3" d="M0,513.91c14.78,3.26,22.02,11.91,25.51,18.07c3.41,6.03,5.62,19.7-2.95,29.7c9.31-3.22,20.31-0.89,27.52,5.83
		c7.21,6.71,10.31,17.52,7.77,27.03c4.14-3.42,9.59-4.77,14.99-3.6c4.6,1,9.46,3.79,12.02,10.33c8.63-4.33,19.38-4.11,27.82,0.56
		s14.33,13.68,15.24,23.29c1.03,10.99-4.31,22-12.55,29.34c-5.76,5.12-12.75,8.61-19.15,12.9c-5.07,3.4-9.78,7.31-14.58,11.1
		C65.41,691.3,48.1,702.76,29.97,712.7C17.44,719.57,14.25,726.29,0,727.07"/>
	<path class="st3" d="M306.01,642.72c-6.46-7.31-12.21-15.25-17.13-23.67c-3.94-6.75-4.84-8.21-6.44-12.48
		c-2.71-7.23-1.51-9.28-0.65-11.06c1.11-2.31,3.28-4.43,6.32-4.75c3.99-0.42,8.22,2,11.44,3.95c4.4,2.67,8.9,5.8,13.54,11.49
		c-4.68-13.44-8.23-23.11-9.8-35.02c-1.14-8.67-2.44-16.82,1.34-23.91c2.21-4.15,6.95-6.9,11.59-6.15c3.4,0.55,9,6.54,10.19,7.98
		c9.88,11.96,12.34,18.11,20.32,35.54c-5.06-17.51-8-32.78-7.26-49.55c0.09-2.11,0.28-4.35,1.51-6.07c2.01-2.81,6.25-3.23,9.39-1.8
		c3.15,1.43,5.42,4.24,7.42,7.06c8.69,12.19,11.97,25.45,17.65,40.93c-0.72-14.62,0-22.16,0.94-34.04
		c0.44-5.53,2.52-13.49,5.25-18.32s5.9-8.8,11.35-7.77v11.72v21.03v116.2v72.76"/>
</g>
<g id="Layer_15">
	<path class="st10" d="M348.75,337.35c1.87-5.89,5.82-11.09,10.99-14.49c1.31-0.86,2.96-1.63,4.41-1.03c0.68,0.28,1.2,0.83,1.7,1.37
		c2.46,2.65,4.8,5.48,6.28,8.78c1.49,3.29,2.06,7.12,0.94,10.55c-1.16,3.54-3.94,6.27-5.99,9.39c3.34-0.6,6.84-0.26,10,0.97
		c1.41,0.55,2.79,1.3,3.7,2.51c1.41,1.88,1.38,4.61,0.24,6.67s-3.23,3.48-5.47,4.2s-4.63,0.81-6.99,0.71
		c-4.43-0.19-8.96-1.1-12.64-3.58"/>
	<path class="st7" d="M336.16,345.07c-0.55-6.96,2.13-13.93,6.5-19.38c1.62-2.02,3.88-4.01,6.44-3.65c1.59,0.22,2.9,1.31,4.07,2.41
		c4.39,4.14,8.1,9.24,9.54,15.11c1.43,5.87,0.29,12.56-3.89,16.93c3.04-1.7,6.55-2.53,10.02-2.36c2.76,0.13,5.92,1.28,6.67,3.94
		c0.35,1.23,0.09,2.55-0.22,3.79c-0.36,1.49-0.79,2.96-1.28,4.41c-0.31,0.93-0.66,1.87-1.26,2.64c-1.21,1.56-3.22,2.22-5.15,2.62
		c-3.53,0.72-7.19,0.82-10.75,0.29c-3.26-0.49-6.66-1.66-8.61-4.32c-0.21-0.29-0.41-0.59-0.7-0.79c-0.27-0.19-0.61-0.26-0.92-0.36
		c-1.98-0.63-3.4-2.33-4.6-4.02c-2.69-3.82-4.78-8.04-6.5-12.39c-0.41-1.03-0.8-2.08-1.49-2.94c-1.19-1.5-3.13-2.25-5.04-2.43
		c-0.45-0.04-0.93-0.07-1.28-0.35c-0.67-0.55-0.33-1.74,0.43-2.16s1.69-0.29,2.53-0.07C332.84,342.54,334.88,343.61,336.16,345.07z"
		/>
	<path class="st10" d="M338.52,346.62c0.06-3.36,0.5-6.72,1.3-9.99c0.33-1.35,0.74-2.72,1.58-3.83c0.84-1.11,2.06-1.88,3.35-2.39
		c1.66-0.67,3.57-0.94,5.24-0.27c1.51,0.6,2.63,1.89,3.56,3.22c1.96,2.82,3.29,6.1,3.65,9.51c0.65,6.29-2.29,12.84-7.43,16.53
		c4.3-1.76,9.22-1.39,13.7-0.15c0.97,0.27,1.94,0.58,2.76,1.17c1.63,1.17,2.38,3.29,2.27,5.29c-0.07,1.23-0.44,2.47-1.23,3.42
		s-2.01,1.57-3.23,1.46c0.48-2.07,1.65-4.21,0.86-6.18c-0.46-1.16-1.55-1.97-2.72-2.41c-1.17-0.44-2.43-0.54-3.67-0.65
		c-4.15-0.35-12.25,0.41-12.24-0.95c-0.05-0.8,2.04-2.93,3.12-4.28c2.16-2.71,4.31-5.75,4.35-9.22c0.03-2.46-0.5-4.18-1.29-6.52
		c-0.42-1.23-0.92-2.23-1.56-3.36c-0.64-1.13-2.14-2.29-3.4-2.62c-1.52-0.4-2.58-0.03-3.66,1.11c-1.08,1.15-2.14,2.83-2.46,4.38
		s-0.42,2.58-0.71,4.13C340.43,345.26,339.99,346.6,338.52,346.62z"/>
	<path class="st8" d="M343.49,346.79c-0.27-1.15-0.46-2.35-0.3-3.52c0.16-1.17,0.72-2.33,1.7-3c0.34-0.23,0.75-0.41,1.15-0.34
		c0.44,0.07,0.79,0.4,1.03,0.78c0.66,1.06,0.54,2.44,0.16,3.62c-0.28,0.85-0.71,1.7-1.45,2.19S343.91,347.05,343.49,346.79z"/>
	<path class="st8" d="M346.59,350.41c0.66-1.68,2.26-2.95,4.04-3.21c0.27-0.04,0.58-0.05,0.78,0.13c0.13,0.11,0.19,0.27,0.23,0.43
		c0.17,0.81-0.42,1.58-1.09,2.07C349.59,350.52,348.37,350.87,346.59,350.41z"/>
	<path class="st8" d="M355.28,365.77c1.01-0.71,2.13-1.46,3.37-1.39c0.45,0.02,0.89,0.16,1.3,0.33c0.34,0.15,0.67,0.33,0.91,0.62
		c0.23,0.29,0.35,0.69,0.22,1.04c-0.19,0.51-0.8,0.7-1.34,0.79C358.07,367.43,356.34,367.31,355.28,365.77z"/>
	<path class="st11" d="M37.29,436.56c-0.31,1.1,0.45,2.32,1.52,2.72c1.07,0.41,2.31,0.1,3.23-0.58c0.92-0.68,1.55-1.68,2.01-2.72
		c0.74-1.67,1.09-3.47,1.71-5.18c1.88-5.2,6.06-9.25,8.34-14.29c0.72-1.59,1.24-3.26,1.64-4.95c0.24-1.02,0.44-2.08,0.25-3.11
		c-0.26-1.39-0.65-2.89-1.42-4.09c-2.21-3.43-3.6-4.97-9.18-5.6c-0.75-0.08-2.04,0.32-2.74,0.61c-1,0.42-1.59,1.45-2.02,2.44
		c-3.16,7.26-1.47,15.77-3.68,23.38"/>
	<path class="st12" d="M31.77,404.27c-2.03-1.66-5.39-2.79-8-3.02c-0.87-0.08-2.41,0.11-3.26,0.29s-1.68,0.66-2.09,1.43
		c-0.3,0.57-0.72,1.76-0.88,2.38c-0.56,2.06-0.34,3.15-0.3,4.61c0.08,3.12,1.21,5.62,2.94,8.21c1.98,2.95,5.39,4.55,8.19,6.74
		c-2.33,1.9-4.75,3.91-5.93,6.68c-0.49,1.15-0.74,2.52-0.13,3.61c0.69,1.24,2.22,1.7,3.61,1.98c1.92,0.38,3.87,0.61,5.82,0.69
		c2.56,0.1,5.33-0.13,7.26-1.81c1.2-1.05,1.91-2.53,2.54-3.99c0.75-1.74,1.42-3.51,2.01-5.31c0.53-1.61,1.01-3.3,0.8-4.99
		c-0.21-1.7-1.08-3.23-2.01-4.67c-1.68-2.6-3.58-5.06-5.58-7.42C35.1,407.69,34.41,406.42,31.77,404.27z"/>
	<path class="st13" d="M38.25,440.63c1.04-0.53,1.84-1.43,2.52-2.38c1.64-2.31,2.68-4.99,3.58-7.67c1.49-4.41,2.69-9.09,1.97-13.7
		c-0.13-0.83-0.33-1.68-0.8-2.38c-0.47-0.7-1.27-1.22-2.11-1.17c-0.19,0.01-0.4,0.08-0.46,0.25c-0.04,0.14,0.03,0.28,0.1,0.41
		c1.4,2.53,2.01,5.48,1.73,8.36c-0.59-1.99-1.2-4.03-2.5-5.65c-0.5-0.62-1.1-1.17-1.82-1.51c-0.53-0.25-1.3-0.3-1.58,0.22
		c-0.3,0.55,0.22,1.17,0.66,1.61c1.45,1.44,2.58,3.21,3.18,5.16c0.18,0.6,0.32,1.24,0.17,1.85c-0.1,0.42-0.33,0.8-0.55,1.17
		c-2.35,4-4.19,8.28-5.97,12.57C36.05,438.58,34.69,442.11,38.25,440.63z"/>
	<path class="st13" d="M30.51,433.35c1.34-0.92,2.33-2.27,3.18-3.65c0.24-0.4,0.48-0.87,0.31-1.3c-0.21-0.53-0.93-0.64-1.48-0.47
		c-0.36,0.12-0.69,0.32-1.01,0.53c-1.14,0.75-2.21,1.6-3.21,2.52c-0.28,0.26-0.57,0.54-0.75,0.88c-0.29,0.53-0.29,1.25,0.11,1.69
		S29.08,434.34,30.51,433.35z"/>
	<path class="st13" d="M24.21,418.08c1.4-0.17,2.85,0.15,4.05,0.88c0.74,0.45,1.38,1.05,2.1,1.52c0.29,0.18,0.6,0.35,0.95,0.35
		c0.34,0,0.71-0.2,0.78-0.54c0.05-0.24-0.05-0.47-0.17-0.69c-0.4-0.73-0.99-1.34-1.61-1.89c-0.81-0.72-1.68-1.35-2.61-1.9
		c-0.81-0.48-1.72-0.9-2.65-0.81C24.12,415.11,23.2,415.91,24.21,418.08z"/>
	<path class="st13" d="M23.9,410.7c1.9,0.08,3.78,0.81,5.23,2.04c0.81,0.68,1.52,1.52,2.49,1.93c0.11,0.05,0.23,0.09,0.35,0.07
		c0.32-0.05,0.42-0.46,0.39-0.79c-0.1-0.87-0.66-1.61-1.24-2.27c-1.28-1.44-2.75-2.7-4.38-3.73c-0.93-0.59-1.97-1.12-3.08-1.07
		C22.56,406.93,21.43,407.76,23.9,410.7z"/>
</g>
<g id="Layer_14">
	<path class="st8" d="M183.91,627.99c-3.11-2.99-4.31-7.41-5.27-11.62c-0.49-2.16-0.96-4.37-0.76-6.58c0.2-2.21,1.17-4.45,3.02-5.68
		c2.18-1.45,5.17-1.19,7.5,0.02s4.12,3.23,5.77,5.26c-1.76-8.32,0.73-17.43,6.48-23.7c0.67-0.73,1.44-1.46,2.4-1.71
		c2.21-0.57,4.18,1.56,5.15,3.62c1.17,2.49,1.75,5.2,2.35,7.88c1.42,6.31,2.99,12.63,5.57,18.57c2.58,5.93,6.23,11.51,11.26,15.59"
		/>
	<g>
		<g>
			<path class="st14" d="M118.2,623.55c-18.62-29-59.59-35.9-91.51-15.4C14.62,615.9,5.58,626.46,0,638.17v55.04
				c0.8,1.55,1.66,3.07,2.62,4.56c18.62,29,59.59,35.9,91.51,15.4C126.05,692.68,136.82,652.55,118.2,623.55z"/>
		</g>
	</g>
	<g>
		<g>
			<path class="st14" d="M393.15,638.81c-5.62-11.14-14.4-21.18-25.99-28.62c-31.92-20.49-72.89-13.6-91.51,15.4
				s-7.85,69.13,24.07,89.62c31.92,20.49,72.89,13.6,91.51-15.4c0.68-1.07,1.32-2.15,1.92-3.25V638.81z"/>
		</g>
	</g>
	<g>
		<g>
			<linearGradient id="SVGID_2_" gradientUnits="userSpaceOnUse" x1="196.573" y1="638.7985" x2="196.573" y2="869.9973">
				<stop  offset="0" style="stop-color:#FFFFFF"/>
				<stop  offset="0.486" style="stop-color:#FEFEFD"/>
				<stop  offset="0.661" style="stop-color:#FCFAF6"/>
				<stop  offset="0.7858" style="stop-color:#F7F4EB"/>
				<stop  offset="0.8866" style="stop-color:#F1EBDA"/>
				<stop  offset="0.972" style="stop-color:#E8E0C4"/>
				<stop  offset="1" style="stop-color:#E5DBBB"/>
			</linearGradient>
			<path class="st15" d="M0,852h393.15V727.89c-38-62.46-112.45-104.9-198.07-104.9c-83.42,0-156.24,40.28-195.07,100.12V852z"/>
		</g>
	</g>
</g>
<g id="Layer_16">
	<g>
		<g>
			<path class="st14" d="M286.52,745.4c-1.4-6.66-2.8-13.31-4.21-19.97c-1.6-7.6-3.64-15.91-9.94-20.47
				c-3.7-2.68-8.45-3.64-13.01-3.33c-4.56,0.31-8.96,1.8-13.14,3.65c-10.88,4.81-14.24,12.75-15.98,19.77
				c-1.08,4.32-1.62,9.04,0.17,13.12c1.28,2.93,3.65,5.24,6.08,7.32c10.79,9.24,24.86,15.69,38.96,13.99
				c4.81-0.58,10.21-2.8,11.43-7.49C287.44,749.84,286.98,747.57,286.52,745.4z M250.78,735.52c-3.38,0-6.12-2.74-6.12-6.12
				s2.74-6.12,6.12-6.12s6.12,2.74,6.12,6.12S254.16,735.52,250.78,735.52z"/>
		</g>
	</g>
	<g>
		<g>
			<path class="st14" d="M156.07,725.05c-1.75-7.01-5.11-14.95-15.98-19.77c-4.18-1.85-8.58-3.34-13.14-3.65
				c-4.56-0.31-9.31,0.65-13.01,3.33c-6.3,4.55-8.34,12.87-9.94,20.47c-1.4,6.66-2.8,13.31-4.21,19.97
				c-0.46,2.17-0.91,4.44-0.36,6.59c1.21,4.69,6.62,6.91,11.43,7.49c14.1,1.7,28.18-4.74,38.96-13.99c2.43-2.08,4.79-4.39,6.08-7.32
				C157.69,734.09,157.15,729.37,156.07,725.05z M135.54,735.52c-3.38,0-6.12-2.74-6.12-6.12s2.74-6.12,6.12-6.12
				s6.12,2.74,6.12,6.12S138.92,735.52,135.54,735.52z"/>
		</g>
	</g>
</g>
<g id="Layer_17">
	<g>
		<g>
			<path class="st14" d="M215.31,732.9c-0.44-1.77-1.19-3.49-2.37-4.88c-1.47-1.71-3.36-3.23-7.72-4.05
				c-6.49-1.22-11.85-1.4-19.68,0.71c-3.27,0.88-6.17,1.87-8.26,4.54c-2.01,2.58-2.6,5.14-2.87,7.39c-0.23,1.86,0.3,3.75,1.17,5.41
				c2.5,4.79,5.9,7.73,11.6,10.27c1.48,0.66,5.13,2.2,6.73,2.49c2.25,0.41,5.13-0.24,7.13-1.34c3.36-1.86,5.38-2.92,8.47-5.33
				c3.1-2.41,5.56-5.83,6.12-9.71C215.92,736.57,215.76,734.69,215.31,732.9z M195.07,735.59c-5.32,0-9.64-1.65-9.64-3.69
				s4.32-3.69,9.64-3.69c5.32,0,9.64,1.65,9.64,3.69S200.4,735.59,195.07,735.59z"/>
		</g>
	</g>
</g>
<g id="Layer_18_copy">
	<path class="st14" d="M153.3,677.47c-2.44-2.15-5.74-3.28-8.98-3.08c-0.53,0.03-1.09,0.11-1.51,0.43c-0.36,0.28-0.58,0.7-0.77,1.11
		c-1.32,2.99-1.27,6.64,0.48,9.39s5.28,4.38,8.44,3.55c1-0.26,1.93-0.74,2.82-1.25c0.9-0.52,1.81-1.11,2.33-2
		C157.02,684.09,157.56,681.22,153.3,677.47z"/>
	<path class="st14" d="M234.36,677.47c2.44-2.15,5.74-3.28,8.98-3.08c0.53,0.03,1.09,0.11,1.51,0.43c0.36,0.28,0.58,0.7,0.77,1.11
		c1.32,2.99,1.27,6.64-0.48,9.39s-5.28,4.38-8.44,3.55c-1-0.26-1.93-0.74-2.82-1.25c-0.9-0.52-1.81-1.11-2.33-2
		C230.64,684.09,230.1,681.22,234.36,677.47z"/>
	<path class="st14" d="M194.45,751.94c0.9-0.02,1.81-0.04,2.71-0.05c0.36-0.01,0.76,0,1.04,0.23c0.34,0.28,0.36,0.79,0.36,1.23
		c-0.04,14.12-0.07,28.64,5.04,41.8c-1.24,0.74-2.93,0.22-3.92-0.83s-1.44-2.49-1.81-3.89c-1.51-5.75-2.15-11.7-2.55-17.63
		C194.84,765.88,194.69,758.88,194.45,751.94z"/>
	<path class="st14" d="M188.69,793.68c-3.26-0.72-5.79-3.25-6.47-1.95c-0.23,1.16,0.33,2.37,1.19,3.18c0.86,0.81,1.97,1.3,3.07,1.72
		c14.58,5.56,32.02,1.81,43.73-8.51c3.12-2.75,5.93-6.03,7.28-9.96c0.35-1.02,0.59-2.15,0.2-3.15c-0.39-1-1.66-1.7-2.59-1.16
		c-0.53,0.31-0.8,0.91-1.06,1.46c-4.04,8.59-12.79,14.06-21.74,17.24C203.3,795.75,192.71,794.56,188.69,793.68z"/>
	<path class="st14" d="M204.32,806.36c1.9-0.41,3.8-0.82,5.71-1.23c0.58-0.13,1.34-0.18,1.62,0.34c0.27,0.49-0.11,1.08-0.54,1.44
		c-0.94,0.8-2.14,1.21-3.33,1.53c-2.99,0.79-6.22,1.06-9.15,0.05c-0.82-0.28-1.7-0.79-1.83-1.64c-0.02-0.15-0.02-0.32,0.08-0.43
		c0.08-0.09,0.2-0.14,0.32-0.17c0.86-0.26,1.8-0.28,2.67-0.05"/>
</g>
</svg>
