<?xml version="1.0" encoding="utf-8"?>
<!-- Generator: Adobe Adobe Illustrator 24.2.0, SVG Export Plug-In . SVG Version: 6.00 Build 0)  -->
<svg version="1.1" xmlns="http://www.w3.org/2000/svg" xmlns:xlink="http://www.w3.org/1999/xlink" x="0px" y="0px"
	 viewBox="0 0 800 800" style="enable-background:new 0 0 800 800;" xml:space="preserve">
<style type="text/css">
	.st0{display:none;}
	.st1{display:inline;fill:#004F40;}
	.st2{display:inline;fill:#00734C;}
	.st3{display:inline;fill:#008F4C;}
	.st4{display:inline;fill:url(#SVGID_1_);}
	.st5{display:inline;fill:url(#SVGID_2_);}
	.st6{display:inline;fill:#7A5236;}
	.st7{display:inline;fill:url(#SVGID_3_);}
	.st8{display:inline;fill:url(#SVGID_4_);}
	.st9{display:inline;fill:url(#SVGID_5_);}
	.st10{display:inline;}
	.st11{clip-path:url(#SVGID_7_);fill:#61CBB3;}
	.st12{display:inline;fill:#A6CF68;}
	.st13{display:inline;fill:url(#SVGID_8_);}
	.st14{display:inline;fill:url(#SVGID_9_);}
	.st15{clip-path:url(#SVGID_11_);fill:#F3FC77;}
	.st16{display:inline;fill:url(#SVGID_12_);}
	.st17{display:inline;fill:#2D7C43;}
	.st18{display:inline;fill:#099580;}
	.st19{display:inline;fill:#1E2D2A;}
	.st20{display:inline;fill:#FFFFFF;}
	.st21{clip-path:url(#SVGID_14_);fill:url(#SVGID_15_);}
	.st22{display:inline;fill:#F17E8C;}
	.st23{fill:#1E2D2A;}
	.st24{display:inline;fill:#F2A796;}
	.st25{display:inline;fill:#E3C553;}
	.st26{display:inline;fill:#F9F48E;}
	.st27{display:inline;fill:#AE8063;}
	.st28{display:inline;fill:#D6524A;}
	.st29{clip-path:url(#SVGID_17_);fill:#FFF580;}
	.st30{clip-path:url(#SVGID_17_);fill:#26D5DE;}
	.st31{clip-path:url(#SVGID_19_);fill:#FFF580;}
	.st32{clip-path:url(#SVGID_19_);fill:#26D5DE;}
	.st33{clip-path:url(#SVGID_21_);fill:#FFFFFF;}
	.st34{display:inline;fill:#D1B28A;}
	.st35{display:inline;fill:#D68C5A;}
	.st36{display:inline;fill:#F2D4A2;}
	.st37{display:inline;fill:#B36836;}
	.st38{clip-path:url(#SVGID_23_);fill:#D85F82;}
	.st39{clip-path:url(#SVGID_23_);fill:#F2A796;}
	.st40{fill:#FFFFFF;}
	.st41{display:inline;fill:none;stroke:#FFFFFF;stroke-width:3;stroke-miterlimit:10;}
	.st42{display:inline;fill:none;stroke:#FFFFFF;stroke-width:7;stroke-miterlimit:10;}
	.st43{fill:#004F40;}
	.st44{display:inline;fill:#1E2D2A;stroke:#FFFFFF;stroke-width:3;stroke-miterlimit:10;}
	.st45{display:inline;fill:#1E2D2A;stroke:#FFFFFF;stroke-width:7;stroke-miterlimit:10;}
</style>
<g id="Layer_7" class="st0">
	<rect x="0.75" y="1.5" class="st1" width="798.51" height="757.93"/>
</g>
<g id="Layer_8" class="st0">
	<path class="st2" d="M481.05,91.02c0,0,1.73-26.83,2.87-33.95C488.24,30.15,493.39,0,493.39,0l-39.4,1.45
		c0,63.26-2.86,77.45-5.85,133.41c-3.52,65.76-7.08,98.68-8.2,148.22c-14.49-15.22-23.86-19.9-36.36-39.95
		c-2.79,5.34-5.09,18.72-7.88,24.06c11.03,7.88,15.02,19.33,31.51,44.94c2.18,3.38,11.17,19.46,11.17,19.46l-5.17,41.53
		c-4.98,38.08-6.1,39.47-11.08,77.55c-2.3,17.56-9.64,63.65-9.64,63.65c-6.72,51.37-16.37,76.27-13.16,128.15
		c0.11,1.72-1.33,33.43-1.33,33.43c1.29,0.69,33.85-0.1,33.85-0.1h35.21c0-135.4,1.16-198.38,4.6-269.99
		c3.64-75.73,5.99-122.85,5.99-190.84c0,0,2.58-52.67,6-87.78c18.1-22.38,30.48-43.68,50.28-62.71c-3.4-11-4.42-6.94-4.97-18.7"/>
	<path class="st2" d="M76.38,675.87c8.78-139.82,2.67-136.56-5.77-292.57c-6.15-113.75-5.17-145.42-10.82-249.71
		C56.94,81,54.77,13.96,52.69,0h31.5c6.5,72.31,11,134.07,17.5,206.38c7.78-7.32,16.29-13.44,25.27-18.18
		c2.39,6.67,4.78,13.33,7.17,20c-9.41,8.15-17.73,18.23-24.54,29.69l-5.93,14.6c0,0,7.82,49.02,13.59,72.77
		c8.48,34.86,13.07,216.19,45.76,350.61"/>
	<path class="st2" d="M771.68,0c-7.73,84.82-8.57,145.05-8.57,185.05c0,13.72,0.79,96.07,0.79,109.8c0,47.35,3.32,131.74,1.55,150.5
		c-10.77,113.96-14.33,135.68-15.14,250.61c-0.1,14.14,0.52,28.31-0.6,42.36c-0.22,2.79,0,18.33,0,18.33s-12.11-0.13-24.13,0
		c-12.26,0.13-28.01,0.11-28.01,0.11s7.68-244.51,18.94-432.28C717.85,302.1,736.52,0,736.52,0"/>
	<path class="st3" d="M0,0h30.28c-0.98,37.48-2.11,70.87-3.09,108.35c14.35-14.43,16.03-12.14,30.2-33.06
		c0.87,21.99,1.22,34.96,1.22,34.96c-17.87,26.38-6.87,6.7-19.44,28.94c-3.65,6.46-9.79,22.24-9.79,22.24s-2.95,53.01-3.4,64.52
		c-5.14,130.85,3.76,172.72,15.68,302.89c3.03,33.03,7.3,116.09,17.14,147.01L0,674.94"/>
	<path class="st2" d="M327.83,0c0,87.81-9.08,131.7-15.25,207.15c0,0-21.37-33.12-38.67-89.04c-1.08,13.24-5.23,42.68-8.26,55.33
		c20.45,30.38,27.95,48.16,42.78,97.89c-2.35,46.48-8.16,112.58-12.45,158.8c-4.51,48.6-8.04,100.36-9.83,148.76
		c-1.9,51.16-1.39,10.06-1.39,58.78c0,7.94-1.68,46.41-1.68,54.33c0,14.51-1.65,35.62-1.65,65.93h54.38c0,0-1.12-61.97-0.22-96.53
		c6.05-230.5,14.98-431.72,30.96-661.3"/>
	<path class="st3" d="M247.3,0c0,0-1.87,45.04-7.39,95.2c-19.12-23.55-31.74-48.62-31.74-48.62l-2.92,47.07
		c0,0,12.03,19.06,18.93,31.67c6.25,11.41,14.03,26.66,14.03,26.66s-12.29,159.93-13.28,171.91
		c-9.02,108.64-15.47,196.75-23.34,432.88h34.93h34.67c0,0-2.35-34.46-4.17-56.42c-4.56-54.99-5.57-110.41-6.56-165.74
		c-1.35-75.04-2.7-150.29,2.27-225.04c3.89-58.52,11.63-116.5,14.31-175.15c1.11-24.27,1.34-48.59,1.57-72.9
		C278.82,39.18,280.07,0,280.07,0"/>
	<path class="st2" d="M641.41,0c1.14,41.94,1.22,66.84,0,103.84c-6.23-9.27-15.3-20.89-21.53-30.16
		c-1.29,8.43,2.63,27.55-0.75,34.79c7.42,16.9,8.52,22.79,18.15,39.23c-7.81,195.4-4.15,391.5,7.06,586.58
		c0.35,6.16-0.88,22.48-0.88,22.48h31.82c-3.37-49.66,2.88-121.32,4.51-171.15c1.4-43.04,0.17-56.92-2.92-99.79
		c-4.54-63.07-6.36-158.07-12.1-296.4c-4.22-101.73,2.47-87.61,5.19-189.43"/>
	<path class="st3" d="M211.48,0c2.11,227.01-7.22,449.2-16.79,675.91h-82.04c31.24-164.47,48.32-255.06,55.43-423.79
		c0.75-17.7,2.52-41.41,4.24-65.52c1.75-24.63,2.07-41.78,2.07-41.78l-11.38-16.88c-9.75-9.29-22.47-19.8-34.17-25.07
		c1.73-10.4,3.04-27.32,2.22-37.9c8.73,20.01,27.85,24.34,45.33,32.17C178.74,62.91,175.14,0,175.14,0H211.48z"/>
	<path class="st2" d="M557.21,0.1c-2.56,59.99,0.98,106.48,5.71,155.39c10.72-24.78,19.89-45.39,28.28-78.98
		c2.12,17.54,2.61,45.18,7.39,61.68c0,0-9.34,23.54-17.14,38.78c-3.96,7.74-15.38,39.66-15.38,39.66s2.06,51.74,6.69,96.78
		c8.31,80.81,14.93,90.75,25.92,170.94c2.86,20.87,5.73,41.86,5.9,63.1c0.19,22.54-2.65,44.89-4.38,67.3
		c-3.87,50.28,2.89,92.65,4.65,143.16H532.2c0,0,5.86-45.96,5.86-158.59c0-140.83-2.04-138.39-6.45-236
		c-6.01-132.91-2.55-146.8-7.37-217.43C518.25,58.09,515.97,0,515.97,0"/>
	<path class="st3" d="M658.31,756.65c0,0-1.05-11.53-1.48-15.81c-20.04-195.75-24.59-393.84-29.12-591.46
		c-1.16-50.64-0.19-98.69-1.35-149.33c0,0-30.29-0.1-46.41,0c14.21,112.7,12.38,147.69,13.51,235.88
		c0.51,39.6,4.71,106.56,5.22,146.16c0.23,17.88,0.46,35.76-0.06,53.63c-0.55,18.92-3.2,93.08-4.52,111.93
		c-6.14,87.96-8.4,127.25-12.13,209.13"/>
	<path class="st3" d="M800,0.05h-11.08c-1.78,22.38-4.55,37.5-6.32,59.88c0,0-13.86-35.81-21.78-59.93l-23.12,0.05
		c20.35,38.28,32.05,70.67,47.39,113.06c0,0-15.4,228.35-25.12,316.34l-12.98,147.51c-0.12,1.06-10.72,127.02-10.72,128.09
		l-5.39,51.72H800"/>
	<path class="st3" d="M384.6,1.72c-3.73,58.27-11.24,110.79-13.4,166.22c-1.45,37.37-1.75,74.81-3.48,112.16
		c-1.66,35.8-4.62,71.46-7.59,107.1c-10.73,129.02-18.97,240.55-29.71,369.57H400c0,0-1.77-55.59,0.28-90.33
		c9.23-156.05,14.56-303.93,12.33-460.47c-0.25-17.4,5.19-81.71,5.19-81.71s17.22-34.33,32.74-57.58
		c14.64-21.92,29.27-43.83,43.91-65.75l-27.26,0.79c-12.22,14.36-35.29,48.44-49.54,58.6l4.3-58.6L246.35,0"/>
	<linearGradient id="SVGID_1_" gradientUnits="userSpaceOnUse" x1="671.7252" y1="9.094947e-13" x2="671.7252" y2="573.0071">
		<stop  offset="0" style="stop-color:#B68365"/>
		<stop  offset="1" style="stop-color:#7A6B5A"/>
	</linearGradient>
	<path class="st4" d="M709.74,0.1c-23.17,281.51-22.91,474.36-7.69,756.44l-68.33,0.11c0-314.44,11.92-422.05,25.93-678.15
		c-0.06-1.31,8.7-77.2,8.64-78.51"/>
	<linearGradient id="SVGID_2_" gradientUnits="userSpaceOnUse" x1="144.7207" y1="8.9512" x2="176.7869" y2="503.3056">
		<stop  offset="0" style="stop-color:#CF8C72"/>
		<stop  offset="1" style="stop-color:#7A6B5A"/>
	</linearGradient>
	<path class="st5" d="M105.16,0c3.04,61.47,5.53,122.62,7.29,158.27c1.58,31.97,2.97,72.48,6.33,107.43
		c2.78,28.99,9.48,93.74,10.18,108.24c0.99,20.64,1.86,56.41,5.39,103.26c1.86,24.57,7.26,64.87,14.76,136.39
		c0.3,2.86,9.79,62.37,9.79,62.37s16.72-0.36,18.6,0h53.51C178.78,454.68,152.1,230.53,146.93,0.09L105.16,0z"/>
	<path class="st6" d="M659.74,143.1c-1.96,1.05-3.92,2.11-5.89,3.16c7.46,1.55,15.16,1.31,22.78,1.07
		c8.2-0.26,16.39-0.52,24.59-0.79c-6.2-1.77-12.64-2.71-19.09-2.81C673.64,143.59,665.04,144.92,659.74,143.1z"/>
	<path class="st6" d="M697.11,177.83c-11.08-2.05-22.21-3.77-33.39-5.15c-4.34-0.54-8.82-1.01-13.04,0.16
		c-0.61,1.1,0.93,2.13,2.14,2.45c14.83,3.98,30.28,5.66,45.62,4.96C699.19,180.22,700.71,178.5,697.11,177.83z"/>
	<path class="st6" d="M695.4,222.98c-12.13-0.64-24.27-1.13-36.41-1.46c-2.41-0.07-5.08-0.04-6.88,1.57
		c12.11,3.56,24.9,3.93,37.52,4.27C692.41,227.44,695.55,227.37,695.4,222.98z"/>
	<path class="st6" d="M696.2,276.9c-8.22,1.93-16.78,3.86-25.03,2.06c-2.99-0.65-6.54-1.65-8.78,0.44
		c5.26,1.64,10.62,2.99,16.04,4.03c5.07,0.98,10.38,1.67,15.34,0.26c0.56-0.16,1.13-0.36,1.54-0.77c0.48-0.5,0.65-1.22,0.79-1.9
		C696.51,279.06,696.91,277.1,696.2,276.9z"/>
	<path class="st6" d="M690.33,321.73c-11.88-1.3-23.76-2.7-35.62-4.19c-0.8,0.45-1.61,0.89-2.41,1.34
		c6.53,1.47,12.8,3.93,19.27,5.67c6.47,1.75,13.32,2.77,19.85,1.29c0.84-0.19,1.78-0.51,2.13-1.3c0.23-0.53,0.13-1.14,0.03-1.7
		C693.29,321.23,693,319.61,690.33,321.73z"/>
	<path class="st6" d="M692.01,382.46c-14.99,3.36-30.99,2.09-45.26-3.58c13.42,8.91,30.63,11.87,46.25,7.96
		C693.15,385.17,693.29,383.5,692.01,382.46z"/>
	<path class="st6" d="M690.89,444.44c-11.59,0.85-23.43,1.67-34.7-1.17c-2.83-0.72-5.66-1.67-8.58-1.64
		c-0.68,0.01-1.47,0.13-1.8,0.73c-0.55,1.02,0.75,2.02,1.83,2.44c12.27,4.73,25.5,6.97,38.64,6.55c2.26-0.07,4.67-0.28,6.46-1.65
		C694.55,448.32,695.29,445.36,690.89,444.44z"/>
	<path class="st6" d="M701.34,95.97c-15.33,2.25-31.38-0.71-44.9-8.26c4.02,6.31,11.69,9.2,19,10.79
		c7.31,1.59,14.81,2.32,22.29,2.15c1.89-0.04,4.02-0.26,5.21-1.73C704.45,97.03,703.06,93.69,701.34,95.97z"/>
	<path class="st6" d="M665.31,24.62c14.38,2.81,29.02,4.25,43.67,4.29c-2.03,3.01-5.51,4.79-9.07,5.53s-7.22,0.56-10.85,0.37
		c-7.19-0.37-14.54-0.78-21.21-3.47c-2.4-0.97-4.85-2.4-5.84-4.79C661.04,24.16,662.42,20.76,665.31,24.62z"/>
	<path class="st6" d="M696.72,582.61c-11.76,5.45-25.48,4.38-38.17,1.75c-2.49-0.52-5.11-1.08-7.54-0.32
		c2.64,2.25,6.05,3.4,9.42,4.24c10.11,2.53,20.77,2.79,30.99,0.76c1.95-0.39,3.97-0.9,5.44-2.24
		C698.34,585.46,699.01,583.05,696.72,582.61z"/>
	<path class="st6" d="M698.4,641.02c-3.91,2.42-8.66,3.05-13.26,3.26c-12.55,0.58-25.23-1.58-36.88-6.28c-2.86-1.15-5.85-2.48-8.9-2
		c5.76,6.08,14.65,7.76,22.94,8.92c10.45,1.47,20.95,2.65,31.5,2.92c2.37,0.06,4.87,0.04,6.92-1.14c2.05-1.18,3.39-3.94,2.23-6
		C701.98,638.99,699.8,638.45,698.4,641.02z"/>
	<path class="st6" d="M148.39,145.3c-10.7,1.49-21.56,1.79-32.33,0.88c0.42,1.12,1.7,1.62,2.85,1.96
		C128.69,150.94,139.38,150.49,148.39,145.3z"/>
	<path class="st6" d="M149.5,169.9c-6.31,2.33-13.11,3.29-19.82,2.82c-3.63-0.26-7.51-0.88-10.71,0.84
		c0.81,1.93,3.26,2.44,5.35,2.57C133.4,176.73,142.6,175.31,149.5,169.9z"/>
	<path class="st6" d="M150.95,209.46c-11.77,5.21-25.05,6.94-37.76,4.92c1.07,3.07,4.21,5.04,7.41,5.61
		c3.2,0.56,6.48-0.05,9.66-0.73C138.68,217.46,147.08,215.08,150.95,209.46z"/>
	<path class="st6" d="M154.5,264.29c-11.5,5.88-25.54,6.54-37.54,1.76c0.79,2.3,2.97,3.9,5.29,4.63c2.32,0.73,4.8,0.71,7.23,0.69
		C138.4,271.28,147.89,271.04,154.5,264.29z"/>
	<path class="st6" d="M158.27,305.65c-10.76,2.24-21.64,3.92-32.57,5.05c8.75,4.82,19.6,4.02,29.15,1.08
		C158.37,310.7,162.31,308.78,158.27,305.65z"/>
	<path class="st6" d="M163.6,371.02c-10.04,3.79-20.91,5.37-31.61,4.57c1.23,1.8,3.62,2.34,5.79,2.55
		c8.54,0.82,17.08-1.29,25.33-3.67c1.65-0.48,3.4-1.03,4.51-2.35C168.72,370.8,168.99,368.98,163.6,371.02z"/>
	<path class="st6" d="M170.12,410.25c-7.6,6.23-17.42,9.69-27.24,9.6c5.19,2.18,11.2,1.68,16.51-0.19c5.31-1.87,10.07-5,14.77-8.1
		C173.14,410.05,172.16,408.58,170.12,410.25z"/>
	<path class="st6" d="M162.59,456.79c-10.81,4.91-22.19,9.93-34.05,9.13c-1.12-0.08-2.54-0.51-2.59-1.63
		c-0.02-0.62,0.42-1.15,0.85-1.6c1.04-1.13,2.08-2.26,3.12-3.38C140.89,459.44,151.88,457.4,162.59,456.79z"/>
	<path class="st6" d="M110.72,103.2c4.16-3.49,8.43-7.04,13.2-8.38c6.88-1.94,13.95,0.92,20.66,3.76c-0.05,2.18-2.18,2.77-3.77,2.74
		c-8.07-0.13-16.15,0.88-24.07,3.03c-2.81,0.76-5.82,1.84-7.6,4.92c-1.84-1.13-1.62-5.2-0.06-6.96
		C110.64,100.55,112.83,100.44,110.72,103.2z"/>
	<path class="st6" d="M147.73,34.73c-10.52,4.73-22.03,7.23-33.56,7.3c-0.16,2.08,2.44,3.14,4.52,3.39
		c9.12,1.11,18.42-0.62,26.99-3.92c1.7-0.65,3.5-1.49,4.33-3.11C150.83,36.77,149.76,33.81,147.73,34.73z"/>
	<path class="st6" d="M212.77,609.53c-12.77,6.87-27.89,9.3-42.17,6.76c6.11,3.57,13.37,5.15,20.41,4.44
		c5.9-0.6,11.56-2.74,17.46-3.4c1.64-0.18,3.32-0.25,4.85-0.85c1.54-0.59,2.94-1.85,3.18-3.48
		C216.73,611.38,215.33,609.56,212.77,609.53z"/>
	<path class="st6" d="M155.64,652.94c6.01-2.9,12.66-4.46,19.33-4.54C169,653.55,161.31,656.66,155.64,652.94z"/>
</g>
<g id="Layer_9" class="st0">
	<linearGradient id="SVGID_3_" gradientUnits="userSpaceOnUse" x1="39.6352" y1="605.7832" x2="135.503" y2="357.1768">
		<stop  offset="0" style="stop-color:#00937F"/>
		<stop  offset="1" style="stop-color:#79C69F"/>
	</linearGradient>
	<path class="st7" d="M0,675.87V487.68c0,0,10.04-15.77,23.83-29.56c18.2-18.2,33.15-29.47,54.74-38.96
		c8.64,14.71,22.47,38.02,27.67,49.48c8.66,19.08,17.59,51.03,19.46,83.45c1.16,20.06,0.72,40.74-6.85,67.13
		c-8.83,30.77-25.65,56.65-25.65,56.65H69.8"/>
	<linearGradient id="SVGID_4_" gradientUnits="userSpaceOnUse" x1="140.0126" y1="732.5582" x2="303.6344" y2="366.754">
		<stop  offset="0" style="stop-color:#00937F"/>
		<stop  offset="1" style="stop-color:#61CBB3"/>
	</linearGradient>
	<path class="st8" d="M29.39,756.25c1.7-16.75,3.77-27.52,10.58-45.33c9.26,9.04,17.39,15.29,28.55,21
		c-7.77-16.47-15.49-29.55-24.58-44.66c5.56-20.15,9.99-32.23,18.52-45.23c7.83,10.37,16.38,19.69,25.49,27.82
		c-6.45-18.2-11.69-29.88-17.88-49.19c5.66-19.84,9.9-27.08,19.43-41.37c14,12.69,23.53,23.1,33.92,29.99
		c-6.51-16.97-14.38-31.82-23.64-46.56c7.7-16.55,18.41-30.39,30.86-39.9c5.79,8.08,11.59,16.15,17.38,24.23
		c-3.98-11.73-7.96-23.46-11.94-35.19c18.13-21.88,42.42-41.8,61.5-46.71c10.21,26.41,17.1,55.29,20.24,84.92
		c-7.77,10.02-16.85,18.1-26.66,23.72c9.98,0.73,20.06-1.29,29.49-5.89c3.66,13.96,6.21,28.53,7.21,43.32
		c0.33,4.84-0.07,10.2-0.07,10.2s-3.38,5.09-9.89,12.98c-5.01,6.07-9.67,11.69-19.26,16.92c11.09,2.25,23.58,0.56,33.84-0.96
		c6.23,19.62,7.21,30.26,10.03,52.57c-10.17,6.38-15.7,9.71-27.24,15.01c9.88,4.69,17.92,7.27,30.04,9.38
		c2.77,9.91,4.37,19.38,5.84,29.47"/>
	<linearGradient id="SVGID_5_" gradientUnits="userSpaceOnUse" x1="753.5751" y1="689.834" x2="695.0087" y2="495.1625">
		<stop  offset="0" style="stop-color:#00937F"/>
		<stop  offset="1" style="stop-color:#79C69F"/>
	</linearGradient>
	<path class="st9" d="M800,675.87V545.7c-23.18-23.18-46.75-32.73-77.17-38.81c-31.89-6.37-64.78-3.26-94.76,9.36
		c-2.59,24.76-0.74,60.73,12.73,95.06c7.9,20.14,24.65,45.25,43.96,64.56"/>
	<g class="st10">
		<defs>
			<path id="SVGID_6_" d="M0,675.87V487.68c0,0,10.04-15.77,23.83-29.56c18.2-18.2,33.15-29.47,54.74-38.96
				c8.64,14.71,22.47,38.02,27.67,49.48c8.66,19.08,17.59,51.03,19.46,83.45c1.16,20.06,0.72,40.74-6.85,67.13
				c-8.83,30.77-25.65,56.65-25.65,56.65H69.8"/>
		</defs>
		<clipPath id="SVGID_7_">
			<use xlink:href="#SVGID_6_"  style="overflow:visible;"/>
		</clipPath>
		<path class="st11" d="M79.08,413.79c0.32,11.94-2.13,23.76-4.65,35.44C60.72,512.84,44.8,576.38,40.94,641.35
			c-16.1,3.82-32.63,5.79-49.17,5.87c-1.2,0.01-2.47-0.02-3.49-0.64c-1.75-1.07-2.11-3.41-2.29-5.46
			c-3.31-37.21-6.63-74.41-9.94-111.62c-1.66-18.68-3.16-38.38,4.74-55.38c5.4-11.61,14.74-20.89,24.48-29.2
			c13.54-11.55,28.24-21.75,43.8-30.4c8.77-4.87,18.71-9.38,28.52-7.18C78.78,407.47,78.94,408.35,79.08,413.79z"/>
	</g>
	<path class="st12" d="M635.1,523.99c30.28,20.27,60.57,40.53,90.48,61.35c26.04,18.12,51.99,36.84,73.4,60.24
		c-10.14-19.45-26.99-34.52-44.63-47.55C716.79,570.29,674.32,549.91,635.1,523.99z"/>
	<path class="st12" d="M688.11,556.77c-4.33-15.56-9.12-31-14.36-46.28c6.44,4.39,8.14,12.92,10.29,20.41
		C686.66,540.01,690.71,549,688.11,556.77z"/>
	<path class="st12" d="M730.94,583.62c2.86-4.31,2.24-9.98,1.38-15.08c-2.81-16.56-7.09-32.86-12.76-48.67
		c-0.93-2.6-2.05-5.36-4.38-6.84c6.8,3.92,10.62,11.42,13.58,18.69c6.5,15.95,10.77,33.43,7.71,50.38
		C736.09,584.2,735.46,586.49,730.94,583.62z"/>
	<path class="st12" d="M685.35,556.45c-15.42,9.08-33.73,13.18-51.55,11.54c0.64,2.41,2.79,4.19,5.14,5.01
		c2.35,0.82,4.9,0.81,7.39,0.69C661.39,572.91,676.69,567.59,685.35,556.45z"/>
	<path class="st12" d="M731.98,587.94c-29.57,15.05-64.47,19.34-96.8,11.92c5.17,4.45,12.19,5.99,18.94,6.88
		c28.61,3.79,58.35-1.41,83.98-14.69C735.91,591.29,733.91,590.03,731.98,587.94z"/>
	<path class="st12" d="M776.85,618.9c4.8-31.22-5.93-62.53-16.69-92.23C779.32,553.9,786.69,589.14,776.85,618.9z"/>
	<path class="st12" d="M126.79,673.88c10.46-69.25,32.63-136.72,65.29-198.67c-9.96,19.17-18.63,39.01-27.95,62.67
		c-11.58,44.96-21.77,90.29-30.53,135.88C132.17,673.54,130.74,673.33,126.79,673.88z"/>
	<path class="st12" d="M152.65,571.68c-7.29-7.84-14.58-15.69-21.24-24.07c-5.09-6.4-9.95-13.5-10.81-21.63
		c8.24,16.38,19.77,31.09,33.7,43.01C153.99,569.49,153.67,569.99,152.65,571.68z"/>
	<path class="st12" d="M150.27,581.97c3.44,2.33,8,1.84,12.09,1.09c19.02-3.5,37.35-10.73,53.64-21.16
		C195.03,571.19,173.44,580.63,150.27,581.97z"/>
	<path class="st12" d="M138.54,634.11c9.98,4.86,21.72,3.84,32.7,2.2c12.54-1.87,24.99-4.41,37.27-7.61
		c5.29-1.37,10.77-2.99,14.72-6.76c-10.05,2.69-20.15,5.18-30.29,7.48C175.35,633.41,156.87,636.79,138.54,634.11z"/>
	<path class="st12" d="M139.21,613.6c-19.99-6.04-37.19-20.75-46.25-39.56c-0.88,1.06-0.16,2.65,0.59,3.8
		c8.26,12.81,18.62,24.26,30.53,33.77c4.9,3.92,10.33,7.61,16.54,8.52C140.32,618.69,140.02,617.24,139.21,613.6z"/>
	<path class="st12" d="M41.95,621.64c-1.93-59.11,6.36-118.55,24.4-174.87c2.09-6.54,4.49-13.3,9.45-18.04
		c-8.54,30.2-19.3,59.87-24.94,90.75c-5.66,30.98-6.06,62.92-1.18,94.03c0.08,0.54,0.11,1.21-0.36,1.49S48.31,614.29,41.95,621.64z"
		/>
	<path class="st12" d="M52.32,510.81c-3.23-3.8-6.47-7.6-11.67-14.21c-3.27-6.68-6.55-13.35-10.45-21.32l-1.62-4.91l0,0l0.15,0.45
		l-0.07-0.22"/>
	<path class="st12" d="M32.36,475.81c1.28,1.89,2.57,3.77,5.02,6.74c4.61,6.49,9.48,12.8,14.61,18.9c0.32,0.38,0.65,0.78,0.73,1.27
		c0.06,0.41-0.06,0.82-0.18,1.22c-0.47,1.54-0.95,3.08-1.42,4.62"/>
	<path class="st12" d="M44.84,573.75c-16.53-11.22-28.61-28.83-34.45-51.83c-1.91-5.64-3.81-11.28-5.72-16.92l0.61,0.54"/>
	<path class="st12" d="M6.36,508.38c9.28,21.37,21.99,41.24,37.5,58.62c-1.17,1.09-1.91,2.63-2.04,4.22"/>
	<path class="st12" d="M46.63,552.45c5.18,0.22,10.05-2.3,14.5-4.96c16.04-9.56,30.5-21.77,42.61-35.99
		C88.18,529.1,68.08,542.64,46.63,552.45z"/>
	<path class="st12" d="M57.7,488.64c12.19-1.57,23.85-7.04,32.84-15.41c0.87-0.81,1.76-1.73,1.91-2.91
		c-2.66,2.39-5.33,4.78-8.29,6.78c-6.02,4.07-13.02,6.37-19.93,8.62c-2.46,0.8-5.42,1.52-7.41-0.13
		C56.53,487.06,56.24,488.83,57.7,488.64z"/>
	<linearGradient id="SVGID_8_" gradientUnits="userSpaceOnUse" x1="699.7023" y1="596.4451" x2="765.646" y2="737.9406">
		<stop  offset="0" style="stop-color:#99C95C"/>
		<stop  offset="1" style="stop-color:#5DC98C"/>
	</linearGradient>
	<path class="st13" d="M800,675.87V623.3c-13.63,7.98-18.15,11.51-31.85,28.5c1.51-20.22,3.64-32.53-3.93-53.37
		c-9.85,6.54-16.38,14.18-20.81,20.87c-3.47,5.36-7.81,15.21-11.85,26.91c-3.24-25.19-11.79-48.3-26.71-66.81
		c-7.48,17.1-14.29,33.21-17.85,61.09c-5.85-9.18-11.48-17.25-18.42-24.19c-11.17-11.17-28.9-28.45-45.17-36.49
		c-1.22,35.18,10.92,67.7,18.55,80.03c4.42,7.15,11.75,16.33,11.75,16.33h6.13l23.78-0.31H800z"/>
	<linearGradient id="SVGID_9_" gradientUnits="userSpaceOnUse" x1="647.3096" y1="398.8228" x2="576.0012" y2="641.2377">
		<stop  offset="0" style="stop-color:#CCE08A"/>
		<stop  offset="1" style="stop-color:#99C95C"/>
	</linearGradient>
	<path class="st14" d="M547.38,758.17c19.11-60.4,18.47-74.41,38.69-124.86c16.72,4.45,34.29-1.06,49.46-11.23
		c15.17-10.17,18.28-11.75,31.01-26.54c2.83-3.29,15.74-19.78,17.11-24.38c1.37-4.6,0.64-10.66-2.61-13.18
		c-1.78-1.38-3.95-1.49-6.03-1.53c-22.41-0.39-44.85,3.66-66.33,11.96c21.4-11.04,38.86-32.27,53.18-55.73
		c13.37-21.91,24.47-46.16,32.9-71.89c3.27-9.98,5.87-22.59,0.43-30.81c-3.83-5.78-10.59-7.03-16.21-4.86
		c-5.62,2.17-10.33,7.13-14.67,12.27c-20.52,24.34-36.36,55.32-45.68,89.35c-0.5-17.48-1.35-35.11-5.04-51.93
		c-3.69-16.82-12.74-30.19-20.97-39.26c-13.72-14.11-15.59,93.51-0.7,138.63c1.31,3.96,2.76,8.15,2.28,12.41
		c-0.28,2.52-1.23,4.82-2.15,7.06c-4.1,9.93-8.2,19.86-12.31,29.79c-0.18-27.62-13.38-54.4-32.6-66.15c-2.9-1.77-6.79-2.99-8.94,0.1
		c-1.26,1.82-1.39,4.49-1.41,6.94c-0.16,32.25,9.19,64.42,25.71,88.45c1.27,1.84,2.64,3.82,2.85,6.28c0.15,1.81-0.29,3.64-0.89,5.29
		c-9.9,27.2-22.54,55.9-26.23,62.35c-3.22-36.43-12.22-52.8-27.69-81.98c-1.92-3.62-4.91-6.75-8.29-6.91
		c-5.57-0.27-9.74,7.75-10.19,14.98c-1.49,23.55,3.18,43.71,6.55,51.2c5.52,12.27,4.75,14.51,15.03,27.89
		c5.82,7.58,13.35,12.34,13.35,12.34s-11.6,19.01-20.56,33.84L547.38,758.17z"/>
	<g class="st10">
		<defs>
			<path id="SVGID_10_" d="M546.96,675.95c19.11-46.42,18.47-57.18,38.69-95.95c16.72,3.42,34.29-0.82,49.46-8.63
				c15.17-7.82,18.28-9.03,31.01-20.4c2.83-2.53,15.74-15.2,17.11-18.74c1.37-3.54,0.64-8.19-2.61-10.13
				c-1.78-1.06-3.95-1.14-6.03-1.17c-22.41-0.3-44.85,2.81-66.33,9.19c21.4-8.49,38.86-24.8,53.18-42.83
				c13.37-16.84,24.47-35.47,32.9-55.25c3.27-7.67,5.87-17.36,0.43-23.67c-3.83-4.44-10.59-5.4-16.21-3.73
				c-5.62,1.66-10.33,5.48-14.67,9.43c-20.52,18.7-36.36,42.51-45.68,68.66c-0.5-13.43-1.35-26.98-5.04-39.9
				c-3.69-12.93-12.74-23.2-20.97-30.17c-13.72-10.84-15.59,71.86-0.7,106.53c1.31,3.05,2.76,6.26,2.28,9.54
				c-0.28,1.94-1.23,3.7-2.15,5.43c-4.1,7.63-8.2,15.26-12.31,22.89c-0.18-21.23-13.38-41.81-32.6-50.83
				c-2.9-1.36-6.79-2.3-8.94,0.08c-1.26,1.4-1.39,3.45-1.41,5.34c-0.16,24.78,9.19,49.5,25.71,67.97c1.27,1.42,2.64,2.94,2.85,4.83
				c0.15,1.39-0.29,2.8-0.89,4.06c-9.9,20.91-22.54,42.95-26.23,47.91c-3.22-27.99-12.22-40.57-27.69-63
				c-1.92-2.78-4.91-5.19-8.29-5.31c-5.57-0.21-9.74,5.96-10.19,11.51c-1.49,18.1,3.18,33.59,6.55,39.35
				c5.52,9.43,4.75,11.15,15.03,21.43c5.82,5.82,13.35,9.48,13.35,9.48s-11.6,14.61-20.56,26L546.96,675.95z"/>
		</defs>
		<clipPath id="SVGID_11_">
			<use xlink:href="#SVGID_10_"  style="overflow:visible;"/>
		</clipPath>
		<path class="st15" d="M703.28,430.97c-0.42-3.49-4.06-2.47-4.98-5.78c-2.64-9.44-5.76-9.52-7.16-9.82
			c-3.66-0.77-7.1,1.68-10.24,7.64c2.17,3.33,2.29,7.08,1.68,9.2c-0.62,2.17-1.64,4.18-3.9,5.73c-2.46,1.69-4.64,2.24-7.2,0.42
			c-2.27-1.61-3.39-3.9-3.22-7.83c-4.81,2.75-6.23,6.56-9.94,11.46c-11.03,14.57-17.13,25.14-24.39,36.35
			c-4.52,6.99-13.91,23.71-13.91,23.71s2.93-15.25,5.1-22.88c6.6-23.18,16.5-45.08,30.5-61.54c5.03-5.92,10.7-11.19,17.17-13.67
			c6.47-2.47,13.88-1.83,19.39,3.3C697.45,412.19,700.31,420.35,703.28,430.97z"/>
		<path class="st15" d="M590.07,414.21c6.52,5.09,16.23,23.34,17.61,31.37c-1.43,0.33-2.35,1.78-2.49,3.19
			c-0.14,1.42,0.33,2.81,0.8,4.15c0.47,1.35,0.98,2.77,2.08,3.71s2.98,1.2,3.99,0.15c2.33,8.94,4,11.24,4.8,19.13
			c0-8.7,0.38-10.01-0.54-17.76c-0.93-7.75-0.51-15.04-4.32-21.88c-1.6-2.87-3.34-5.71-5.78-7.95S595.32,413.7,590.07,414.21z"/>
		<path class="st15" d="M526.92,591.95c-2.32-1.32-4.83-2.3-7.43-2.88c-0.82-0.18-1.72-0.31-2.44,0.11
			c-1.67,0.99-0.71,3.56,0.48,5.09c1.57,2.01,3.28,3.91,5.12,5.68c0.37,0.35,0.78,0.72,1.28,0.77c0.7,0.07,1.28-0.48,1.77-0.98
			C527.11,598.28,528.52,596.81,526.92,591.95z"/>
		<path class="st15" d="M579.73,553.88c-1.82-9.29-6.83-17.93-13.99-24.13c0.1,0.95-0.96,1.7-1.91,1.61
			c-0.95-0.08-1.75-0.74-2.41-1.42c-0.86-0.89-1.61-1.89-2.23-2.96c-0.4-0.69-0.75-1.48-0.61-2.27c0.14-0.79,0.99-1.48,1.73-1.19
			c-5.31-8.72-12.92-16.01-21.86-20.93c11.27,1.07,22.15,5.91,30.5,13.55c3.02,2.77,5.74,5.92,7.68,9.53
			C580.73,533.28,581.12,542.33,579.73,553.88z"/>
	</g>
	<linearGradient id="SVGID_12_" gradientUnits="userSpaceOnUse" x1="81.4917" y1="629.7659" x2="21.1714" y2="825.1698">
		<stop  offset="0" style="stop-color:#99C95C"/>
		<stop  offset="1" style="stop-color:#5DC98C"/>
	</linearGradient>
	<path class="st16" d="M0,668.03v-41.18c5.21-18.51,5.31-20.87,11.96-37.07c0,0,6.21-15.63,16.46-31.13
		c7.91,36.12,9.13,56.54,9.13,98.09c13.74-28.62,24.5-46.36,40.48-60.48c0.44,32.56-0.97,50.1-8.55,94.56
		c7.16-16.79,13.4-29.08,24.69-43.51c6.01-8.51,15.45-17.66,22.86-21.91c-4.08,43.42-12.1,77.81-23.44,109.16
		c13.13-14.2,28.68-21.84,44.23-21.72c-3.11,18-9.68,30.52-16.64,45.08H0C0.43,724.26,0,668.03,0,668.03z"/>
	<path class="st17" d="M668.04,440.85c-15.17,15.83-28.32,33.6-39.01,52.74C641.72,475.82,658.01,460.53,668.04,440.85z"/>
	<path class="st17" d="M594.27,440.87c4.16,13.23,4.9,27.26,5.61,41.11c0.31,5.95,0.61,11.9,0.92,17.85
		c0.14,2.68,0.26,5.45-0.69,7.96C596.18,486.21,594.41,464.25,594.27,440.87z"/>
	<path class="st18" d="M607.68,553.66c5.93-1.08,11.71-2.82,17.48-4.56c10.42-3.14,20.84-6.28,31.27-9.43
		c2.82-0.85,5.65-1.71,8.31-2.97c-6.83,3.5-13.91,6.5-20.98,9.5c-9.69,4.11-19.5,8.26-29.92,9.76
		C611.63,556.28,608.86,556.21,607.68,553.66z"/>
	<path class="st18" d="M636.73,599.89c17.08,22.85,31.6,47.61,43.2,73.68c-6.63-8.34-10.55-18.45-15.57-27.85
		C655.83,629.75,644.02,615.62,636.73,599.89z"/>
	<path class="st18" d="M709.4,604.61c2.57,14.16,3.76,28.52,4.95,42.86c0.51,6.09,1.01,12.18,1.32,18.29
		c0.15,2.88,0.22,5.91-1.06,8.5c-1.37-0.18-1.97-1.79-2.24-3.14c-1.23-6.17-1.13-12.51-1.17-18.8
		C711.1,636.91,710.14,621.51,709.4,604.61z"/>
	<path class="st18" d="M760.18,618.06c-1.12,4.16-1.76,8.44-2.4,12.7c-1.79,11.92-3.57,23.85-5.36,35.77
		c-0.43,2.9-0.87,5.81-1.73,8.62c-1.42-0.63-1.48-2.6-1.3-4.14c1.89-16.4,4.71-32.7,8.45-48.78
		C758.15,620.9,758.49,619.52,760.18,618.06z"/>
	<path class="st18" d="M798.51,647.11c-5.83,8.52-11.35,17.26-16.53,26.19c-0.38,0.66-0.58,1.79,0.17,1.94
		C789.1,666.5,794.96,656.9,798.51,647.11z"/>
	<path class="st18" d="M7.25,668.95c-1.94-10.07-0.71-20.47,0.97-30.58c3.21-19.28,8.03-38.29,14.4-56.77
		C15.87,610.29,9.1,639.17,7.25,668.95z"/>
	<path class="st18" d="M35.64,671.25c-1.16-2.82-0.58-6.03,0.13-8.99c4.75-19.81,14.49-38.18,26.45-54.67
		C52.11,628.32,43.12,649.59,35.64,671.25z"/>
	<path class="st18" d="M65.58,671.28c7.87-20.83,20.15-39.98,35.8-55.83c-7.76,13-15.52,26-23.28,39
		C74.45,660.56,70.73,666.76,65.58,671.28z"/>
	<path class="st12" d="M101.12,675.24c5.54-5.49,11.57-10.48,18-14.9C115.57,666.47,109.76,671.25,101.12,675.24z"/>
</g>
<g id="Layer_13" class="st0">
	<path class="st19" d="M296.92,436.99c-8.62-0.88-16.6-5.69-22.08-12.4s-8.58-15.17-9.59-23.78c-1.34-11.34,1-23.35,7.81-32.51
		c4.73-6.37,11.37-11.11,18.44-14.71c8.27-4.21,17.71-7.01,26.82-5.26c3.94,0.76,7.68,2.34,11.3,4.07c4.62,2.2,9.15,4.68,13.05,7.98
		c8.46,7.15,13.49,17.99,14.33,29.03L296.92,436.99z"/>
	<path class="st19" d="M539.48,436.99c8.62-0.88,16.6-5.69,22.09-12.4s8.58-15.17,9.59-23.78c1.34-11.34-1-23.35-7.81-32.51
		c-4.73-6.37-11.37-11.11-18.44-14.71c-8.27-4.21-17.71-7.01-26.82-5.26c-3.94,0.76-7.68,2.34-11.3,4.07
		c-4.62,2.2-9.15,4.68-13.05,7.98c-8.46,7.15-13.49,17.99-14.33,29.03L539.48,436.99z"/>
	<path class="st20" d="M414.57,353.49c-1.11,1.7-2.42,11.54-3.16,11.92c-1.46,0.75-7.35-4.92-11.31-3.3
		c-6.01,2.44-0.11,17.28-3.93,16.95c-14.56-1.26-32.12,3.03-39.7,6.01c-40.69,15.96-89.87,67.49-100.25,107.31
		c-1.81,6.95-6.02,19.8-7.24,23.1c-0.44,1.19-6.42,5.42-13.6,6.39c-8.68,1.16-2.73,9.58,4.84,14.92c2.16,1.52-12.52,1.53-11.35,8.31
		c2.1,12.22,14.04,28.7,28.42,39.01c49.24,35.31,95.43,42.63,167.99,45.31c28.03,1.04,53-2.58,72.63-8.91
		c22.38-7.21,26.08-9.64,41.55-17.72c13.09-6.85,13.76-15.52,25.16-24.92c5.26-4.33,6.94-6.22,9.5-12.53
		c2.56-6.31,3.7-10.74,4.2-17.53c0.35-4.63-3.98-10.26,0.67-10.26c10.18,0,14.08-10.62,10.28-10.98c-7.42-0.71-10-1.96-16.05-3.97
		c-4.13-1.37-4.97-16.67-7.4-30.75c-4.75-27.49-11.01-46.45-22.14-62.82c-11.46-16.87-29.58-30.13-48.64-37.39
		c-19.06-7.26-55.22-10.81-57.02-13.72c-4.98-8.03-8.25-14.04-12.31-22.26c-1.68-3.39-3.9-5.39-5.96-5.65
		S416.17,351.03,414.57,353.49z"/>
	<g class="st10">
		<defs>
			<path id="SVGID_13_" d="M414.57,353.49c-1.11,1.7-2.42,11.54-3.16,11.92c-1.46,0.75-7.35-4.92-11.31-3.3
				c-6.01,2.44-0.11,17.28-3.93,16.95c-14.56-1.26-32.12,3.03-39.7,6.01c-40.69,15.96-89.87,67.49-100.25,107.31
				c-1.81,6.95-6.02,19.8-7.24,23.1c-0.44,1.19-6.42,5.42-13.6,6.39c-8.68,1.16-2.73,9.58,4.84,14.92
				c2.16,1.52-12.52,1.53-11.35,8.31c2.1,12.22,14.04,28.7,28.42,39.01c49.24,35.31,95.43,42.63,167.99,45.31
				c28.03,1.04,53-2.58,72.63-8.91c22.38-7.21,26.08-9.64,41.55-17.72c13.09-6.85,13.76-15.52,25.16-24.92
				c5.26-4.33,6.94-6.22,9.5-12.53c2.56-6.31,3.7-10.74,4.2-17.53c0.35-4.63-3.98-10.26,0.67-10.26c10.18,0,14.08-10.62,10.28-10.98
				c-7.42-0.71-10-1.96-16.05-3.97c-4.13-1.37-4.97-16.67-7.4-30.75c-4.75-27.49-11.01-46.45-22.14-62.82
				c-11.46-16.87-29.58-30.13-48.64-37.39c-19.06-7.26-55.22-10.81-57.02-13.72c-4.98-8.03-8.25-14.04-12.31-22.26
				c-1.68-3.39-3.9-5.39-5.96-5.65S416.17,351.03,414.57,353.49z"/>
		</defs>
		<clipPath id="SVGID_14_">
			<use xlink:href="#SVGID_13_"  style="overflow:visible;"/>
		</clipPath>
		
			<radialGradient id="SVGID_15_" cx="432.4727" cy="577.4914" r="91.2664" gradientTransform="matrix(0.9536 0 0 2.2194 7.5379 -746.2956)" gradientUnits="userSpaceOnUse">
			<stop  offset="0" style="stop-color:#FFFFFF"/>
			<stop  offset="0.4804" style="stop-color:#FEFEFD"/>
			<stop  offset="0.6535" style="stop-color:#FCFAF6"/>
			<stop  offset="0.7768" style="stop-color:#F7F3EB"/>
			<stop  offset="0.8765" style="stop-color:#F0E9DA"/>
			<stop  offset="0.961" style="stop-color:#E8DCC4"/>
			<stop  offset="1" style="stop-color:#E3D4B7"/>
		</radialGradient>
		<path class="st21" d="M269.43,538.64c50.12,24.59,89.91,38.27,148.57,38.27c17.7,0,55.54-0.82,87.73-12.76
			c9.49-3.52,49.05-20.1,58.07-25.18c1.81,12.74-30.95,52.31-37.11,62.37c-4.95,8.09-10.5,15.81-17.45,20.67
			c-7.03,4.92-15.06,6.63-22.93,8.09c-57.87,10.72-118.03,11.84-173.45-12.72c-4.85-2.15-10.08-4.96-12.47-10.95
			c-1.13-2.82-1.49-6.05-1.83-9.2c-0.55-5.04-1.1-10.08-1.65-15.12C296.47,578.1,267.15,543.98,269.43,538.64z"/>
	</g>
	<path class="st20" d="M551.04,757.93H281.42c0.71-2.01,5.57-35.45,30.94-88c3.03-6.27,5.33-15.9,8.43-26.54
		c0.26-0.91,6.92-13.26,10.23-19.37c0.34-0.64,0.65-1.22,0.92-1.7c0.56-1.04,0.9-1.67,0.9-1.67s17.12,5.72,29.75,7.97
		c25.8,4.6,48.76,1.79,58.88,0.98c0.93-0.07,1.86-0.15,2.77-0.22c30.94-2.4,50.17-2.51,69.8-7.68c1.75-0.46,3.52-0.96,5.29-1.51
		c0.54,1.23,1.06,2.42,1.56,3.57c0.21,0.48,0.42,0.96,0.62,1.42c8.16,18.6,13.05,30.11,17.64,39.81c0.01,0.02,0,0,0,0
		C535.92,695.7,536.93,713.48,551.04,757.93z"/>
	<path class="st19" d="M499.33,625.63c16.72-19.9,16.55-24.21,29.7-46.62c6.47-11.03,8.6-19.5,23.18-32.92
		c3.37-3.1,10.83-7.44,16.89-8.98c11.13-2.81,18.59-0.44,27.76,2.96c6.8,2.52,16.64,12.53,19.96,19.22c1.79,3.6,2.59,8.28,2.6,13.35
		c0.01,3.58-0.73,10.17-1.92,13.54c-1.28,3.63-1.92,6.05-3.69,9.47c-3.69,7.12-6.2,9.85-11.36,14.79
		c-3.78,3.62-18.19,16.07-22.42,19.15c-17.68,12.88-12.28,9.5-29.86,22.31c-4.41,3.21-23.3,16.4-28.43,18.25L499.33,625.63z"/>
	<path class="st19" d="M334.67,625.63c-16.72-19.9-16.55-24.21-29.7-46.62c-6.47-11.03-8.6-19.5-23.18-32.92
		c-3.37-3.1-10.83-7.44-16.89-8.98c-11.13-2.81-18.59-0.44-27.76,2.96c-6.8,2.52-16.64,12.53-19.96,19.22
		c-1.79,3.6-2.59,8.28-2.6,13.35c-0.01,3.58,0.73,10.17,1.92,13.54c1.28,3.63,1.92,6.05,3.69,9.47c3.69,7.12,6.2,9.85,11.36,14.79
		c3.78,3.62,18.19,16.07,22.42,19.15c17.68,12.88,12.28,9.5,29.86,22.31c4.41,3.21,23.3,16.4,28.43,18.25L334.67,625.63z"/>
	<path class="st22" d="M327.77,617.07c24.93,6.06,37.67,7.76,60.24,10.28c5.94,0.66,11.99,0.71,17.96,0.74
		c34.83,0.15,88.11-4.42,99.76-10.36c-1.66,6.97-7.65,10.61-12.87,13.79c-30.28,18.42-36.31,25.76-65.34,38.19
		c-1.44,0.61-3.58,1.99-5.14,2.03c-1.49,0.04-4.25-0.75-5.68-1.13c-12.68-3.39-21.02-9.68-37.5-15.99
		c-5.65-2.16-14.09-6.54-19.38-9.48c-9.09-5.05-16.04-9.65-21.76-14.12C332.92,626.99,327.64,620.77,327.77,617.07z"/>
	<g class="st10">
		<g>
			<path class="st23" d="M481.91,489.75c-1.21-2.92-2.53-5.87-4.7-8.16c-4.59-4.83-12.22-5.71-18.6-3.78
				c-6.38,1.92-11.77,6.17-16.84,10.49c-2.91,2.48-6.15,5.5-6.86,9.82c-0.7,4.32,0.31,8.8,2.21,12.74c1.12,2.33,2.54,4.51,4.22,6.47
				c5.27,6.15,12.75,9.87,20.06,13.35c3.48,1.66,7.03,3.32,10.83,3.96c3.81,0.64,7.97,0.14,11.04-2.2c4.07-3.1,5.39-8.65,5.5-13.77
				C489,508.69,485.75,498.97,481.91,489.75z M451.81,509.73c-3.76,0-6.8-3.05-6.8-6.8c0-3.76,3.05-6.8,6.8-6.8
				c3.76,0,6.8,3.05,6.8,6.8C458.61,506.68,455.57,509.73,451.81,509.73z"/>
		</g>
	</g>
	<g class="st10">
		<g>
			<path class="st23" d="M380.71,498.11c-0.7-4.32-3.95-7.33-6.86-9.82c-5.07-4.33-10.46-8.57-16.84-10.49
				c-6.38-1.92-14.01-1.05-18.6,3.78c-2.17,2.29-3.49,5.25-4.7,8.16c-3.83,9.22-7.09,18.94-6.87,28.92
				c0.11,5.12,1.43,10.67,5.5,13.77c3.07,2.33,7.23,2.84,11.04,2.2c3.81-0.64,7.35-2.3,10.83-3.96c7.31-3.48,14.8-7.2,20.06-13.35
				c1.68-1.96,3.1-4.14,4.22-6.47C380.4,506.91,381.41,502.44,380.71,498.11z M366.18,509.73c-3.76,0-6.8-3.05-6.8-6.8
				c0-3.76,3.05-6.8,6.8-6.8c3.76,0,6.8,3.05,6.8,6.8C372.99,506.68,369.94,509.73,366.18,509.73z"/>
		</g>
	</g>
	<g class="st10">
		<g>
			<path class="st23" d="M428.29,505.87c-0.15-1.43-0.8-3.36-1.92-4.26c-1.12-0.9-2.48-1.46-3.84-1.9
				c-5.79-1.88-10.88-2.46-17.17-1.92c-3.71,0.31-9.24,1.59-12.02,4.37c-1.26,1.26-1.86,2.86-1.99,3.85
				c-0.11,0.82-0.21,1.72,0.02,2.51c0.97,3.34,2.99,6.33,5.57,8.65c2.59,2.32,5.72,3.99,9.03,5.06c2.02,0.66,4.18,1.1,6.27,0.72
				c3.15-0.56,5.66-2.15,8.34-3.88c1.39-0.9,2.88-2.36,4.05-3.54c1.84-1.87,2.64-4.51,3.38-7.03
				C428.32,507.44,428.41,506.98,428.29,505.87z M409.79,507.68c-5.05,0-9.15-1.62-9.15-3.61c0-2,4.1-3.61,9.15-3.61
				c5.05,0,9.15,1.62,9.15,3.61C418.94,506.06,414.84,507.68,409.79,507.68z"/>
		</g>
	</g>
	<path class="st19" d="M376.44,458.64c-0.89-0.84-1.78-1.68-2.67-2.52c-1.35-1.27-2.73-2.56-4.4-3.36s-3.72-1.04-5.36-0.17
		c-1.97,1.04-2.91,3.57-2.4,5.74s2.26,3.93,4.31,4.79s4.39,0.91,6.58,0.5c0.75-0.14,1.51-0.33,2.17-0.71
		C376.35,461.97,377.48,459.62,376.44,458.64z"/>
	<path class="st19" d="M449.53,458.64c0.89-0.84,1.78-1.68,2.67-2.52c1.35-1.27,2.73-2.56,4.4-3.36s3.72-1.04,5.36-0.17
		c1.97,1.04,2.91,3.57,2.4,5.74c-0.51,2.17-2.26,3.93-4.31,4.79s-4.39,0.91-6.58,0.5c-0.75-0.14-1.51-0.33-2.17-0.71
		C449.62,461.97,448.49,459.62,449.53,458.64z"/>
	<path class="st19" d="M409.23,521.33c-1.43,14.25-0.97,28.7,1.37,42.83c0.81-0.02,1.63-0.04,2.44-0.06
		c-2.11-14.24-2.64-28.71-1.48-43.06C411.06,520.99,410.56,520.94,409.23,521.33z"/>
	<path class="st19" d="M402.64,562.58c-2.31-0.97-6.04-3.46-5.25-1.35c0.06,0.7,1.06,1.7,1.54,2.06c3.77,2.89,9.99,3.2,14.11,3.2
		c7.53,0,13.61-1.78,20.35-5.15c2.42-1.21,6.35-4.4,9.11-7.17c1.63-1.63,4.36-6.35,5.43-9.57c0.1-0.3,0.03-1.17-0.41-1.27
		c-0.42-0.1-0.96,0.8-1.44,1.53c-4.25,6.49-11.4,13.29-22.12,17.03C415.42,564.89,406.05,564.02,402.64,562.58z"/>
	<path class="st19" d="M423.79,571.91c3.74-0.18,7.42-1.54,10.37-3.84c0.31-0.24,0.63-0.5,1.01-0.62s0.85-0.06,1.09,0.26
		c0.45,0.57-0.12,1.36-0.66,1.84c-1.52,1.34-3.17,2.53-4.92,3.56c-1.35,0.79-2.77,1.49-4.3,1.79c-1.53,0.3-3.19,0.16-4.53-0.64
		c-0.41-0.24-0.82-0.64-0.75-1.11c0.04-0.26,0.22-0.48,0.43-0.63C422.21,572,423.11,571.94,423.79,571.91z"/>
</g>
<g id="Layer_12" class="st0">
	<path class="st22" d="M641.27,134.17c1.99-6.21,4.91-12.45,10.1-16.38c0.88-0.67,1.88-1.28,2.98-1.31
		c0.88-0.02,1.73,0.34,2.53,0.72c6.43,3.07,11.89,8.02,15.98,13.85c1.89,2.7,3.51,5.61,4.47,8.76c2.81,9.27-0.45,19.21-4.22,28.13
		c5.97-2.36,12.74-2.63,18.88-0.76c2.01,0.61,4.02,1.49,5.45,3.03c1.23,1.33,1.95,3.07,2.3,4.85c1,5.22-1.22,10.75-5.03,14.46
		c-3.81,3.71-9.02,5.75-14.28,6.5s-10.63,0.32-15.9-0.37c-2.65-0.34-5.33-0.76-7.77-1.85c-2.47-1.1-4.61-2.85-6.48-4.79
		c-6.44-6.67-10.02-15.75-11.12-24.96C638.04,154.86,637.75,145.13,641.27,134.17z"/>
	<path class="st24" d="M615.24,163.33c0.16-6.66,0.64-13.3,1.43-19.91c0.54-4.52,1.28-9.14,3.55-13.08
		c2.27-3.94,6.42-7.11,10.97-6.97c2.01,0.06,3.95,0.75,5.75,1.62c3.71,1.81,6.96,4.42,10.06,7.16c7.75,6.85,15.02,15.16,16.84,25.34
		c1.44,8.02-0.87,16.63-6.12,22.86c5.6-3.43,11.35-6.86,17.74-8.37c4.21-0.99,9.11-0.94,12.31,1.97c3.5,3.18,3.75,8.53,3.48,13.25
		c-0.16,2.72-0.45,5.57-2.02,7.79c-1.08,1.53-2.68,2.62-4.3,3.57c-10.15,6.03-22.44,8.37-34.1,6.5c-0.97-0.16-1.95-0.34-2.83-0.77
		c-0.8-0.38-1.5-0.95-2.19-1.51c-6.06-4.92-12.12-9.85-17.65-15.36c-4.72-4.7-9.11-9.93-11.51-16.15
		C615.61,168.57,615.19,165.62,615.24,163.33z"/>
	<path class="st24" d="M632.46,180.77c3.15,4.68,6.73,9.08,10.68,13.12c1.29,1.32,2.63,2.62,3.51,4.24c0.2,0.37,0.37,0.83,0.15,1.19
		c-0.18,0.3-0.57,0.4-0.92,0.46c-4.86,0.74-9.52-2.11-13.3-5.26c-5.8-4.83-10.77-10.67-14.61-17.18c-1.17-1.99-2.25-4.06-3.76-5.81
		c-1.36-1.59-3.06-2.89-4.94-3.8c-1.9-0.92-4.38-1.35-5.97,0.04c-0.22,0.19-0.42,0.42-0.69,0.52c-0.71,0.29-1.51-0.48-1.51-1.25
		c0-0.77,0.55-1.44,1.14-1.92c2.72-2.2,6.83-1.89,9.88-0.18c3.06,1.7,5.3,4.53,7.48,7.38c0.12-0.63,4.34,2.9,4.73,3.4"/>
	<path class="st20" d="M628.33,167.34c-1.59-3.04-2.15-6.61-1.55-9.98c0.19-1.09,0.54-2.23,1.38-2.96c1.22-1.05,3.2-0.85,4.46,0.16
		c1.26,1.01,1.89,2.64,2.08,4.24c0.35,2.89-0.6,5.91-2.53,8.08c-0.55,0.61-1.18,1.17-1.95,1.46S628.92,168.47,628.33,167.34z"/>
	<path class="st20" d="M635.89,171.95c0.26-2.06,0.55-4.16,1.53-5.99c0.8-1.49,2.08-2.74,3.65-3.35s3.44-0.5,4.85,0.43
		c0.53,0.35,1,0.83,1.27,1.41c0.76,1.64-0.24,3.53-1.24,5.04c-0.69,1.05-1.42,2.11-2.45,2.83c-1.3,0.91-2.93,1.19-4.5,1.44
		c-0.74,0.12-1.53,0.23-2.24-0.03C636.05,173.47,635.78,172.79,635.89,171.95z"/>
	<path class="st20" d="M656.33,196.15c-0.03-1.08-0.03-2.27,0.67-3.1c0.26-0.32,0.61-0.55,0.95-0.78c1.19-0.77,2.46-1.47,3.84-1.79
		c2.63-0.61,5.56,0.28,7.4,2.25c0.71,0.76,1.28,1.81,0.97,2.8c-0.29,0.91-1.22,1.44-2.1,1.79c-2.51,1.01-5.3,1.34-7.98,0.94
		C657.92,197.95,655.67,197.02,656.33,196.15z"/>
	<path class="st22" d="M620.51,168.9c-2.09-7.74-2.34-13.25-0.75-21.72c0.81-4.3,3.79-8.35,7.86-9.98
		c3.56-1.43,7.75-0.58,10.99,1.48c3.24,2.05,6.16,5.18,8.18,8.44c2,3.23,4.3,5.41,5.72,10.47c1.01,3.62,1.24,8.75,1.08,12.5
		c-0.35,8.18-4.32,11.71-10.16,17.45c6.96-3.69,14.87-5.23,21.12-4.84c4.41,0.27,8.95,0.86,12.23,3.83
		c2.68,2.43,4.17,5.09,3.37,8.62c-0.8,3.53-6.75,8.76-5.09,5.54c1.26-2.43,1.32-5,1.19-6.26c-0.19-1.82-0.38-3.42-2.44-4.89
		c-1.91-1.36-4.8-2.73-7.44-3.24c-1.56-0.3-5.85-0.45-11.2,0.35s-15.64,4.95-15.84,3.51c-0.19-1.4,7.74-11.53,9-17.22
		c1.19-5.35-0.18-10.15-2.03-14.87c-0.91-2.31-4.58-8.08-5.97-9.46c-4.21-4.21-6.9-3.94-9.89-3.77c-3.34,0.19-6.03,3.53-7.2,6.67
		c-2.4,6.42-1.61,10.98-1.22,13.35C622.31,166.7,621.21,171.51,620.51,168.9z"/>
	<path class="st25" d="M104.46,273.36c0.03-9.64,1.96-16.48,4.74-23.67c0.5-1.29,1.59-2.85,2.75-3.8c0.89-0.73,2.05-1.05,3.2-1.18
		c4.87-0.55,7.99,1.25,11.89,4.22c3.73,2.83,5.83,6.46,6.51,10.41c0.4,2.28,0.44,6.07-0.14,8.31c-1.39,5.32-3.07,9.29-6.35,13.7
		c-2.12,2.85-4.08,5.15-6.13,8.06c-4.09,5.78-6.38,12.61-9.21,19.1c-0.93,2.13-1.99,4.32-3.82,5.75c-1.83,1.43-4.66,1.85-6.43,0.34
		c-1.81-1.55-1.82-4.3-1.67-6.67c0.21-3.44,0.42-6.89,0.63-10.33"/>
	<path class="st26" d="M104.63,306.83c-2.05,2.27-4.33,4.73-7.35,5.22c-6.05,0.98-6.72,1.19-12.64-0.39
		c-0.63-0.17-1.73-0.26-5.35-2.12c-1.04-0.53-3.11-3.21-2.5-5.69c1.37-5.68,4.27-9.08,8.37-13.24c-2.17-4.61-7.48-6.75-10.95-10.49
		c-2.83-3.05-4.37-7.12-5-11.24c-0.63-4.12-0.99-6.31-0.7-10.46c0.11-1.6,0.87-5.33,1.98-6.48c0.62-0.64,1.47-1.02,2.31-1.32
		c6.11-2.13,13.07-0.52,18.54,2.93s9.69,8.56,13.45,13.83c4.81,6.74,9.15,14.23,9.72,22.47"/>
	<path class="st27" d="M117.05,290.31c-2.56,7.97-5.21,16.06-9.96,22.95c-0.93,1.34-2,2.7-3.52,3.31c-0.54,0.22-1.19,0.32-1.68,0
		c-0.68-0.44-0.7-1.42-0.57-2.22c0.49-3,1.95-5.74,3.32-8.46c2.43-4.8,4.65-9.73,6.3-14.85c0.87-2.69,1.58-5.53,1.13-8.32
		c-0.2-1.25-0.63-2.46-1.08-3.65c-0.55-1.47-1.24-3.06-2.64-3.77c-0.71-0.36-1.71-0.66-1.72-1.45c0-0.86,1.24-1.12,2.01-0.74
		c1,0.5,1.61,1.53,2.11,2.53c1.42,2.82,2.43,5.84,3.01,8.94c0.1,0.55,0.35,1.24,0.9,1.22c0.52-0.01,0.76-0.64,0.86-1.15
		c0.39-2.05,0.61-4.15,0.34-6.22s-1.07-4.11-2.5-5.63c-0.42-0.44-0.93-0.96-0.81-1.55c0.09-0.44,0.53-0.75,0.98-0.79
		c0.45-0.04,0.89,0.16,1.26,0.42c0.99,0.72,1.5,1.91,1.94,3.05c0.45,1.16,0.89,2.34,1.14,3.56
		C118.75,281.89,118.26,286.55,117.05,290.31z"/>
	<path class="st27" d="M94.1,270.55c-2.61-4.96-6.77-9.14-11.84-11.54c-1.48-0.7-3.14-1.26-4.74-0.92c-1.6,0.34-3.04,1.89-2.73,3.5
		c0.27,1.43,1.74,2.32,3.16,2.62c1.42,0.3,2.91,0.2,4.32,0.55c2.21,0.55,3.98,2.13,5.81,3.48c1.39,1.03,2.87,1.95,4.41,2.75
		C92.99,271.25,93.89,271.28,94.1,270.55z"/>
	<path class="st27" d="M90.25,279.09c-1.47-2.04-3.44-3.65-5.49-5.11c-0.88-0.62-1.79-1.23-2.83-1.49c-1.04-0.27-2.14-0.18-3.2-0.01
		c-0.48,0.08-0.99,0.19-1.33,0.54c-0.36,0.37-0.44,0.94-0.35,1.45c0.23,1.4,1.51,2.41,2.85,2.89c1.34,0.47,2.78,0.54,4.16,0.88
		c1.65,0.4,3.2,1.17,4.51,2.25c0.49,0.4,1.01,0.88,1.65,0.88C90.86,281.36,91.33,280.58,90.25,279.09z"/>
	<path class="st27" d="M94.03,294.26c-2.09,0.74-4.22,1.5-6.01,2.83c-1.78,1.33-3.2,3.33-3.28,5.55c-0.03,1.01,0.3,2.14,1.19,2.6
		c1.15,0.59,2.51-0.19,3.47-1.06c1.11-1.01,2.07-2.17,3.02-3.33c0.86-1.04,1.72-2.09,2.57-3.13c0.51-0.62,1.05-1.29,1.18-2.09
		C96.31,294.83,95.8,293.63,94.03,294.26z"/>
</g>
<g id="Layer_14" class="st0">
	<path class="st28" d="M692.71,676.18h28.17c0.06-0.07,0.11-0.13,0.16-0.2c0.17-0.21,0.33-0.42,0.49-0.63
		c0.98-1.34,2.64-4.14,2.64-7.77c6.33,2.5,13.17-1.36,15.08-2.68c1.46-1,5.56-4.95,7.1-7.45c1.23-2,3.69-5.63,4.44-11.05
		c0.4-2.86,0.62-6.11-1.82-10.15c-0.4-0.65-3.27,0.41-3.8,0.56c-18.57,4.95-30.6,8.22-50.88,5.89c-0.88-0.11-1.78-0.22-2.69-0.34
		l-4.56,0.88l-1.43,0.27l-4.27,0.82c0.11,0.59,0.18,1.19,0.23,1.79c0.1,0.99,0.14,1.99,0.14,3c0,1.81-0.09,3.63-0.11,5.44
		c-0.01,0.49-0.02,0.99-0.01,1.48c0.09,6.74,1.73,13.32,3.1,19.94c0.01,0.07,0.03,0.13,0.04,0.2h6.9"/>
	<g class="st10">
		<defs>
			<path id="SVGID_16_" d="M692.71,676.18h28.17c0.06-0.07,0.11-0.13,0.16-0.2c0.17-0.21,0.33-0.42,0.49-0.63
				c0.98-1.34,2.64-4.14,2.64-7.77c6.33,2.5,13.17-1.36,15.08-2.68c1.46-1,5.56-4.95,7.1-7.45c1.23-2,3.69-5.63,4.44-11.05
				c0.4-2.86,0.62-6.11-1.82-10.15c-0.4-0.65-3.27,0.41-3.8,0.56c-18.57,4.95-30.6,8.22-50.88,5.89c-0.88-0.11-1.78-0.22-2.69-0.34
				l-4.56,0.88l-1.43,0.27l-4.27,0.82c0.11,0.59,0.18,1.19,0.23,1.79c0.1,0.99,0.14,1.99,0.14,3c0,1.81-0.09,3.63-0.11,5.44
				c-0.01,0.49-0.02,0.99-0.01,1.48c0.09,6.74,1.73,13.32,3.1,19.94c0.01,0.07,0.03,0.13,0.04,0.2h6.9"/>
		</defs>
		<clipPath id="SVGID_17_">
			<use xlink:href="#SVGID_16_"  style="overflow:visible;"/>
		</clipPath>
		<path class="st29" d="M728.4,640.67c3.56-0.39,11.31,0.67,13.84,3.21c2.48,2.48-1.05,8.16-4.1,11.2c-1.99,1.99-4.82,3.4-7.35,4.14
			c-3.99,1.17-8.19,1.15-12.33,0.78c-1.37,4.01-2.83,8.15-5.77,11.2c-2.28,2.36-5.28,3.88-8.32,5.13
			c-4.81,1.98-9.97,3.41-15.17,3.06c-0.52,3.12-1.65,6.13-2.05,9.27s0.07,6.63,2.28,8.89c3.27,3.34,8.78,2.71,13.24,1.28
			c5.08-1.63,9.91-3.96,14.63-6.45c8.19-4.3,16.14-9.08,23.55-14.62c7.66-5.72,15.06-12.77,17.53-22.01
			c2.54-9.5-1.02-20.34-8.71-26.48c-3.87-3.09-8.88-5.04-13.79-4.35c-4.91,0.69-9.5,4.43-10.29,9.32"/>
		<path class="st30" d="M734.63,638.92c3.32-0.19,11.05,0.19,11.92,3.41s-0.9,7.33-2.51,10.24c-3.88,7.06-10.7,11.67-16.85,11.67
			c-3.73,0-6.18-0.7-6.57-0.4c-0.41,0.31-0.82,3.57-1.34,5.14c-0.84,2.53-2.43,4.6-3.74,6.07c-5.31,5.94-11.21,7.48-15.3,8.35
			c-6.68,1.42-13.5,2.09-19.92-0.22c3.24,3.29,4.75,8.2,3.92,12.75c1.52-1.22,3.65-1.19,5.59-1.27c7.16-0.3,14.01-2.85,20.72-5.37
			c3.59-1.35,7.24-2.73,10.32-5.02c3.19-2.38,5.75-5.97,5.8-9.95c4.93,1.21,10.25-0.24,14.49-3.05c4.24-2.8,7.51-6.84,10.29-11.09
			c3.69-5.63,6.71-12.12,6.23-18.83c-0.3-4.2-2.18-8.48-5.73-10.74c-3.55-2.26-8.87-1.86-11.39,1.52"/>
	</g>
	<path class="st28" d="M688.88,652.3c-0.37-1.82-0.78-3.79-1.21-5.95c-0.2-0.99-0.41-2.03-0.63-3.11c-0.04-0.22-0.09-0.44-0.13-0.67
		c-0.45,0.33-0.89,0.65-1.3,0.94c-1.5,1.07-2.79,1.91-4.04,2.61c-3.02,1.72-5.76,2.63-10.46,3.94c-13.38,3.74-27.22,7.37-41,5.56
		c-2.76-0.36-5.51-0.95-8.29-1.16c-5.77-0.46-12.05,0.44-18.04,0.35c-0.32,0.64-0.64,1.26-0.93,1.84
		c-3.77,7.41-5.51,10.78-7.49,18.19c-0.09,0.33-0.18,0.71-0.27,1.14c-0.01,0.06-0.03,0.13-0.04,0.2h96.58v-0.2
		C691.73,667.01,690.74,661.48,688.88,652.3z"/>
	<path class="st28" d="M692.71,676.18c0.09-0.07,0.18-0.14,0.27-0.2c2.79-2.09,3.71-1.96,7.44-6.71c3.54-4.49,4.35-10.24,4.35-17.97
		c0-0.49-0.41-1.42-0.69-1.83c-0.97-1.43-3.98-0.67-5.64-0.16c-3.38,1.04-6.53,2.03-9.56,2.99c-2.49,0.78-4.9,1.54-7.28,2.26
		c-6.65,2.02-13.1,3.78-20.67,5.25c-8.72,1.7-15.55,2.56-27.67,1.49l-4.57,14.68l-0.06,0.2h56.1h6.9"/>
	<g class="st10">
		<defs>
			<path id="SVGID_18_" d="M692.71,676.18c0.09-0.07,0.18-0.14,0.27-0.2c2.79-2.09,3.71-1.96,7.44-6.71
				c3.54-4.49,4.35-10.24,4.35-17.97c0-0.49-0.41-1.42-0.69-1.83c-0.97-1.43-3.98-0.67-5.64-0.16c-3.38,1.04-6.53,2.03-9.56,2.99
				c-2.49,0.78-4.9,1.54-7.28,2.26c-6.65,2.02-13.1,3.78-20.67,5.25c-8.72,1.7-15.55,2.56-27.67,1.49l-4.57,14.68l-0.06,0.2h56.1
				h6.9"/>
		</defs>
		<clipPath id="SVGID_19_">
			<use xlink:href="#SVGID_18_"  style="overflow:visible;"/>
		</clipPath>
		<path class="st31" d="M682.14,653.1c3.2-0.68,6.6-0.39,9.64,0.82c1.35,0.54,2.69,1.31,3.45,2.55c1.01,1.66,0.77,3.86-0.17,5.56
			c-0.94,1.7-2.46,3-4.02,4.16c-7.5,5.61-17.2,9.15-26.31,6.93c-0.84-0.21-1.82-0.43-2.51,0.1c-0.32,0.25-0.51,0.63-0.7,0.99
			c-2.12,4.2-4.73,8.27-8.4,11.22c-5.23,4.21-12.27,5.76-18.96,5.23c-6.69-0.53-13.1-2.99-18.6-6.42c0.12,3.87,2.01,7.54,4.64,10.4
			s5.95,4.97,9.36,6.81c3.28,1.77,6.7,3.33,10.31,4.28c9.19,2.42,19.4,0.63,27.21-4.79c4.19-2.91,7.67-6.76,11.9-9.63
			c6.25-4.23,13.85-6.12,20.09-10.36c5.03-3.41,9.04-8.3,11.39-13.91c2.33-5.56,2.82-12.52-1.01-17.18
			c-3.45-4.19-9.37-5.36-14.79-5.36c-2.68,0-5.41,0.22-7.89,1.24C684.3,646.79,682.08,648.71,682.14,653.1z"/>
		<path class="st32" d="M693.66,650.37c3.85,1.31,6.96,4.67,6.42,8.7s-3.77,7.94-6.74,10.71c-7.25,6.75-17.61,9.82-27.48,8.99
			c-3.45,8.51-4.84,12.12-11.3,14.62c-6.46,2.5-13.66,2.27-20.49,1.11c-4.11-0.7-8.33-1.81-11.49-4.53
			c1.96,5.45,6.1,10.08,11.31,12.63c3.45,1.69,7.27,2.46,11.08,2.95c3.95,0.5,8.01,0.69,11.87-0.3c7.13-1.82,12.92-7.74,15.18-14.74
			c0.33-1.02,0.66-2.16,1.57-2.75c0.49-0.31,1.08-0.41,1.65-0.51c5.61-0.99,11.11-2.64,16.33-4.92c5.64-2.45,11.08-5.71,14.93-10.51
			c3.85-4.79,5.89-11.32,4.25-17.24c-0.83-2.98-2.64-5.77-5.33-7.3C702.72,645.74,697.41,647.31,693.66,650.37z"/>
	</g>
	<path class="st28" d="M651.26,537.97c-4-0.02-6.35-5.22-4.89-8.94s5.3-5.94,9.09-7.23c-2.65-3.2-7.55-3.92-11.43-2.41
		c-3.88,1.51-6.8,4.86-8.73,8.54c-0.99,1.88-1.77,3.9-3.05,5.6c-3.4,4.52-9.44,5.9-14.83,7.63c-19.14,6.14-24.35,12.24-37.73,30.39
		c-5.96,8.07-10.12,21.83-11.25,34.12c-0.58,6.32,0.21,16.91,2.6,22.78c3.11,7.63,12.54,17.73,21.77,23.37
		c9.58,5.84,17.74,7.1,22.19,7.76c6.98,1.02,14.78,0.92,27.83-1.07c13.05-1.99,26.73-4.2,38.88-9.37
		c8.03-3.42,16.76-8.46,23.43-14.09c7.87-6.64,10.58-12.5,12.72-20.97c2.45-9.72,1.19-17.96-1.04-26.47
		c-1.45-5.53-4.8-13.12-7.83-17.96c-7.93-12.67-10.02-14.36-15.46-18.83c-6.59-5.42-12.67-8.52-21.21-11.01
		C667,538.24,659.95,537.97,651.26,537.97z"/>
	<g class="st10">
		<defs>
			<path id="SVGID_20_" d="M651.26,537.97c-4-0.02-6.35-5.22-4.89-8.94s5.3-5.94,9.09-7.23c-2.65-3.2-7.55-3.92-11.43-2.41
				c-3.88,1.51-6.8,4.86-8.73,8.54c-0.99,1.88-1.77,3.9-3.05,5.6c-3.4,4.52-9.44,5.9-14.83,7.63
				c-19.14,6.14-24.35,12.24-37.73,30.39c-5.96,8.07-10.12,21.83-11.25,34.12c-0.58,6.32,0.21,16.91,2.6,22.78
				c3.11,7.63,12.54,17.73,21.77,23.37c9.58,5.84,17.74,7.1,22.19,7.76c6.98,1.02,14.78,0.92,27.83-1.07
				c13.05-1.99,26.73-4.2,38.88-9.37c8.03-3.42,16.76-8.46,23.43-14.09c7.87-6.64,10.58-12.5,12.72-20.97
				c2.45-9.72,1.19-17.96-1.04-26.47c-1.45-5.53-4.8-13.12-7.83-17.96c-7.93-12.67-10.02-14.36-15.46-18.83
				c-6.59-5.42-12.67-8.52-21.21-11.01C667,538.24,659.95,537.97,651.26,537.97z"/>
		</defs>
		<clipPath id="SVGID_21_">
			<use xlink:href="#SVGID_20_"  style="overflow:visible;"/>
		</clipPath>
		<path class="st33" d="M643.91,614.98c0.94-7.59,2.71-15.23,6.57-21.83c3.87-6.6,10.07-12.11,17.53-13.82
			c9.92-2.28,24.18,3.09,30.4,11.14c6.83,8.84,7.99,23.96,6.35,30.82c-2.37,9.9-9.06,17.73-17.1,25.07
			c-3.06,2.79-7.85,6.53-11.2,8.95c-5.13,3.7-12.77,5.19-18.58,7.7c-6.84,2.96-13.86,5.62-21.19,6.96
			c-7.78,1.43-5.2-2.37-12.28-5.92c-3.52-1.76-10.21-5.48-13.91-6.83c-11.16-4.08-15.69-9.12-19.48-13.48
			c-2.02-2.33-3.73-6.58-4.43-9.59c-0.8-3.47-0.82-7.04-0.51-10.59c0.52-5.91,2.7-10.97,6.2-15.77c4.7-6.43,13.08-9.53,21.04-9.18
			c7.96,0.35,15.53,3.77,22.1,8.27"/>
	</g>
	<path class="st19" d="M664.63,594.89c-0.38-0.93-0.41-1.96-0.35-2.97c0.06-1.16,0.23-2.34,0.74-3.39c0.89-1.81,2.79-3.02,4.79-3.3
		s4.06,0.34,5.73,1.46c0.93,0.62,1.77,1.43,2.21,2.46c0.29,0.69,0.36,1.57-0.14,2.13c-0.47,0.52-1.25,0.59-1.94,0.68
		c-2.08,0.25-4.1,0.96-5.88,2.05c-0.79,0.49-1.54,1.05-2.4,1.41C666.52,595.79,665.15,596.14,664.63,594.89z"/>
	<path class="st19" d="M614.87,607.14c-0.39-0.93-1.1-1.68-1.85-2.35c-0.87-0.78-1.82-1.5-2.92-1.87c-1.91-0.65-4.11-0.17-5.71,1.05
		c-1.6,1.22-2.63,3.11-3.02,5.09c-0.22,1.1-0.24,2.27,0.18,3.3c0.28,0.7,0.86,1.36,1.61,1.4c0.7,0.04,1.3-0.46,1.85-0.9
		c1.65-1.29,3.57-2.22,5.61-2.7c0.9-0.22,1.84-0.35,2.7-0.7C614.18,609.12,615.39,608.39,614.87,607.14z"/>
	<path class="st34" d="M625.71,610.67c-0.61-1.87-0.39-3.88,0.31-5.72c1.34-3.54,5.86-8.64,9.95-10.87
		c3.79-2.07,8.33-0.41,11.52,1.25c2.09,1.08,3.59,1.75,5.22,3.45c2.49,2.61,3.1,6.68,1.96,10.1c-0.5,1.5-1.29,2.88-2.09,4.24
		c-1.45,2.46-2.93,4.91-4.4,7.35c-0.19,0.31-0.76,1.57-1.09,1.71c-1.28,0.52-2.38-0.17-3.19-0.34c-1.49-0.32-2.95-0.8-4.43-1.18
		c-4.32-1.1-5.46-1.4-9.21-3.81C628.38,615.65,626.77,613.89,625.71,610.67z"/>
	<path class="st20" d="M604.69,590.69c0.36-0.84,1.08-1.48,1.89-1.91s1.71-0.64,2.6-0.81c0.48-0.09,1.02-0.17,1.43,0.11
		c0.36,0.24,0.52,0.7,0.62,1.12c0.23,0.96,0.3,1.96,0.21,2.95c-0.06,0.61-0.19,1.25-0.6,1.7c-0.34,0.38-0.84,0.59-1.34,0.71
		c-1.32,0.32-2.77,0.11-3.94-0.59C604.97,593.62,603.75,592.91,604.69,590.69z"/>
	<path class="st20" d="M656.04,570.72c1.11-0.68,2.25-1.38,3.54-1.58c1.29-0.2,2.76,0.23,3.41,1.36c0.24,0.41,0.35,0.88,0.41,1.35
		c0.08,0.62,0.07,1.28-0.16,1.86c-0.34,0.85-1.09,1.45-1.83,1.99c-0.22,0.17-0.45,0.33-0.72,0.42c-0.32,0.1-0.67,0.07-1,0.04
		c-0.86-0.08-1.75-0.17-2.54-0.53c-0.64-0.29-1.18-0.74-1.71-1.2c-0.38-0.34-0.77-0.7-0.96-1.17S654.13,571.9,656.04,570.72z"/>
</g>
<g id="Layer_16" class="st0">
	<path class="st6" d="M110.57,714.8c-25.27,3.39-51.72-2.94-72.71-17.39c-4.64-3.19-9.06-6.81-12.53-11.24
		c-1.17-1.5-2.28-3.21-2.31-5.12c-0.06-2.71,2.44-5.2,5.15-5.13c-7.88-4.55-15.15-10.39-20.32-17.87s-8.11-16.72-7-25.75
		c0.19-1.55,0.55-3.21,1.7-4.28c1.39-1.3,3.57-1.37,5.37-0.74c1.79,0.62,3.32,1.82,4.9,2.87c5.4,3.58,11.84,5.56,18.31,5.64
		c-0.77-3.42-1.38-7.49,1.05-10.01c1.22-1.27,3.03-2.94,4.69-3.51c8.6-2.97,15.01-2.54,24.59-0.53c4.46,0.94,10.05,3.64,15.36,7.12
		c2.99,1.96,8.9,6.51,11.71,8.72c7.63,5.99,11.67,10.21,19.06,16.5c3.8,3.24,7.64,6.51,10.56,10.56c4.91,6.79,6.88,15.24,8.09,23.54
		"/>
	<path class="st35" d="M231.7,615.17c6.66-10.89,13.83-26.34,13.52-33.18c-0.25-5.64-2.15-12.97-4.17-18.24
		c-6.34-16.49-10.45-27.01-20.96-39.58c1.34-21.56-4.99-43.3-8.75-51.21c-1.75-3.68-3.52-9.88-6.61-11.37
		c-3.03-1.46-8.2,0.98-12.06,3.44c-13.45,8.59-19.69,18.56-27.37,34.54c-0.75,1.57-1.54,3.19-2.88,4.29
		c-1.42,1.16-3.27,1.73-5.09,1.97c-8.38,1.1-9.42,1.58-20.11,3.55c-5.23,0.96-16.49,4.85-18.45,3.73c-0.71-0.41-3.04-1.97-4.75-3.3
		c-17.98-14.01-38.93-20.03-62.92-20.03c-1.38,0-5.66,0.59-6.87,1.26c-3.04,1.69-2.83,10.73-2.55,14.19
		c2.08,25.51,13.06,41.9,26.35,62.02c-2.41,10.84-4.39,16.78-5.98,32.79c-1.29,13.06,0.32,18.2,13.57,31.45
		c-6.24-0.84-13.62,0.99-17.37,6.04s-5.36,10.41-2.69,16.62c3.37,7.83,9.72,11.33,18.31,16.21c5.9,3.35,11.57,6.08,17.67,9.03
		c3.77,1.83,14.37,7.1,17.33,10.06c3.01,3.01,2.45,13.19-3.77,32.49c-2.89,8.98-6.51,17.58-2.5,25.34c1.95,3.78,9.18,5.59,14.63,7.2
		c5.9,1.74,11.5,1.52,17.25,2.27c3.93,0.52,8.09,0.26,10.89-2.54c4.49-4.49,6.87-18.35,9.2-20.05c1.77-1.29,4.72-1.18,7.96-0.59
		c5.61,1.03,9.9,1.05,14.77,1.1c1.45,0.01,5.91-0.9,7.3-0.46c1.49,0.47,4.93,5.28,6.02,7.03c6.33,10.18,13.22,19.16,20.17,16.05
		c11.45-5.12,23.15-12.62,22.77-17.82c-0.78-10.55-8.47-26.89-16.97-41.99c1.62-14.07,1.37-13.73,2.56-24.05
		c12.63-7.18,14.95-9.03,30.94-25.02c2.66-2.66,6.21-9.72,6.61-13.09c0.68-5.71-0.35-11.88-4.75-15.58
		C247.53,616.06,242.95,612.22,231.7,615.17z"/>
	<path class="st36" d="M151.42,660.29c5.06-5.06,13.53-5.06,20.67-4.68c6.75,0.37,13.85,2.87,17.65,8.46
		c2.69,3.96,3.4,8.9,3.95,13.66c0.48,4.15,0.9,8.34,0.45,12.49c-0.45,4.15-1.84,8.3-4.59,11.44c-5.06,5.78-13.55,7.02-21.22,6.78
		c-3.97-0.13-7.94-0.55-11.85-1.26c-2.42-0.44-4.87-1.01-7-2.26c-3.25-1.91-5.46-5.28-6.6-8.88c-1.14-3.6-1.31-7.43-1.22-11.2
		C141.81,678.35,142.1,669.61,151.42,660.29z"/>
	<path class="st36" d="M179.94,505.67c-0.34-5.08,1-10.25,3.76-14.53c0.46-0.71,1.02-1.44,1.84-1.65c1.2-0.3,2.32,0.64,3.2,1.51
		c0.34-2.29,1.69-4.31,3.11-6.14c1.73-2.22,2.93-4.71,5.51-6.7c0.77-0.6,1.67-0.87,2.64-0.97c1.15-0.12,2.25,0.66,2.84,1.65
		s0.71,2.18,0.95,3.31c1.64,7.7,1.8,18.22,0.32,30.42C196.63,508.2,189.86,506.22,179.94,505.67z"/>
	<path class="st36" d="M77.58,549.6c-1.55-10.51-5.11-20.72-10.43-29.91c-1.89-3.26-4.01-6.43-5.25-9.98
		c-0.21-0.6-0.4-1.24-0.33-1.87c0.16-1.39,1.46-3.02,2.84-2.78c6.9,1.18,9.88,3.3,11.88,4.79c1.84,1.37,3.96,3.15,7.14,5.77
		c-0.4-1.36,1.06-2.7,2.48-2.72c1.42-0.02,2.69,0.82,3.83,1.68c4.38,3.29,8.32,7.17,11.66,11.51c-4.52,1.92-10.07,4.54-14.57,10.65
		C84.4,540.05,80.47,551.5,77.58,549.6z"/>
	<path class="st36" d="M196.46,522.16c-1.28-0.17-2.61-0.16-3.84,0.24c-1.23,0.4-2.36,1.22-2.94,2.37
		c-0.27,0.54-0.42,1.16-0.28,1.74c0.12,0.54,0.47,1,0.88,1.36c1.27,1.08,3.16,1.18,4.75,0.66c1.59-0.52,2.94-1.56,4.25-2.6
		c0.26-0.21,0.53-0.42,0.69-0.71c0.39-0.68,0.1-1.59-0.46-2.14C198.96,522.54,198.18,522.38,196.46,522.16z"/>
	<path class="st36" d="M152.34,525.81c1.09,0.48,2.24,0.82,3.29,1.38c1.05,0.56,2.03,1.38,2.43,2.5c0.4,1.12,0.06,2.56-0.98,3.13
		c-0.46,0.26-1,0.32-1.53,0.38c-1.17,0.13-2.37,0.24-3.53,0.04c-1.16-0.2-2.31-0.74-3.01-1.7c-0.64-0.87-0.84-1.97-1.01-3.03
		c-0.07-0.42-0.13-0.86,0-1.26S148.56,526.52,152.34,525.81z"/>
	<path class="st36" d="M178.16,549.47c-4.11,0.65-8.37,1.36-11.8,3.71c-3.13,2.15-5.25,5.45-7.24,8.69
		c-2.98,4.85-5.92,9.9-6.85,15.51c-1.02,6.16-0.68,12.75,0.81,18.82c0.8,3.26,2.79,6.27,4.59,9.1c3.25,5.1,9.67,9.46,15.7,9.93
		c6.03,0.46,14.26-1.75,19.95-3.78c6.44-2.3,10.35-5.38,14.67-10.69c1.4-1.72,3.18-4.27,4.31-6.17c1.39-2.33,2.16-5.03,2.73-7.68
		c0.8-3.76-0.18-7.64-1.23-11.34c-1.13-3.96-2.36-7.9-3.75-11.78c-0.78-2.18-1.61-4.37-2.86-6.32c-2.61-4.08-6.92-6.91-11.59-8.2
		S185.94,548.24,178.16,549.47z"/>
	<path class="st19" d="M184.66,544.14c-1.85,0.06-3.69-0.34-5.53-0.16c-1.84,0.17-3.8,1.13-4.35,2.89c-0.6,1.92,0.67,3.89,1.98,5.41
		c1.49,1.72,3.18,3.35,5.31,4.15c0.63,0.24,1.29,0.4,1.96,0.35c0.53-0.04,1.05-0.21,1.53-0.44c2.68-1.32,3.86-4.47,4.49-7.39
		c0.21-0.99,0.38-2.08-0.08-2.98C189.3,544.68,187.68,544.31,184.66,544.14z"/>
	
		<ellipse transform="matrix(0.9942 -0.1075 0.1075 0.9942 -57.7082 22.6613)" class="st20" cx="181.34" cy="546.61" rx="3.33" ry="1.78"/>
	<path class="st19" d="M150.62,544.65c-1.11-0.36-2.29-0.54-3.46-0.52c-0.66,0.01-1.45,0.17-1.69,0.79c-0.18,0.46,0.06,1,0.43,1.33
		s0.86,0.49,1.33,0.66c1.83,0.67,3.64,1.59,4.89,3.09c-1.72,1.61-2.99,3.68-3.65,5.93c-0.13,0.44-0.24,0.92-0.13,1.36
		c0.11,0.45,0.5,0.86,0.96,0.85c0.28-0.01,0.53-0.16,0.77-0.32c2.58-1.71,4.79-3.94,7.47-5.48c0.88-0.51,1.91-1.06,2.13-2.06
		c0.14-0.65-0.12-1.33-0.54-1.84c-0.42-0.51-0.99-0.88-1.55-1.23C155.53,545.94,153.11,545.45,150.62,544.65z"/>
	<path class="st19" d="M203.04,536.3c0.9-0.74,1.93-1.34,3.02-1.76c0.62-0.23,1.41-0.37,1.86,0.11c0.34,0.37,0.31,0.96,0.09,1.4
		c-0.23,0.44-0.62,0.77-0.99,1.1c-1.46,1.29-2.8,2.82-3.41,4.67c2.19,0.86,4.13,2.32,5.58,4.17c0.28,0.36,0.56,0.76,0.62,1.22
		c0.06,0.46-0.15,0.98-0.58,1.14c-0.26,0.1-0.55,0.04-0.83-0.01c-3.02-0.64-5.9-1.9-8.96-2.35c-1.01-0.15-2.17-0.28-2.74-1.13
		c-0.37-0.55-0.38-1.28-0.18-1.91c0.2-0.63,0.59-1.18,0.99-1.72C198.95,539.3,201.02,537.96,203.04,536.3z"/>
	<path class="st37" d="M231.45,614.71c-0.67,0.81-11.89,14.2-16.62,18.12c-1.71,1.41-4.14,2.64-3.98,3.2
		c0.19,0.66,2.29-0.33,2.87-0.69c3.62-2.27,5.89-5.63,7.66-7.41c3.49-3.49,4.41-4.92,10.15-11.33
		C231.55,616.52,232.74,614.98,231.45,614.71z"/>
	<path class="st37" d="M219.85,672.59c0.15-2.32,0.14-4.65-0.04-6.96c-0.02-0.25-0.09-0.56-0.33-0.63c-0.26-0.07-0.48,0.2-0.59,0.45
		c-0.26,0.58-0.37,1.22-0.45,1.86c-0.24,1.86-0.24,3.75-0.02,5.61c0.02,0.17,0.05,0.36,0.17,0.48c0.2,0.21,0.58,0.15,0.79-0.05
		C219.59,673.15,219.68,672.86,219.85,672.59z"/>
	<path class="st37" d="M111.17,648c-6.06-1.09-11.8-3.51-17.41-6.04c-3.66-1.65-7.29-3.37-10.77-5.38c-2.32-1.34-4.6-2.84-6.34-4.88
		c-0.26-0.3-0.52-0.63-0.88-0.79s-0.87-0.08-1.05,0.28c-0.12,0.25-0.05,0.55,0.05,0.8c0.38,0.94,1.14,1.66,1.91,2.32
		c4.14,3.5,9.1,5.86,14.01,8.18c5.38,2.54,10.79,5.1,16.55,6.59c1.1,0.29,2.25,0.53,3.37,0.37c0.3-0.04,0.62-0.13,0.82-0.36
		C111.62,648.86,111.62,648.45,111.17,648z"/>
	<path class="st37" d="M120.92,513.51c-1.7,0.29-3.1,1.46-4.4,2.59c-1.16,1-2.32,2-3.48,3.01c-0.14,0.12-0.3,0.25-0.49,0.28
		c-0.46,0.07-0.76-0.49-0.74-0.95c0.05-0.95,0.82-1.69,1.56-2.28c0.94-0.76,1.91-1.48,2.91-2.15c0.64-0.43,1.31-0.85,2.06-1.06
		C119.09,512.73,119.94,512.76,120.92,513.51z"/>
	<path class="st37" d="M162.83,502.9c5.08,0.16,10.14,0.75,15.12,1.75c1.99,0.4,4.1,0.94,5.5,2.41c-1.78,0.25-3.57-0.19-5.33-0.56
		c-5.81-1.21-11.77-1.69-17.69-1.41C161.15,504.48,161.8,503.79,162.83,502.9z"/>
	<path class="st37" d="M219.57,523.61c-2.18-2.87-4.79-5.41-7.71-7.5c-0.23-0.17-0.48-0.34-0.58-0.61c-0.1-0.26,0.01-0.63,0.29-0.69
		c0.13-0.02,0.25,0.02,0.37,0.07c3.17,1.21,5.47,3.96,7.62,6.59c0.21,0.26,0.43,0.53,0.54,0.84c0.25,0.7-0.07,1.48,0.07,2.21
		C220.03,524.39,220.01,524.18,219.57,523.61z"/>
	<g class="st10">
		<defs>
			<path id="SVGID_22_" d="M164.46,570.7c5.16,1.16,12.4,1.94,16.9,1.47c4.5-0.48,5.4-0.55,9.74-1.82c2.66-0.78,5.09-1.01,7.95-2.76
				c1.03-0.63,1.99-1.23,2.97-1.92c0.38,4.45,0.23,9.65,0.27,14.12c0.04,4.47-1.24,9.56-3.73,11.83c-2.35,2.14-5.14,3.86-9.22,4.68
				c-3.99,0.81-6.66,0.46-11.46-1.38c-2.22-0.85-6.11-2.99-8.77-6.98C165.71,582.83,165.61,579.18,164.46,570.7z"/>
		</defs>
		<clipPath id="SVGID_23_">
			<use xlink:href="#SVGID_22_"  style="overflow:visible;"/>
		</clipPath>
		<path class="st38" d="M164.46,570.7c5.16,1.16,12.4,1.94,16.9,1.47c4.5-0.48,5.4-0.55,9.74-1.82c2.66-0.78,5.09-1.01,7.95-2.76
			c1.03-0.63,1.99-1.23,2.97-1.92c0.38,4.45,0.23,9.65,0.27,14.12c0.04,4.47-1.24,9.56-3.73,11.83c-2.35,2.14-5.14,3.86-9.22,4.68
			c-3.99,0.81-6.66,0.46-11.46-1.38c-2.22-0.85-6.11-2.99-8.77-6.98C165.71,582.83,165.61,579.18,164.46,570.7z"/>
		<path class="st39" d="M173.46,595.46c-0.57-1.53-0.17-3.26,0.51-4.75c1.31-2.86,3.64-5.25,6.47-6.61c2-0.96,4.19-1.43,6.38-1.81
			c4.09-0.71,8.32-1.17,12.35-0.18c1.22,0.3,2.43,0.74,3.39,1.55c1.98,1.67,2.47,4.54,2.25,7.12c-0.11,1.35-0.4,2.72-1.11,3.87
			c-1.21,1.96-3.45,3.01-5.6,3.86c-3.82,1.51-7.77,2.74-11.85,3.17c-4.08,0.43-8.3,0.03-12.06-1.63"/>
	</g>
</g>
<g id="Layer_11" class="st0">
	<g class="st10">
		<g>
			<path class="st40" d="M345.25,157.29c0.1-2.58-0.29-5.01-0.74-7.56c-0.44-2.51-0.9-5.06-1.95-7.38
				c-2.98-6.6-7.18-13.38-13.99-15.86c-2.06-0.75-4.26-1.06-6.46-1.09c-6.14-0.08-12.28,2.12-16.98,6.07
				c-3.93,3.3-6.79,7.69-9.46,12.07c-3.39,5.55-6.61,11.26-8.73,17.41c-1.39,4.03-2.3,8.21-3.21,12.38c-0.52,2.4-1.04,4.8-1.56,7.2
				c-0.51,2.37-1.03,4.82-0.53,7.2c0.65,3.08,3.19,5.75,6.29,6.28c3.25,0.56,6.55-1.19,8.73-3.67c2.18-2.48,3.44-5.6,4.67-8.67
				c1.82-4.56,6.03-6.13,9.57-6.67c3.54-0.55,7.29,0.43,10.12,2.63c1.13,0.88,2.13,1.97,2.8,3.24c1.28,2.42,1.29,5.29,1.81,7.99
				c0.54,2.81,1.7,5.58,3.77,7.55s5.13,3.04,7.88,2.25c3.39-0.97,5.51-4.39,6.51-7.77c1.37-4.63,1.25-9.55,1.2-14.38
				C344.93,170.1,345.02,163.69,345.25,157.29z M327.63,148.08c-0.37,0.88-1.06,1.53-1.72,2.15c-0.79,0.74-1.57,1.47-2.36,2.21
				c-0.13,0.12-0.26,0.25-0.34,0.42c-0.22,0.48,0.11,1.01,0.4,1.41c0.86,1.19,1.52,2.57,1.93,4.06c0.15,0.54,0.27,1.1,0.21,1.67
				s-0.33,1.15-0.78,1.43c-0.74,0.45-1.6-0.05-2.24-0.6c-1.04-0.89-1.97-1.94-2.77-3.1c-0.41-0.59-0.89-1.28-1.57-1.23
				c-0.3,0.02-0.57,0.19-0.84,0.35c-1.56,0.94-3.12,1.88-4.67,2.82c-0.81,0.49-1.77,0.99-2.57,0.58c-0.9-0.46-1.1-1.88-0.7-2.95
				c0.4-1.07,1.23-1.85,2.03-2.59c0.82-0.76,0.68-0.6,1.75-1.52c0.61-0.52,1.77-1.3,1.64-1.99s-0.6-1.21-1.02-1.72
				c-0.82-0.99-1.53-2.1-2.11-3.29c-0.26-0.54-0.51-1.15-0.38-1.77c0.17-0.86,1.02-1.4,1.79-1.38s1.45,0.45,2.08,0.92
				c0.97,0.72,1.89,1.54,2.63,2.55c0.59,0.81,1.06,1.74,1.79,2.37c0.14,0.12,0.29,0.23,0.47,0.24c0.18,0.01,0.36-0.1,0.52-0.21
				c1.62-1.13,2.93-2.96,4.74-3.56c0.59-0.19,1.26-0.23,1.74,0.15C327.94,146.03,328,147.2,327.63,148.08z"/>
		</g>
	</g>
	<g class="st10">
		<g>
			<path class="st40" d="M271.6,160.14c-0.19-3.19-0.31-5.76-0.82-8.65c-0.73-4.13-1.76-6.09-2.76-8.72
				c-0.94-2.49-2.15-4.15-3.81-6.24c-2.13-2.69-4.93-4.35-7.97-5.96c-3.19-1.68-6.62-2.88-9.72-2.98
				c-6.06-0.2-11.73-0.39-17.32,1.96s-10.45,7.31-12.74,12.92c-2.53,6.21-1.58,13.22-0.6,19.85c1.41,9.52,2.39,18.99,4.1,28.46
				c0.62,3.45,0.99,5.67,2.66,7.68c2.51,3.03,7.21,2.74,10.6,0.74c2.41-1.43,2.83-5.4,2.55-9.63c-0.1-1.51-0.58-3.56-0.44-4.91
				c0.13-1.26,1.45-2.12,2.71-2.21s3.31,0.88,4.57,1.03c3.18,0.38,6.22-0.04,9.28-0.42c4.5-0.56,8.5-2.28,11.2-4.12
				c2.86-1.95,4.84-4.27,6.9-9.31C270.89,167.46,271.76,162.97,271.6,160.14z M251.68,161.96c-0.71,0.95-1.22,1.42-2.05,2.28
				c-0.49,0.52-1.87,1.39-2.54,1.63c-1.69,0.61-2.21,0.66-4.26,0.77c-0.88,0.05-1.58-0.2-2.71-0.44c-0.54-0.12-2.01-0.97-2.86-1.85
				c-0.95-0.99-1.46-1.73-2.12-2.93c-0.99-1.81-1.23-3.27-1.28-4.92c-0.02-0.68,0.09-1.35,0.28-2.01c-0.76-0.25-1.44-0.73-1.86-1.42
				c-0.73-1.19-0.55-2.88,0.46-3.85c0.32-0.31,0.71-0.54,1.1-0.75c0.45-0.23,0.92-0.43,1.41-0.51c1.1-0.18,2.25,0.36,2.92,1.24
				c0.51-0.41,1.04-0.78,1.64-1.03c1.23-0.51,3.04-0.72,4.16-0.68c0.77,0.03,1.66,0.31,2.58,0.76c0.23-0.55,0.62-1.04,1.07-1.43
				c0.43-0.37,0.94-0.68,1.51-0.72c0.5-0.04,0.98,0.13,1.44,0.33c0.54,0.23,1.08,0.49,1.49,0.91c0.81,0.83,0.97,2.18,0.53,3.25
				c-0.24,0.59-0.66,1.08-1.15,1.48c0.13,0.2,0.27,0.41,0.42,0.67c0.58,0.96,1.06,2.84,1.14,4
				C253.12,158.36,252.66,160.63,251.68,161.96z"/>
		</g>
	</g>
	<path class="st20" d="M376.35,173.75c1.23,5.46,1.86,11.06,1.88,16.66c0.01,1.57-0.08,3.27-1.09,4.47
		c-0.73,0.87-1.82,1.32-2.87,1.72c-2.24,0.84-4.68,1.56-7,1c-1.19-0.29-2.29-0.9-3.15-1.76c-1.69-1.68-2.36-4.1-2.93-6.42
		c-2.86-11.63-4.79-23.49-5.79-35.43c-0.35-4.18-0.58-8.45,0.41-12.52c0.99-4.08,3.37-8,7.1-9.93c4.18-2.16,9.39-1.46,13.57,0.7
		c4.18,2.16,7.53,5.61,10.73,9.07c4.43,4.79,8.71,9.71,12.84,14.75c0.64,0.78,1.38,1.62,2.38,1.74c1.08,0.13,2.11-0.68,2.55-1.68
		c0.45-1,0.43-2.13,0.35-3.22c-0.49-6.62-3.05-12.97-3.28-19.6c-0.06-1.78,0.05-3.59,0.66-5.26c1.07-2.96,3.76-5.28,6.85-5.89
		c3.09-0.61,6.47,0.54,8.54,2.91c2.41,2.77,2.87,6.67,3.23,10.32c1.24,12.65,4.1,24.85,3.12,37.52c-0.3,3.82-2.5,8.38-4.96,11.32
		c-3.28,3.91-9.03,4.79-14.07,4.03c-2.55-0.39-5.12-1.16-7.12-2.79c-1.84-1.49-3.96-3.71-5.49-5.51c-4.04-4.76-4.59-5.45-6.95-9.67
		c-2.3-4.1-4.49-8.34-7.75-10c-0.98-0.5-2.41-0.76-2.99,0.17c-0.26,0.41-0.25,0.94-0.23,1.43c0.07,1.81,0.29,4.79,0.52,6.58"/>
	<g class="st10">
		<g>
			<path class="st40" d="M497.48,155.08c-0.34-3.61-1.35-7.12-2.46-10.57c-1.81-5.66-4.02-11.42-8.25-15.58
				c-3.94-3.88-9.27-5.99-14.56-7.6c-2.96-0.9-6.01-1.68-9.1-1.53c-6.58,0.31-12.22,4.73-16.77,9.5c-2.91,3.05-5.04,6.15-5.93,9.9
				l-1.19,8.09c-1.58,10.28-3.09,20.57-4.52,30.87c-0.22,1.56-0.43,3.17-0.02,4.7c0.81,3.01,3.78,4.87,6.62,6.16
				c10.55,4.81,22.73,5.95,33.99,3.19c1.73-0.43,3.45-0.94,5.06-1.7c4.72-2.23,8.23-6.36,11.45-10.46c1.41-1.79,2.8-3.62,3.7-5.71
				c1.13-2.64,1.4-5.55,1.66-8.41C497.49,162.32,497.82,158.69,497.48,155.08z M479.26,151.35c-0.43,1.08-1.25,1.9-2.05,2.68
				c-0.94,0.92-1.88,1.84-2.82,2.76c-0.16,0.15-0.32,0.31-0.41,0.52c-0.26,0.6,0.15,1.24,0.5,1.72c1.06,1.44,1.88,3.12,2.4,4.93
				c0.19,0.65,0.34,1.34,0.28,2.04c-0.06,0.7-0.38,1.42-0.92,1.77c-0.89,0.57-1.94-0.03-2.72-0.69c-1.27-1.07-2.41-2.33-3.4-3.74
				c-0.5-0.72-1.1-1.55-1.92-1.47c-0.36,0.03-0.69,0.24-1.01,0.44c-1.87,1.19-3.75,2.37-5.62,3.56c-0.98,0.62-2.13,1.25-3.11,0.77
				c-1.09-0.54-1.36-2.28-0.89-3.6c0.47-1.32,1.46-2.3,2.42-3.22c0.99-0.95,0.81-0.75,2.1-1.9c0.73-0.65,2.13-1.63,1.96-2.47
				c-0.17-0.85-0.74-1.47-1.26-2.08c-1.01-1.2-1.89-2.54-2.61-3.99c-0.33-0.65-0.63-1.4-0.49-2.17c0.2-1.06,1.22-1.74,2.15-1.73
				c0.93,0,1.76,0.53,2.53,1.08c1.19,0.86,2.31,1.85,3.22,3.08c0.72,0.97,1.32,2.11,2.21,2.87c0.17,0.14,0.36,0.28,0.57,0.28
				c0.22,0,0.43-0.13,0.63-0.27c1.95-1.42,3.5-3.69,5.69-4.46c0.71-0.25,1.52-0.31,2.11,0.15
				C479.6,148.83,479.69,150.27,479.26,151.35z"/>
		</g>
	</g>
	<g class="st10">
		<g>
			<path class="st40" d="M576.49,173.35c-0.34-4.82-2.17-9.38-3.9-13.89c-2.3-5.98-4.46-12.02-6.47-18.1
				c-0.81-2.45-2.03-4.6-3.33-6.83c-1.29-2.2-2.62-4.43-4.41-6.23c-5.11-5.14-11.41-10.02-18.65-9.97
				c-2.19,0.02-4.37,0.49-6.43,1.23c-5.78,2.07-10.77,6.28-13.79,11.62c-2.53,4.47-3.67,9.58-4.64,14.62
				c-1.23,6.39-2.25,12.86-2.09,19.37c0.1,4.26,0.71,8.5,1.32,12.72c0.35,2.43,0.7,4.86,1.05,7.29c0.35,2.4,0.72,4.88,2.02,6.93
				c1.68,2.66,5,4.27,8.09,3.68c3.24-0.61,5.72-3.41,6.9-6.49c1.17-3.08,1.27-6.45,1.34-9.75c0.12-4.91,3.5-7.85,6.63-9.6
				c3.13-1.75,6.98-2.15,10.4-1.07c1.37,0.43,2.68,1.1,3.76,2.05c2.05,1.82,3.06,4.51,4.48,6.85c1.48,2.44,3.54,4.63,6.17,5.76
				c2.63,1.13,5.87,1.05,8.17-0.65C575.95,180.81,576.74,176.87,576.49,173.35z M548.56,152.32c-0.54,0.68-1.52,0.51-2.31,0.22
				c-1.28-0.47-2.52-1.13-3.68-1.94c-0.59-0.41-1.28-0.89-1.9-0.6c-0.27,0.12-0.47,0.38-0.67,0.62c-1.13,1.43-2.26,2.85-3.39,4.28
				c-0.59,0.74-1.31,1.55-2.21,1.45c-1-0.11-1.69-1.38-1.68-2.52c0-1.14,0.51-2.17,1-3.14c0.51-1,0.43-0.8,1.11-2.04
				c0.38-0.7,1.21-1.83,0.84-2.44c-0.37-0.6-0.98-0.92-1.56-1.25c-1.11-0.64-2.17-1.43-3.13-2.34c-0.44-0.41-0.88-0.9-0.98-1.53
				c-0.14-0.87,0.47-1.67,1.19-1.92c0.72-0.25,1.52-0.08,2.27,0.14c1.16,0.34,2.31,0.78,3.35,1.47c0.83,0.55,1.6,1.26,2.51,1.59
				c0.17,0.06,0.36,0.11,0.52,0.06c0.17-0.06,0.3-0.22,0.41-0.38c1.13-1.62,1.71-3.79,3.2-4.99c0.48-0.39,1.1-0.66,1.68-0.47
				c0.81,0.26,1.28,1.34,1.24,2.29c-0.04,0.95-0.45,1.8-0.86,2.62c-0.48,0.96-0.96,1.93-1.44,2.89c-0.08,0.16-0.16,0.32-0.17,0.51
				c-0.04,0.53,0.45,0.91,0.87,1.18c1.22,0.82,2.32,1.88,3.23,3.13c0.33,0.45,0.64,0.94,0.78,1.49
				C548.94,151.27,548.89,151.91,548.56,152.32z"/>
		</g>
	</g>
	<g class="st10">
		<g>
			<path class="st40" d="M483.06,230.26c-1.1-3.58-3.13-6.82-5.53-9.7c-6.01-7.24-14.87-12.51-25.29-11.71
				c-4.06-0.51-8.21,0.78-11.64,3.01c-3.43,2.24-6.19,5.37-8.52,8.73c-1.98,2.86-3.69,5.93-4.79,9.23
				c-3.31,9.96-2.73,17.11,1.37,28.06c1.03,2.75,4.88,7.85,7.19,9.67c2.05,1.62,6.58,4.47,13.72,5.76
				c9.18,1.65,14.07-0.65,17.68-1.88c3.12-1.06,6-3.39,8.49-5.76c1.97-1.88,4.2-5.79,5.57-8.15c2.92-4.99,2.57-10.21,2.83-15.98
				C484.31,237.75,484.18,233.89,483.06,230.26z M466.58,235.18c-0.37,0.65-0.92,1.16-1.56,1.56c0.12,0.25,0.25,0.52,0.39,0.85
				c0.54,1.2,0.82,3.46,0.75,4.82c-0.1,1.93-0.96,4.51-2.31,5.91c-0.97,1.01-1.63,1.47-2.71,2.35c-0.65,0.53-2.38,1.35-3.2,1.53
				c-2.05,0.47-2.66,0.44-5.07,0.28c-1.04-0.07-1.81-0.46-3.09-0.91c-0.62-0.22-2.2-1.42-3.06-2.57c-0.97-1.3-1.44-2.22-2.04-3.73
				c-0.89-2.25-0.95-3.98-0.77-5.92c0.08-0.79,0.3-1.56,0.62-2.3c-0.85-0.4-1.57-1.06-1.96-1.92c-0.67-1.5-0.22-3.44,1.09-4.42
				c0.42-0.31,0.9-0.53,1.39-0.71c0.55-0.21,1.13-0.37,1.72-0.39c1.31-0.04,2.56,0.75,3.21,1.87c0.65-0.41,1.33-0.76,2.06-0.96
				c1.5-0.42,3.64-0.39,4.94-0.18c0.89,0.14,1.88,0.6,2.89,1.26c0.35-0.6,0.87-1.12,1.46-1.51c0.55-0.37,1.2-0.65,1.86-0.62
				c0.58,0.03,1.13,0.3,1.63,0.59c0.6,0.34,1.19,0.73,1.6,1.28C467.27,232.41,467.26,234,466.58,235.18z"/>
		</g>
	</g>
	<g class="st10">
		<g>
			<path class="st40" d="M470.19,288.64c-3.02-3.63-8.62-3.18-13.27-2.4c-3.57,0.59-7.13,1.19-10.7,1.78
				c-2.61,0.43-6.38-0.03-8.93-0.73c-3.22-0.88-6.86-4.61-8.37-6.1c-9.34-9.29-16.36-18.27-24.94-28.27
				c1.53-3.96,2.93-8.02,3.35-12.25s0.38-9.01-1.89-12.6c-2.33-3.68-4.05-5.67-7.87-7.76c-2.37-1.3-5.87-3.2-8.52-3.71
				c-2.7-0.53-6.12-0.98-9.54-0.97c-4.07,0-10.1,2.2-13.42,5.25c-3.32,3.05-3.67,9.51-1.45,20.46c3.26,16.08,3.78,23.79,7.31,35.28
				c1.02,3.33,2.69,6.95,5.98,8.07c1.48,0.51,3.09,0.42,4.64,0.18c1.71-0.27,3.44-0.75,4.82-1.81c2.21-1.69,3.17-4.63,3.14-7.41
				c-0.03-2.78-0.92-5.47-1.8-8.11c0.64-0.23,1.27-0.46,2.33-1.04c8.27,9.93,17,19.49,26.15,28.62c3.83,3.83,7.83,7.64,12.71,9.99
				c8.54,4.11,18.65,3.17,27.83,0.79c4.12-1.07,8.35-2.53,11.24-5.64C471.89,297.13,472.91,291.91,470.19,288.64z M392.38,244.52
				c-0.85,0.09-1.7-0.23-2.46-0.64c-0.76-0.41-1.47-0.91-2.27-1.22c-0.2-0.08-0.42-0.14-0.63-0.1c-0.21,0.05-0.38,0.2-0.54,0.35
				c-0.82,0.79-1.51,1.7-2.23,2.58c-0.4,0.48-0.82,0.96-1.37,1.27c-0.55,0.3-1.25,0.4-1.79,0.09c-0.83-0.47-0.96-1.64-0.73-2.57
				c0.37-1.5,1.36-2.76,2.23-4.03c0.23-0.33,0.46-0.72,0.37-1.12c-0.08-0.35-0.39-0.59-0.68-0.8c-0.61-0.44-1.21-0.88-1.82-1.33
				c-0.8-0.58-1.64-1.22-1.99-2.15c-0.08-0.21-0.13-0.44-0.07-0.66c0.11-0.44,0.61-0.67,1.06-0.76c2.28-0.48,4.53,0.77,6.52,1.97
				c0.41,0.25,0.67-0.12,0.82-0.49c0.27-0.67,0.6-1.31,0.98-1.92c0.47-0.74,1.06-1.47,1.89-1.76c0.83-0.29,1.92,0.07,2.17,0.91
				c0.09,0.31,0.06,0.65,0.01,0.97c-0.29,1.77-1.2,3.36-2.09,4.91c-0.08,0.13-0.16,0.28-0.13,0.43c0.03,0.18,0.19,0.29,0.34,0.39
				c0.78,0.51,1.56,1.03,2.35,1.54c0.94,0.61,1.99,1.47,1.86,2.58C394.08,243.81,393.23,244.43,392.38,244.52z"/>
		</g>
	</g>
	<g class="st10">
		<g>
			<path class="st40" d="M352.3,234.99c-0.48-2.62-1.37-4.47-2.62-6.82c-1.61-3.04-4.06-5.17-6.76-7.3
				c-2.83-2.23-5.99-4.03-9.02-4.68c-5.92-1.29-11.47-2.5-17.39-1.21s-11.6,5.3-14.86,10.41c-3.61,5.65-3.95,12.71-4.18,19.42
				c-0.33,9.62-1.09,19.11-1.11,28.73c-0.01,3.5-0.05,5.75,1.23,8.04c1.92,3.44,6.6,4,10.29,2.64c2.63-0.97,3.76-4.8,4.24-9.01
				c0.17-1.5,0.08-3.61,0.46-4.91c0.35-1.22,1.81-1.82,3.07-1.68c1.26,0.14,3.1,1.46,4.31,1.84c3.06,0.95,6.13,1.09,9.2,1.27
				c4.53,0.26,8.77-0.71,11.76-2.03c3.17-1.4,5.54-3.32,8.47-7.91c1.27-1.99,2.95-6.26,3.3-9.07c0.39-3.17,0.73-5.72,0.76-8.65
				C353.47,239.87,352.81,237.76,352.3,234.99z M335.72,239.86c-0.35,0.53-0.84,0.94-1.4,1.25c0.09,0.22,0.19,0.46,0.29,0.74
				c0.4,1.05,0.53,2.98,0.4,4.14c-0.18,1.64-1.04,3.79-2.25,4.92c-0.87,0.81-1.46,1.17-2.42,1.87c-0.58,0.42-2.09,1.03-2.8,1.15
				c-1.77,0.3-2.29,0.25-4.33-0.01c-0.88-0.11-1.52-0.48-2.59-0.93c-0.51-0.21-1.8-1.32-2.48-2.34c-0.76-1.15-1.12-1.96-1.55-3.27
				c-0.65-1.96-0.61-3.44-0.36-5.07c0.1-0.67,0.33-1.32,0.64-1.93c-0.7-0.38-1.29-0.98-1.57-1.73c-0.5-1.31-0.02-2.94,1.15-3.71
				c0.37-0.25,0.79-0.41,1.22-0.54c0.48-0.15,0.98-0.26,1.48-0.25c1.11,0.03,2.14,0.76,2.64,1.75c0.57-0.32,1.17-0.58,1.8-0.72
				c1.3-0.28,3.11-0.15,4.21,0.08c0.75,0.16,1.57,0.61,2.4,1.21c0.33-0.5,0.8-0.91,1.31-1.21c0.49-0.28,1.05-0.49,1.61-0.43
				c0.49,0.05,0.94,0.31,1.36,0.58c0.49,0.32,0.97,0.68,1.3,1.17C336.44,237.54,336.36,238.89,335.72,239.86z"/>
		</g>
	</g>
</g>
<g id="Layer_10_copy" class="st0">
	<g class="st10">
		<path class="st40" d="M211.58,236.94v10.88c0,1.39-1.13,2.53-2.53,2.53h-0.58c-1.39,0-2.53-1.13-2.53-2.53v-10.88
			c0-1.39,1.13-2.53,2.53-2.53h0.58C210.45,234.41,211.58,235.55,211.58,236.94z"/>
		<path class="st40" d="M203.32,239.57l10.88,0c1.39,0,2.53,1.13,2.53,2.53v0.58c0,1.39-1.13,2.53-2.53,2.53l-10.88,0
			c-1.39,0-2.53-1.13-2.53-2.53v-0.58C200.8,240.7,201.93,239.57,203.32,239.57z"/>
	</g>
	<g class="st10">
		<path class="st40" d="M553.85,247.14v10.88c0,1.39-1.13,2.53-2.53,2.53h-0.58c-1.39,0-2.53-1.13-2.53-2.53v-10.88
			c0-1.39,1.13-2.53,2.53-2.53h0.58C552.72,244.62,553.85,245.75,553.85,247.14z"/>
		<path class="st40" d="M545.6,249.77h10.88c1.39,0,2.53,1.13,2.53,2.53v0.58c0,1.39-1.13,2.53-2.53,2.53H545.6
			c-1.39,0-2.53-1.13-2.53-2.53v-0.58C543.07,250.9,544.2,249.77,545.6,249.77z"/>
	</g>
	<g class="st10">
		<path class="st40" d="M467.62,69.72V80.6c0,1.39-1.13,2.53-2.53,2.53h-0.58c-1.39,0-2.53-1.13-2.53-2.53V69.72
			c0-1.39,1.13-2.53,2.53-2.53h0.58C466.49,67.2,467.62,68.33,467.62,69.72z"/>
		<path class="st40" d="M459.37,72.35l10.88,0c1.39,0,2.53,1.13,2.53,2.53v0.58c0,1.39-1.13,2.53-2.53,2.53h-10.88
			c-1.39,0-2.53-1.13-2.53-2.53v-0.58C456.84,73.48,457.97,72.35,459.37,72.35z"/>
	</g>
	<g class="st10">
		<path class="st40" d="M601.88,306.82v-5c0-1.04,0.84-1.88,1.88-1.88l0,0c1.04,0,1.88,0.84,1.88,1.88v5c0,1.04-0.84,1.88-1.88,1.88
			l0,0C602.72,308.69,601.88,307.85,601.88,306.82z"/>
		<path class="st40" d="M592.69,300.01l3.91-3.12c0.81-0.65,1.99-0.51,2.64,0.3l0,0c0.65,0.81,0.51,1.99-0.3,2.64l-3.91,3.12
			c-0.81,0.65-1.99,0.51-2.63-0.3l0,0C591.75,301.84,591.88,300.66,592.69,300.01z"/>
		<path class="st40" d="M592.27,288.59l4.87,1.11c1.01,0.23,1.64,1.24,1.41,2.25l0,0c-0.23,1.01-1.24,1.64-2.25,1.41l-4.87-1.11
			c-1.01-0.23-1.64-1.24-1.41-2.25l0,0C590.26,288.99,591.27,288.36,592.27,288.59z"/>
		<path class="st40" d="M600.95,281.14l2.17,4.5c0.45,0.93,0.06,2.05-0.88,2.5l0,0c-0.93,0.45-2.05,0.06-2.5-0.88l-2.17-4.5
			c-0.45-0.93-0.06-2.05,0.88-2.5v0C599.38,279.81,600.5,280.21,600.95,281.14z"/>
		<path class="st40" d="M612.18,283.28l-2.17,4.5c-0.45,0.93-1.57,1.33-2.5,0.88l0,0c-0.93-0.45-1.33-1.57-0.88-2.5l2.17-4.5
			c0.45-0.93,1.57-1.33,2.5-0.88l0,0C612.24,281.22,612.63,282.34,612.18,283.28z"/>
		<path class="st40" d="M617.51,293.39l-4.87,1.11c-1.01,0.23-2.01-0.4-2.25-1.41v0c-0.23-1.01,0.4-2.01,1.41-2.25l4.87-1.11
			c1.01-0.23,2.01,0.4,2.25,1.41v0C619.16,292.16,618.52,293.16,617.51,293.39z"/>
		<path class="st40" d="M612.93,303.87l-3.91-3.12c-0.81-0.65-0.94-1.83-0.3-2.64l0,0c0.65-0.81,1.83-0.94,2.64-0.3l3.91,3.12
			c0.81,0.65,0.94,1.83,0.3,2.64l0,0C614.92,304.38,613.74,304.51,612.93,303.87z"/>
	</g>
	<g class="st10">
		<path class="st40" d="M196.04,104.68v-5.25c0-1.1,0.9-2,2-2h0c1.1,0,2,0.9,2,2v5.25c0,1.1-0.9,2-2,2h0
			C196.93,106.68,196.04,105.79,196.04,104.68z"/>
		<path class="st40" d="M186.48,97.89l4.1-3.27c0.86-0.69,2.12-0.55,2.81,0.32l0,0c0.69,0.86,0.55,2.12-0.32,2.81l-4.1,3.27
			c-0.86,0.69-2.12,0.55-2.81-0.32l0,0C185.47,99.84,185.61,98.58,186.48,97.89z"/>
		<path class="st40" d="M185.82,86.19l5.12,1.17c1.08,0.25,1.75,1.32,1.5,2.39v0c-0.25,1.08-1.32,1.75-2.39,1.5l-5.12-1.17
			c-1.08-0.25-1.75-1.32-1.5-2.39v0C183.67,86.62,184.75,85.94,185.82,86.19z"/>
		<path class="st40" d="M194.57,78.38l2.28,4.73c0.48,1,0.06,2.19-0.93,2.67h0c-1,0.48-2.19,0.06-2.67-0.93l-2.28-4.73
			c-0.48-1-0.06-2.19,0.93-2.67l0,0C192.89,76.96,194.09,77.38,194.57,78.38z"/>
		<path class="st40" d="M206.13,80.34l-2.28,4.73c-0.48,1-1.67,1.41-2.67,0.93v0c-1-0.48-1.41-1.67-0.93-2.67l2.28-4.73
			c0.48-1,1.67-1.41,2.67-0.93l0,0C206.19,78.15,206.6,79.35,206.13,80.34z"/>
		<path class="st40" d="M211.79,90.61l-5.12,1.17c-1.08,0.25-2.15-0.43-2.39-1.5l0,0c-0.25-1.08,0.43-2.15,1.5-2.39l5.12-1.17
			c1.08-0.25,2.15,0.43,2.39,1.5l0,0C213.54,89.29,212.87,90.36,211.79,90.61z"/>
		<path class="st40" d="M207.31,101.44l-4.1-3.27c-0.86-0.69-1.01-1.95-0.32-2.81v0c0.69-0.86,1.95-1.01,2.81-0.32l4.1,3.27
			c0.86,0.69,1.01,1.95,0.32,2.81l0,0C209.43,101.99,208.17,102.13,207.31,101.44z"/>
	</g>
	<g class="st10">
		<path class="st40" d="M523.69,53.72v-5.5c0-0.97,0.78-1.75,1.75-1.75l0,0c0.97,0,1.75,0.78,1.75,1.75v5.5
			c0,0.97-0.78,1.75-1.75,1.75l0,0C524.47,55.47,523.69,54.69,523.69,53.72z"/>
		<path class="st40" d="M513.94,47.32l4.3-3.43c0.76-0.6,1.86-0.48,2.46,0.28v0c0.6,0.76,0.48,1.86-0.28,2.46l-4.3,3.43
			c-0.76,0.6-1.86,0.48-2.46-0.28v0C513.06,49.03,513.18,47.93,513.94,47.32z"/>
		<path class="st40" d="M512.86,35.71l5.36,1.22c0.94,0.22,1.53,1.15,1.32,2.1v0c-0.22,0.94-1.15,1.53-2.1,1.32l-5.36-1.22
			c-0.94-0.22-1.53-1.15-1.32-2.1v0C510.98,36.09,511.92,35.5,512.86,35.71z"/>
		<path class="st40" d="M521.26,27.63l2.39,4.96c0.42,0.87,0.05,1.92-0.82,2.34l0,0c-0.87,0.42-1.92,0.05-2.34-0.82l-2.39-4.96
			c-0.42-0.87-0.05-1.92,0.82-2.34v0C519.8,26.4,520.85,26.76,521.26,27.63z"/>
		<path class="st40" d="M532.82,29.17l-2.39,4.96c-0.42,0.87-1.47,1.24-2.34,0.82l0,0c-0.87-0.42-1.24-1.47-0.82-2.34l2.39-4.96
			c0.42-0.87,1.47-1.24,2.34-0.82v0C532.88,27.25,533.24,28.3,532.82,29.17z"/>
		<path class="st40" d="M538.83,39.16l-5.36,1.22c-0.94,0.22-1.88-0.37-2.1-1.32v0c-0.22-0.94,0.37-1.88,1.32-2.1l5.36-1.22
			c0.94-0.22,1.88,0.37,2.1,1.32v0C540.36,38.01,539.77,38.94,538.83,39.16z"/>
		<path class="st40" d="M534.76,50.09l-4.3-3.43c-0.76-0.6-0.88-1.7-0.28-2.46v0c0.6-0.76,1.7-0.88,2.46-0.28l4.3,3.43
			c0.76,0.6,0.88,1.7,0.28,2.46v0C536.62,50.56,535.52,50.69,534.76,50.09z"/>
	</g>
	<circle class="st41" cx="232.05" cy="273.89" r="4.04"/>
	<circle class="st41" cx="589.53" cy="227.38" r="4.04"/>
	<circle class="st41" cx="256.88" cy="54.36" r="4.04"/>
	<circle class="st41" cx="579.95" cy="58.4" r="4.04"/>
	<circle class="st42" cx="248.33" cy="238.05" r="0.12"/>
	<circle class="st42" cx="304.66" cy="76.04" r="0.12"/>
</g>
<g id="Layer_11_copy">
	<g>
		<g>
			<path class="st43" d="M287.74,293.22c-0.96-5.5-1.98-11.11-4.28-16.19c-6.55-14.49-15.76-29.35-30.69-34.8
				c-4.52-1.65-9.35-2.33-14.16-2.39c-13.47-0.17-26.94,4.64-37.26,13.31c-8.63,7.25-14.89,16.87-20.75,26.49
				c-7.43,12.19-14.5,24.71-19.16,38.2c-3.06,8.84-5.05,18.01-7.04,27.16c-1.14,5.27-2.29,10.53-3.43,15.8
				c-1.13,5.2-2.26,10.58-1.17,15.79c1.42,6.76,7,12.61,13.8,13.78c7.13,1.22,14.37-2.61,19.15-8.05
				c4.78-5.43,7.55-12.29,10.24-19.01c4-9.99,13.22-13.44,20.99-14.64s16,0.94,22.2,5.77c2.49,1.94,4.68,4.31,6.15,7.1
				c2.82,5.32,2.84,11.61,3.96,17.52c1.17,6.16,3.73,12.24,8.26,16.57c4.53,4.34,11.26,6.66,17.29,4.93
				c7.44-2.13,12.09-9.62,14.29-17.04c3.01-10.16,2.74-20.95,2.64-31.54c-0.14-14.06,0.06-28.12,0.58-42.16
				C289.56,304.13,288.71,298.8,287.74,293.22z M250.7,289.59c-0.81,1.93-2.31,3.36-3.77,4.72c-1.73,1.61-3.45,3.23-5.18,4.84
				c-0.28,0.27-0.58,0.54-0.75,0.91c-0.49,1.06,0.24,2.22,0.87,3.1c1.88,2.62,3.32,5.65,4.24,8.9c0.33,1.18,0.59,2.41,0.46,3.66
				c-0.13,1.25-0.72,2.53-1.71,3.14c-1.62,0.99-3.51-0.12-4.9-1.32c-2.27-1.96-4.31-4.25-6.07-6.8c-0.89-1.3-1.96-2.8-3.45-2.7
				c-0.65,0.05-1.26,0.41-1.85,0.76c-3.42,2.06-6.84,4.13-10.25,6.19c-1.78,1.08-3.88,2.18-5.65,1.28c-1.97-1-2.41-4.13-1.53-6.47
				s2.7-4.06,4.45-5.68c1.81-1.67,1.49-1.31,3.84-3.34c1.33-1.15,3.89-2.84,3.6-4.36c-0.29-1.52-1.31-2.65-2.24-3.77
				c-1.8-2.17-3.36-4.6-4.64-7.22c-0.58-1.18-1.12-2.53-0.84-3.89c0.38-1.88,2.25-3.07,3.93-3.03c1.68,0.04,3.18,1,4.56,2.02
				c2.13,1.58,4.14,3.38,5.76,5.6c1.29,1.77,2.33,3.81,3.93,5.2c0.3,0.26,0.64,0.51,1.03,0.52c0.4,0.01,0.79-0.22,1.14-0.47
				c3.56-2.47,6.43-6.49,10.4-7.8c1.29-0.43,2.76-0.51,3.82,0.33C251.37,285.09,251.5,287.66,250.7,289.59z"/>
		</g>
	</g>
	<g>
		<g>
			<path class="st43" d="M127.77,316.05c-0.41-7-0.68-12.63-1.81-18.97c-1.6-9.07-3.87-13.36-6.05-19.13
				c-2.07-5.46-4.73-9.1-8.35-13.68c-4.68-5.91-10.81-9.55-17.48-13.06c-7-3.69-14.51-6.31-21.31-6.53
				c-13.28-0.43-25.74-0.85-37.99,4.3s-22.93,16.04-27.94,28.35c-5.55,13.62-3.48,29-1.32,43.55c3.1,20.89,5.24,41.66,9.01,62.44
				c1.37,7.56,2.18,12.43,5.84,16.85c5.51,6.65,15.82,6.02,23.25,1.62c5.28-3.13,6.22-11.85,5.58-21.12
				c-0.23-3.31-1.26-7.82-0.96-10.78c0.28-2.77,3.17-4.65,5.95-4.85c2.77-0.2,7.26,1.93,10.02,2.26c6.98,0.84,13.65-0.08,20.36-0.92
				c9.87-1.24,18.65-5,24.57-9.04c6.28-4.28,10.62-9.37,15.13-20.42C126.21,332.12,128.13,322.25,127.77,316.05z M84.07,320.04
				c-1.56,2.09-2.68,3.11-4.49,4.99c-1.08,1.13-4.11,3.05-5.58,3.58c-3.7,1.35-4.84,1.44-9.34,1.69c-1.94,0.11-3.47-0.43-5.95-0.97
				c-1.19-0.26-4.42-2.13-6.28-4.07c-2.09-2.18-3.19-3.79-4.65-6.44c-2.18-3.97-2.69-7.17-2.8-10.8c-0.04-1.49,0.17-2.98,0.59-4.42
				c-1.66-0.54-3.15-1.61-4.06-3.1c-1.59-2.62-1.2-6.33,1-8.46c0.7-0.68,1.55-1.19,2.41-1.64c0.98-0.51,2.01-0.95,3.1-1.13
				c2.41-0.39,4.93,0.78,6.4,2.71c1.11-0.91,2.28-1.71,3.59-2.26c2.69-1.13,6.66-1.57,9.12-1.49c1.68,0.06,3.62,0.68,5.65,1.65
				c0.51-1.2,1.37-2.27,2.37-3.13c0.94-0.81,2.07-1.48,3.31-1.57c1.09-0.08,2.16,0.29,3.16,0.72c1.19,0.5,2.37,1.08,3.27,2
				c1.78,1.82,2.13,4.77,1.15,7.13c-0.54,1.29-1.43,2.38-2.51,3.26c0.28,0.43,0.58,0.91,0.92,1.47c1.27,2.1,2.32,6.22,2.5,8.77
				C87.23,312.15,86.24,317.13,84.07,320.04z"/>
		</g>
	</g>
	<path class="st43" d="M357.57,345.91c2.69,11.99,4.08,24.27,4.13,36.55c0.02,3.44-0.18,7.17-2.39,9.81
		c-1.59,1.9-3.99,2.9-6.31,3.78c-4.92,1.85-10.26,3.41-15.36,2.18c-2.6-0.63-5.02-1.98-6.92-3.86c-3.71-3.68-5.18-9-6.43-14.08
		c-6.26-25.52-10.52-51.54-12.71-77.72c-0.77-9.17-1.27-18.53,0.91-27.47c2.17-8.94,7.4-17.55,15.58-21.77
		c9.17-4.74,20.59-3.21,29.76,1.54s16.52,12.31,23.53,19.89c9.71,10.5,19.11,21.29,28.17,32.36c1.4,1.71,3.02,3.56,5.21,3.83
		c2.38,0.29,4.63-1.5,5.6-3.68c0.98-2.19,0.94-4.68,0.77-7.07c-1.07-14.51-6.69-28.46-7.19-43c-0.13-3.9,0.12-7.87,1.45-11.54
		c2.36-6.49,8.25-11.59,15.03-12.92s14.19,1.17,18.72,6.39c5.28,6.07,6.29,14.64,7.08,22.65c2.72,27.74,8.98,54.51,6.84,82.3
		c-0.65,8.38-5.48,18.39-10.88,24.83c-7.19,8.58-19.8,10.52-30.87,8.84c-5.6-0.85-11.24-2.55-15.63-6.12
		c-4.03-3.27-8.69-8.14-12.05-12.09c-8.85-10.43-10.07-11.96-15.25-21.21c-5.04-8.99-9.85-18.3-17.01-21.93
		c-2.15-1.09-5.28-1.66-6.57,0.38c-0.57,0.91-0.55,2.06-0.52,3.13c0.14,3.97,0.63,10.51,1.14,14.44"/>
	<g>
		<g>
			<path class="st43" d="M623.3,304.95c-0.75-7.92-2.96-15.62-5.39-23.19c-3.97-12.41-8.82-25.05-18.11-34.18
				c-8.65-8.5-20.33-13.14-31.93-16.66c-6.49-1.97-13.19-3.68-19.97-3.36c-14.43,0.69-26.82,10.38-36.79,20.84
				c-6.38,6.69-11.06,13.49-13,21.72l-2.61,17.76c-3.47,22.55-6.78,45.13-9.91,67.73c-0.48,3.43-0.94,6.97-0.04,10.31
				c1.78,6.6,8.3,10.67,14.52,13.51c23.14,10.55,49.87,13.05,74.57,6.99c3.8-0.93,7.56-2.07,11.1-3.74
				c10.36-4.88,18.05-13.95,25.13-22.95c3.08-3.92,6.15-7.93,8.11-12.52c2.48-5.79,3.08-12.18,3.64-18.45
				C623.33,320.83,624.05,312.86,623.3,304.95z M583.33,296.77c-0.95,2.38-2.75,4.17-4.5,5.87c-2.07,2.02-4.13,4.03-6.2,6.05
				c-0.34,0.33-0.69,0.68-0.89,1.14c-0.57,1.31,0.32,2.71,1.11,3.78c2.32,3.17,4.12,6.85,5.27,10.82c0.42,1.43,0.76,2.94,0.62,4.48
				s-0.83,3.12-2.02,3.88c-1.95,1.25-4.25-0.07-5.96-1.52c-2.78-2.35-5.29-5.12-7.46-8.21c-1.1-1.57-2.41-3.4-4.22-3.23
				c-0.79,0.07-1.52,0.53-2.22,0.97c-4.11,2.6-8.22,5.21-12.33,7.81c-2.14,1.36-4.67,2.75-6.82,1.69c-2.4-1.18-2.99-5.01-1.96-7.9
				c1.03-2.89,3.21-5.04,5.31-7.06c2.17-2.09,1.78-1.64,4.6-4.18c1.59-1.43,4.67-3.57,4.3-5.43c-0.37-1.86-1.63-3.23-2.77-4.57
				c-2.21-2.63-4.14-5.57-5.73-8.75c-0.72-1.44-1.39-3.07-1.08-4.75c0.43-2.32,2.68-3.81,4.71-3.8s3.87,1.15,5.55,2.38
				c2.6,1.89,5.07,4.06,7.07,6.75c1.59,2.14,2.89,4.62,4.85,6.29c0.37,0.32,0.79,0.61,1.26,0.62c0.49,0.01,0.95-0.29,1.37-0.6
				c4.28-3.11,7.69-8.09,12.47-9.79c1.56-0.55,3.33-0.68,4.63,0.33C584.08,291.25,584.28,294.39,583.33,296.77z"/>
		</g>
	</g>
	<g>
		<g>
			<path class="st43" d="M796.64,345.03c-0.74-10.57-4.75-20.58-8.55-30.47c-5.04-13.12-9.78-26.36-14.2-39.71
				c-1.78-5.38-4.45-10.08-7.31-14.97c-2.82-4.82-5.74-9.71-9.67-13.67c-11.2-11.28-25.02-21.99-40.92-21.87
				c-4.81,0.03-9.58,1.08-14.1,2.71c-12.68,4.55-23.62,13.77-30.25,25.49c-5.55,9.81-8.05,21.01-10.18,32.07
				c-2.7,14.02-4.94,28.22-4.59,42.49c0.23,9.35,1.57,18.64,2.9,27.9c0.77,5.33,1.54,10.67,2.31,16c0.76,5.26,1.58,10.7,4.42,15.2
				c3.69,5.84,10.97,9.37,17.75,8.08c7.11-1.35,12.55-7.47,15.13-14.23s2.78-14.16,2.95-21.39c0.26-10.76,7.68-17.22,14.55-21.06
				s15.32-4.71,22.82-2.36c3.01,0.95,5.89,2.4,8.25,4.5c4.5,4,6.72,9.89,9.84,15.03c3.25,5.36,7.77,10.16,13.53,12.64
				c5.76,2.48,12.87,2.3,17.92-1.42C795.44,361.39,797.17,352.75,796.64,345.03z M735.37,298.9c-1.17,1.49-3.33,1.11-5.06,0.47
				c-2.81-1.04-5.53-2.47-8.06-4.25c-1.29-0.9-2.81-1.94-4.17-1.32c-0.59,0.27-1.04,0.82-1.46,1.36c-2.48,3.13-4.96,6.26-7.44,9.39
				c-1.29,1.63-2.88,3.4-4.84,3.17c-2.19-0.25-3.7-3.02-3.7-5.53c0.01-2.5,1.11-4.75,2.19-6.88c1.11-2.2,0.93-1.75,2.43-4.47
				c0.84-1.54,2.65-4.02,1.85-5.35c-0.8-1.32-2.16-2.03-3.41-2.75c-2.44-1.41-4.75-3.14-6.87-5.14c-0.96-0.9-1.93-1.98-2.15-3.35
				c-0.3-1.9,1.03-3.66,2.62-4.21c1.58-0.55,3.33-0.18,4.97,0.3c2.54,0.74,5.06,1.72,7.35,3.24c1.82,1.21,3.52,2.75,5.51,3.5
				c0.37,0.14,0.78,0.25,1.15,0.13c0.38-0.13,0.66-0.48,0.9-0.84c2.47-3.56,3.75-8.32,7.01-10.94c1.06-0.85,2.4-1.44,3.69-1.02
				c1.79,0.58,2.81,2.94,2.73,5.03s-0.99,3.96-1.88,5.74c-1.05,2.12-2.11,4.23-3.16,6.35c-0.17,0.35-0.35,0.71-0.38,1.12
				c-0.08,1.16,1,1.99,1.9,2.6c2.68,1.79,5.09,4.13,7.08,6.86c0.72,0.99,1.4,2.05,1.72,3.27
				C736.19,296.58,736.09,297.99,735.37,298.9z"/>
		</g>
	</g>
	<g>
		<g>
			<path class="st43" d="M591.67,469.88c-2.42-7.85-6.87-14.96-12.12-21.28c-13.17-15.87-32.61-27.45-55.47-25.68
				c-8.91-1.11-18.02,1.71-25.54,6.61c-7.52,4.9-13.58,11.78-18.7,19.15c-4.35,6.27-8.1,13.01-10.5,20.25
				c-7.26,21.85-6,37.53,3,61.55c2.26,6.03,10.71,17.21,15.76,21.21c4.5,3.56,14.43,9.81,30.09,12.63
				c20.14,3.62,30.86-1.44,38.78-4.12c6.84-2.32,13.17-7.43,18.63-12.64c4.33-4.13,9.21-12.7,12.23-17.87
				c6.4-10.95,5.63-22.39,6.21-35.06C594.41,486.31,594.12,477.84,591.67,469.88z M555.52,480.68c-0.81,1.42-2.01,2.57-3.4,3.43
				c0.26,0.54,0.54,1.14,0.85,1.84c1.17,2.63,1.8,7.59,1.64,10.57c-0.23,4.24-2.11,9.9-5.06,12.96c-2.12,2.21-3.58,3.22-5.95,5.16
				c-1.42,1.16-5.23,2.95-7.02,3.36c-4.5,1.03-5.84,0.97-11.12,0.61c-2.27-0.16-3.98-1.01-6.78-2c-1.35-0.48-4.83-3.12-6.71-5.65
				c-2.12-2.84-3.17-4.88-4.47-8.17c-1.96-4.93-2.09-8.74-1.68-12.98c0.17-1.74,0.63-3.44,1.34-5.06c-1.86-0.87-3.43-2.33-4.27-4.2
				c-1.47-3.28-0.48-7.54,2.4-9.7c0.92-0.69,1.98-1.16,3.05-1.56c1.22-0.45,2.48-0.82,3.78-0.86c2.87-0.1,5.63,1.63,7.06,4.09
				c1.42-0.89,2.91-1.66,4.51-2.11c3.3-0.92,7.98-0.86,10.84-0.4c1.94,0.31,4.12,1.32,6.33,2.75c0.77-1.32,1.92-2.44,3.21-3.29
				c1.22-0.8,2.62-1.42,4.08-1.35c1.28,0.07,2.47,0.66,3.58,1.3c1.31,0.75,2.6,1.61,3.52,2.81
				C557.03,474.59,557,478.08,555.52,480.68z"/>
		</g>
	</g>
	<g>
		<g>
			<path class="st43" d="M563.44,597.94c-6.62-7.96-18.9-6.97-29.11-5.27c-7.82,1.3-15.65,2.6-23.47,3.91
				c-5.72,0.95-14.01-0.08-19.6-1.6c-7.07-1.93-15.06-10.11-18.35-13.39c-20.5-20.39-35.89-40.08-54.71-62.01
				c3.36-8.68,6.43-17.6,7.34-26.87c0.91-9.27,0.84-19.77-4.14-27.64c-5.12-8.07-8.88-12.45-17.27-17.03
				c-5.21-2.84-12.87-7.01-18.7-8.15c-5.92-1.16-13.42-2.14-20.93-2.14c-8.94,0.01-22.15,4.82-29.44,11.52
				c-7.29,6.7-8.05,20.85-3.18,44.89c7.15,35.28,8.29,52.19,16.04,77.4c2.25,7.3,5.9,15.24,13.13,17.71
				c3.24,1.11,6.79,0.92,10.18,0.39c3.76-0.59,7.55-1.65,10.57-3.96c4.85-3.71,6.95-10.15,6.88-16.25
				c-0.07-6.1-2.02-12.01-3.94-17.8c1.4-0.5,2.79-1,5.12-2.28c18.15,21.79,37.3,42.75,57.37,62.79
				c8.41,8.39,17.18,16.77,27.89,21.91c18.74,9.01,40.92,6.96,61.05,1.74c9.03-2.35,18.32-5.54,24.67-12.38
				C567.16,616.58,569.4,605.11,563.44,597.94z M396.69,497.72c-0.23,1.87-2.08,3.24-3.95,3.44c-1.87,0.2-3.73-0.51-5.39-1.41
				s-3.22-2-4.98-2.68c-0.44-0.17-0.93-0.31-1.39-0.21c-0.46,0.1-0.84,0.43-1.18,0.76c-1.79,1.73-3.31,3.73-4.9,5.65
				c-0.88,1.06-1.81,2.12-3.01,2.78c-1.2,0.66-2.74,0.87-3.94,0.19c-1.82-1.04-2.1-3.6-1.59-5.64c0.81-3.29,2.98-6.05,4.9-8.84
				c0.5-0.73,1.02-1.59,0.82-2.46c-0.18-0.76-0.85-1.29-1.48-1.75c-1.33-0.97-2.66-1.94-3.99-2.91c-1.76-1.28-3.61-2.68-4.37-4.71
				c-0.17-0.46-0.28-0.97-0.16-1.45c0.25-0.98,1.33-1.47,2.32-1.67c5-1.05,9.93,1.69,14.31,4.32c0.91,0.55,1.47-0.25,1.8-1.08
				c0.6-1.46,1.32-2.88,2.16-4.22c1.02-1.63,2.32-3.23,4.14-3.86c1.82-0.63,4.22,0.14,4.76,1.99c0.2,0.68,0.13,1.42,0.01,2.12
				c-0.64,3.87-2.63,7.38-4.59,10.77c-0.17,0.29-0.34,0.61-0.28,0.95c0.07,0.39,0.43,0.65,0.76,0.86c1.72,1.13,3.43,2.25,5.15,3.38
				C394.68,493.41,396.99,495.28,396.69,497.72z"/>
		</g>
	</g>
	<g>
		<g>
			<path class="st43" d="M304.82,480.25c-1.05-5.74-3-9.81-5.74-14.97c-3.54-6.66-8.91-11.35-14.83-16.01
				c-6.22-4.89-13.13-8.83-19.78-10.28c-12.99-2.83-25.16-5.49-38.14-2.65c-12.98,2.84-25.45,11.63-32.61,22.83
				c-7.92,12.39-8.67,27.89-9.18,42.59c-0.73,21.1-2.38,41.92-2.44,63.04c-0.02,7.68-0.11,12.62,2.7,17.63
				c4.21,7.54,14.47,8.78,22.57,5.8c5.76-2.12,8.26-10.52,9.31-19.76c0.38-3.29,0.17-7.92,1-10.77c0.78-2.67,3.96-4,6.73-3.69
				c2.76,0.31,6.8,3.21,9.45,4.04c6.71,2.09,13.44,2.39,20.19,2.78c9.93,0.57,19.25-1.55,25.8-4.45
				c6.96-3.08,12.14-7.29,18.57-17.35c2.79-4.36,6.46-13.72,7.23-19.89c0.87-6.95,1.61-12.55,1.66-18.98
				C307.38,490.95,305.93,486.32,304.82,480.25z M268.45,490.94c-0.76,1.17-1.84,2.09-3.06,2.75c0.2,0.47,0.4,1,0.64,1.61
				c0.87,2.29,1.16,6.54,0.88,9.07c-0.4,3.6-2.28,8.32-4.94,10.78c-1.91,1.78-3.2,2.57-5.32,4.1c-1.27,0.92-4.6,2.26-6.14,2.52
				c-3.88,0.66-5.02,0.54-9.49-0.03c-1.93-0.25-3.34-1.05-5.67-2.03c-1.13-0.47-3.96-2.89-5.44-5.13c-1.66-2.52-2.46-4.31-3.41-7.17
				c-1.42-4.29-1.35-7.54-0.8-11.13c0.23-1.47,0.71-2.9,1.38-4.24c-1.54-0.83-2.81-2.15-3.43-3.78c-1.09-2.86-0.04-6.44,2.51-8.14
				c0.81-0.54,1.74-0.89,2.67-1.18c1.06-0.32,2.15-0.57,3.25-0.55c2.44,0.06,4.71,1.66,5.8,3.83c1.26-0.69,2.55-1.27,3.94-1.57
				c2.85-0.62,6.83-0.34,9.24,0.19c1.64,0.36,3.44,1.32,5.26,2.65c0.72-1.09,1.75-1.98,2.89-2.65c1.07-0.62,2.3-1.08,3.54-0.95
				c1.09,0.12,2.07,0.68,2.98,1.28c1.08,0.7,2.13,1.49,2.85,2.56C270.03,485.84,269.84,488.8,268.45,490.94z"/>
		</g>
	</g>
</g>
<g id="Layer_10_copy_2" class="st0">
	<g class="st10">
		<path class="st23" d="M211.58,236.94v10.88c0,1.39-1.13,2.53-2.53,2.53h-0.58c-1.39,0-2.53-1.13-2.53-2.53v-10.88
			c0-1.39,1.13-2.53,2.53-2.53h0.58C210.45,234.41,211.58,235.55,211.58,236.94z"/>
		<path class="st23" d="M203.32,239.57l10.88,0c1.39,0,2.53,1.13,2.53,2.53v0.58c0,1.39-1.13,2.53-2.53,2.53l-10.88,0
			c-1.39,0-2.53-1.13-2.53-2.53v-0.58C200.8,240.7,201.93,239.57,203.32,239.57z"/>
	</g>
	<g class="st10">
		<path class="st23" d="M553.85,247.14v10.88c0,1.39-1.13,2.53-2.53,2.53h-0.58c-1.39,0-2.53-1.13-2.53-2.53v-10.88
			c0-1.39,1.13-2.53,2.53-2.53h0.58C552.72,244.62,553.85,245.75,553.85,247.14z"/>
		<path class="st23" d="M545.6,249.77h10.88c1.39,0,2.53,1.13,2.53,2.53v0.58c0,1.39-1.13,2.53-2.53,2.53H545.6
			c-1.39,0-2.53-1.13-2.53-2.53v-0.58C543.07,250.9,544.2,249.77,545.6,249.77z"/>
	</g>
	<g class="st10">
		<path class="st23" d="M467.62,69.72V80.6c0,1.39-1.13,2.53-2.53,2.53h-0.58c-1.39,0-2.53-1.13-2.53-2.53V69.72
			c0-1.39,1.13-2.53,2.53-2.53h0.58C466.49,67.2,467.62,68.33,467.62,69.72z"/>
		<path class="st23" d="M459.37,72.35l10.88,0c1.39,0,2.53,1.13,2.53,2.53v0.58c0,1.39-1.13,2.53-2.53,2.53h-10.88
			c-1.39,0-2.53-1.13-2.53-2.53v-0.58C456.84,73.48,457.97,72.35,459.37,72.35z"/>
	</g>
	<g class="st10">
		<path class="st23" d="M601.88,306.82v-5c0-1.04,0.84-1.88,1.88-1.88l0,0c1.04,0,1.88,0.84,1.88,1.88v5c0,1.04-0.84,1.88-1.88,1.88
			l0,0C602.72,308.69,601.88,307.85,601.88,306.82z"/>
		<path class="st23" d="M592.69,300.01l3.91-3.12c0.81-0.65,1.99-0.51,2.64,0.3l0,0c0.65,0.81,0.51,1.99-0.3,2.64l-3.91,3.12
			c-0.81,0.65-1.99,0.51-2.63-0.3l0,0C591.75,301.84,591.88,300.66,592.69,300.01z"/>
		<path class="st23" d="M592.27,288.59l4.87,1.11c1.01,0.23,1.64,1.24,1.41,2.25l0,0c-0.23,1.01-1.24,1.64-2.25,1.41l-4.87-1.11
			c-1.01-0.23-1.64-1.24-1.41-2.25l0,0C590.26,288.99,591.27,288.36,592.27,288.59z"/>
		<path class="st23" d="M600.95,281.14l2.17,4.5c0.45,0.93,0.06,2.05-0.88,2.5l0,0c-0.93,0.45-2.05,0.06-2.5-0.88l-2.17-4.5
			c-0.45-0.93-0.06-2.05,0.88-2.5v0C599.38,279.81,600.5,280.21,600.95,281.14z"/>
		<path class="st23" d="M612.18,283.28l-2.17,4.5c-0.45,0.93-1.57,1.33-2.5,0.88l0,0c-0.93-0.45-1.33-1.57-0.88-2.5l2.17-4.5
			c0.45-0.93,1.57-1.33,2.5-0.88l0,0C612.24,281.22,612.63,282.34,612.18,283.28z"/>
		<path class="st23" d="M617.51,293.39l-4.87,1.11c-1.01,0.23-2.01-0.4-2.25-1.41v0c-0.23-1.01,0.4-2.01,1.41-2.25l4.87-1.11
			c1.01-0.23,2.01,0.4,2.25,1.41v0C619.16,292.16,618.52,293.16,617.51,293.39z"/>
		<path class="st23" d="M612.93,303.87l-3.91-3.12c-0.81-0.65-0.94-1.83-0.3-2.64l0,0c0.65-0.81,1.83-0.94,2.64-0.3l3.91,3.12
			c0.81,0.65,0.94,1.83,0.3,2.64l0,0C614.92,304.38,613.74,304.51,612.93,303.87z"/>
	</g>
	<g class="st10">
		<path class="st23" d="M196.04,104.68v-5.25c0-1.1,0.9-2,2-2h0c1.1,0,2,0.9,2,2v5.25c0,1.1-0.9,2-2,2h0
			C196.93,106.68,196.04,105.79,196.04,104.68z"/>
		<path class="st23" d="M186.48,97.89l4.1-3.27c0.86-0.69,2.12-0.55,2.81,0.32l0,0c0.69,0.86,0.55,2.12-0.32,2.81l-4.1,3.27
			c-0.86,0.69-2.12,0.55-2.81-0.32l0,0C185.47,99.84,185.61,98.58,186.48,97.89z"/>
		<path class="st23" d="M185.82,86.19l5.12,1.17c1.08,0.25,1.75,1.32,1.5,2.39v0c-0.25,1.08-1.32,1.75-2.39,1.5l-5.12-1.17
			c-1.08-0.25-1.75-1.32-1.5-2.39v0C183.67,86.62,184.75,85.94,185.82,86.19z"/>
		<path class="st23" d="M194.57,78.38l2.28,4.73c0.48,1,0.06,2.19-0.93,2.67h0c-1,0.48-2.19,0.06-2.67-0.93l-2.28-4.73
			c-0.48-1-0.06-2.19,0.93-2.67l0,0C192.89,76.96,194.09,77.38,194.57,78.38z"/>
		<path class="st23" d="M206.13,80.34l-2.28,4.73c-0.48,1-1.67,1.41-2.67,0.93v0c-1-0.48-1.41-1.67-0.93-2.67l2.28-4.73
			c0.48-1,1.67-1.41,2.67-0.93l0,0C206.19,78.15,206.6,79.35,206.13,80.34z"/>
		<path class="st23" d="M211.79,90.61l-5.12,1.17c-1.08,0.25-2.15-0.43-2.39-1.5l0,0c-0.25-1.08,0.43-2.15,1.5-2.39l5.12-1.17
			c1.08-0.25,2.15,0.43,2.39,1.5l0,0C213.54,89.29,212.87,90.36,211.79,90.61z"/>
		<path class="st23" d="M207.31,101.44l-4.1-3.27c-0.86-0.69-1.01-1.95-0.32-2.81v0c0.69-0.86,1.95-1.01,2.81-0.32l4.1,3.27
			c0.86,0.69,1.01,1.95,0.32,2.81l0,0C209.43,101.99,208.17,102.13,207.31,101.44z"/>
	</g>
	<g class="st10">
		<path class="st23" d="M523.69,53.72v-5.5c0-0.97,0.78-1.75,1.75-1.75l0,0c0.97,0,1.75,0.78,1.75,1.75v5.5
			c0,0.97-0.78,1.75-1.75,1.75l0,0C524.47,55.47,523.69,54.69,523.69,53.72z"/>
		<path class="st23" d="M513.94,47.32l4.3-3.43c0.76-0.6,1.86-0.48,2.46,0.28v0c0.6,0.76,0.48,1.86-0.28,2.46l-4.3,3.43
			c-0.76,0.6-1.86,0.48-2.46-0.28v0C513.06,49.03,513.18,47.93,513.94,47.32z"/>
		<path class="st23" d="M512.86,35.71l5.36,1.22c0.94,0.22,1.53,1.15,1.32,2.1v0c-0.22,0.94-1.15,1.53-2.1,1.32l-5.36-1.22
			c-0.94-0.22-1.53-1.15-1.32-2.1v0C510.98,36.09,511.92,35.5,512.86,35.71z"/>
		<path class="st23" d="M521.26,27.63l2.39,4.96c0.42,0.87,0.05,1.92-0.82,2.34l0,0c-0.87,0.42-1.92,0.05-2.34-0.82l-2.39-4.96
			c-0.42-0.87-0.05-1.92,0.82-2.34v0C519.8,26.4,520.85,26.76,521.26,27.63z"/>
		<path class="st23" d="M532.82,29.17l-2.39,4.96c-0.42,0.87-1.47,1.24-2.34,0.82l0,0c-0.87-0.42-1.24-1.47-0.82-2.34l2.39-4.96
			c0.42-0.87,1.47-1.24,2.34-0.82v0C532.88,27.25,533.24,28.3,532.82,29.17z"/>
		<path class="st23" d="M538.83,39.16l-5.36,1.22c-0.94,0.22-1.88-0.37-2.1-1.32v0c-0.22-0.94,0.37-1.88,1.32-2.1l5.36-1.22
			c0.94-0.22,1.88,0.37,2.1,1.32v0C540.36,38.01,539.77,38.94,538.83,39.16z"/>
		<path class="st23" d="M534.76,50.09l-4.3-3.43c-0.76-0.6-0.88-1.7-0.28-2.46v0c0.6-0.76,1.7-0.88,2.46-0.28l4.3,3.43
			c0.76,0.6,0.88,1.7,0.28,2.46v0C536.62,50.56,535.52,50.69,534.76,50.09z"/>
	</g>
	<circle class="st44" cx="232.05" cy="273.89" r="4.04"/>
	<circle class="st44" cx="589.53" cy="227.38" r="4.04"/>
	<circle class="st44" cx="256.88" cy="54.36" r="4.04"/>
	<circle class="st44" cx="579.95" cy="58.4" r="4.04"/>
	<circle class="st45" cx="248.33" cy="238.05" r="0.12"/>
	<circle class="st45" cx="304.66" cy="76.04" r="0.12"/>
</g>
</svg>
