<?xml version="1.0" encoding="utf-8"?>
<!-- Generator: Adobe Adobe Illustrator 24.2.0, SVG Export Plug-In . SVG Version: 6.00 Build 0)  -->
<svg version="1.1" xmlns="http://www.w3.org/2000/svg" xmlns:xlink="http://www.w3.org/1999/xlink" x="0px" y="0px"
	 viewBox="0 0 800 800" style="enable-background:new 0 0 800 800;" xml:space="preserve">
<style type="text/css">
	.st0{display:none;}
	.st1{display:inline;fill-rule:evenodd;clip-rule:evenodd;fill:#30540B;}
	.st2{fill-rule:evenodd;clip-rule:evenodd;fill:#FBFFF7;}
	.st3{fill-rule:evenodd;clip-rule:evenodd;fill:#61CBB3;}
	.st4{fill-rule:evenodd;clip-rule:evenodd;fill:#00937F;}
	.st5{fill-rule:evenodd;clip-rule:evenodd;fill:#F17E8C;}
	.st6{fill-rule:evenodd;clip-rule:evenodd;fill:#F3FC77;}
</style>
<g id="Layer_2" class="st0">
	<rect y="33.47" class="st1" width="800" height="766.53"/>
</g>
<g id="Layer_1">
	<g id="Group_12" transform="translate(-244.396 2384.075)">
		<path id="path452" class="st2" d="M390.22-2199.25l19.38,80.54c0.07,0.27,0.16,0.54,0.27,0.8c5.99,13.31-1.67,32.43-18.66,44.71
			c-18.59,13.46-41.3,13.63-50.73,0.38c-9.43-13.25-2-34.87,16.58-48.33c6.06-4.46,12.99-7.61,20.33-9.25
			c1.19-0.24,2.23-0.97,2.87-2.01c0.66-1.03,0.87-2.3,0.57-3.49l-22.58-93.79c-0.5-1.98,0.4-4.04,2.19-5.02l76.88-42.85
			c2.16-1.2,4.89-0.42,6.09,1.75c0,0.01,0.01,0.02,0.01,0.02l7.24,13.21c5.96,10.92,2.05,24.61-8.78,30.73l-49.47,27.57
			C390.62-2203.29,389.73-2201.23,390.22-2199.25"/>
		<path id="path460" class="st2" d="M908.06-1938.13v86.1c0,0.29,0.03,0.58,0.08,0.87c2.81,14.92-9.57,32.34-29.71,40.55
			c-22.04,8.98-45.02,3.54-51.32-12.16c-6.3-15.7,6.45-35.72,28.49-44.71c7.21-3,14.97-4.46,22.78-4.31
			c1.27,0.06,2.5-0.42,3.39-1.32c0.92-0.88,1.43-2.11,1.41-3.38v-100.28c-0.02-2.12,1.39-3.99,3.44-4.54l92.52-25.4v-0.11h0.4
			l18.53-5.08c1.4-0.41,2.92-0.11,4.06,0.8c1.17,0.88,1.86,2.27,1.83,3.73v0.54h0.05v125.02c0,0.33,0.03,0.65,0.1,0.97
			c0.66,3.23,0.65,6.56-0.01,9.78c-0.06,0.3-0.09,0.61-0.09,0.91v1.21h-0.41c-3.23,11.58-13.98,22.93-29.09,29.11
			c-22.04,8.98-45.02,3.54-51.32-12.16s6.45-35.72,28.49-44.71c7.18-2.99,14.9-4.45,22.67-4.31c1.26,0.05,2.49-0.43,3.38-1.34
			c0.92-0.87,1.43-2.1,1.41-3.37v-49.43c0.03-1.47-0.66-2.86-1.83-3.73c-1.14-0.91-2.65-1.21-4.06-0.8l-61.76,16.99
			C909.45-1942.11,908.04-1940.25,908.06-1938.13"/>
		<path id="path462" class="st3" d="M600.39-2111.93l150.04,87.33c4.55,2.57,7.8,6.96,8.94,12.06c1.29,5.08,0.39,10.47-2.5,14.84
			l-237.84,371.34c-5.43,8.54-16.62,11.27-25.37,6.18l-112.3-65.37c-8.76-5.12-12-16.2-7.38-25.24l200.1-393.32
			c2.3-4.68,6.48-8.17,11.49-9.59C590.53-2115.25,595.93-2114.61,600.39-2111.93"/>
		<path id="path464" class="st4" d="M823.36-2326.58c84.92,49.42,114.01,158.89,64.99,244.48
			c-49.03,85.59-157.61,114.93-242.53,65.52c-84.92-49.41-114.01-158.89-64.98-244.5C629.87-2346.69,738.45-2376.02,823.36-2326.58"
			/>
		<path id="path466" class="st3" d="M597.31-2284.56l302.98,176.34c14.13,8.34,18.95,26.48,10.83,40.74l0,0
			c-8.09,14.16-26.12,19.08-40.28,11c-0.05-0.03-0.09-0.05-0.14-0.08l-302.98-176.32c-14.13-8.35-18.95-26.5-10.83-40.76l0,0
			c8.1-14.16,26.15-19.08,40.31-10.98C597.23-2284.6,597.27-2284.58,597.31-2284.56"/>
		<path id="path474" class="st5" d="M554.77-1876.69l16.4,9.55c4.53,2.66,6.07,8.47,3.46,13.03l-22.49,39.27
			c-2.59,4.53-8.36,6.1-12.88,3.51c-0.02-0.01-0.03-0.02-0.05-0.03l-16.4-9.55c-4.53-2.66-6.07-8.47-3.47-13.03l22.49-39.27
			c2.59-4.53,8.35-6.1,12.88-3.52C554.74-1876.71,554.75-1876.7,554.77-1876.69"/>
		<path id="path476" class="st6" d="M520.58-1817l16.4,9.55c4.52,2.67,6.07,8.47,3.47,13.03l-6.51,11.37
			c-2.57,4.52-8.33,6.11-12.85,3.53c-0.03-0.02-0.05-0.03-0.08-0.05l-16.4-9.55c-4.53-2.66-6.07-8.47-3.46-13.03l6.51-11.37
			c2.59-4.53,8.35-6.1,12.88-3.52C520.54-1817.02,520.56-1817.01,520.58-1817"/>
	</g>
</g>
</svg>
