<?xml version="1.0" encoding="utf-8"?>
<!-- Generator: Adobe Adobe Illustrator 24.2.0, SVG Export Plug-In . SVG Version: 6.00 Build 0)  -->
<svg version="1.1" id="Layer_5" xmlns="http://www.w3.org/2000/svg" xmlns:xlink="http://www.w3.org/1999/xlink" x="0px" y="0px"
	 viewBox="0 0 395 395.85" style="enable-background:new 0 0 395 395.85;" xml:space="preserve">
<style type="text/css">
	.st0{fill:#1E2D2A;}
	.st1{fill:#FBFFF7;}
	.st2{fill:url(#SVGID_1_);}
	.st3{fill:#F17E8C;}
	.st4{fill:#F0EAD5;}
	.st5{fill:#E2D6BB;}
	.st6{fill:#F3FC77;}
	.st7{clip-path:url(#SVGID_3_);fill:#BAAC50;}
</style>
<path class="st0" d="M242.54,233.35c12.8,10.44,30.46,11.75,46.84,13.86c3.33,0.43,7.05,1.15,8.92,3.94
	c2.12,3.17,0.82,7.42-0.65,10.93c-2.37,5.66-5.06,11.25-8.87,16.06c-5.25,6.64-12.57,11.62-20.68,14.06
	c-4.2,1.27-8.73,1.86-12.99,0.78c-4.16-1.05-7.75-3.61-11.23-6.13c-10.35-7.5-20.9-15.46-27.21-26.57c-5-8.79-6.99-19.02-7.47-29.12
	"/>
<path class="st1" d="M191.7,322.44c11.89-4.53,23.53-10.55,32.24-19.82c8.71-9.28,14.15-22.27,12.02-34.81
	c-0.81-4.76-2.64-9.27-4.47-13.74c-3.61-8.84-7.22-17.69-10.83-26.53c-1.44-3.53-2.9-7.1-5.17-10.17c-2.99-4.05-7.21-7-11.36-9.87
	c-10.15-7.04-20.8-14.28-33.03-16.02c-8.86-1.26-17.91,0.49-26.43,3.23c-5.21,1.68-10.54,3.9-13.99,8.15
	c-1.71,2.11-2.87,4.61-3.81,7.15c-7.36,19.89-1.99,42.45,7.79,61.26c5.7,10.96,12.99,21.3,22.66,28.98
	C167,307.93,179.25,312.8,191.7,322.44z"/>
<path class="st0" d="M269.75,57.95c0.2-7.84,3.52-16.43,10.75-19.46c3.42-1.43,7.28-1.43,10.96-0.96
	c10.74,1.38,21.3,7.08,26.64,16.51c5.34,9.42,4.26,22.62-3.87,29.78c-5,4.4-11.76,6.09-18.25,7.64"/>
<linearGradient id="SVGID_1_" gradientUnits="userSpaceOnUse" x1="197.8079" y1="4.7995" x2="183.6933" y2="195.8567" gradientTransform="matrix(0.998 0.0629 -0.0629 0.998 14.2828 43.473)">
	<stop  offset="0" style="stop-color:#FBFFF7"/>
	<stop  offset="0.4951" style="stop-color:#FAFEF5"/>
	<stop  offset="0.6734" style="stop-color:#F7F9EE"/>
	<stop  offset="0.8005" style="stop-color:#F1F1E3"/>
	<stop  offset="0.9025" style="stop-color:#EAE5D2"/>
	<stop  offset="0.9896" style="stop-color:#DFD6BC"/>
	<stop  offset="1" style="stop-color:#DED4B9"/>
</linearGradient>
<path class="st2" d="M151.82,36.53c12.86-4.51,26.67-6.28,40.25-5.16c5.74,0.48,11.5,1.47,17.24,0.96c5.74-0.5,11.66-2.76,15-7.46
	c2.39-3.37,3.24-7.66,5.66-11c2.43-3.35,7.79-5.32,10.58-2.27c0.99,1.09,1.41,2.57,1.68,4.02c0.88,4.8,0.34,9.84-1.51,14.35
	c0.41-4.58,8.04-5.19,10.31-1.19s-0.14,9.33-3.93,11.93c22.38,6.55,41.26,22.75,53.51,42.58c12.25,19.84,18.24,43.09,19.89,66.35
	c0.36,5.08,0.76,10.71,4.47,14.21c2.18,2.06,5.24,3.06,7.22,5.31c1.97,2.25,1.78,6.79-1.18,7.27c2.37-1.29,5.38,1.19,5.63,3.88
	c0.24,2.69-1.31,5.18-2.9,7.37c-8.37,11.53-19.3,20.91-30.32,29.95c-8.65,7.1-17.51,14.12-27.59,18.97
	c-10.45,5.03-21.93,7.6-33.43,9.07c-39.83,5.1-80.66-2.64-117.69-18.16c-24.17-10.14-48.26-24.93-59.6-48.56
	c-10.1-21.07-8.3-46.59,1.35-67.88s26.44-38.67,45.24-52.54"/>
<path class="st0" d="M115.01,77.11c9.62-12.45,24.97-18.93,40.02-23.5c1.26-0.38,2.6-0.81,3.43-1.83c0.48-0.59,0.74-1.33,0.96-2.05
	c2.36-7.58,2.16-15.94-0.55-23.4c-0.86-2.37-1.98-4.67-3.55-6.64c-2.45-3.09-5.89-5.25-9.45-6.95c-8.08-3.85-17.25-5.58-26.11-4.32
	s-17.35,5.62-23.1,12.48c-3.25,3.88-5.58,8.45-7.32,13.2c-2.36,6.46-3.64,13.61-1.69,20.21c1.74,5.9,5.87,10.77,10.19,15.15
	C101.62,73.28,105.8,76.97,115.01,77.11z"/>
<g>
	<g>
		<path class="st0" d="M289.83,166.21c-0.05-4.13,0.16-8.31-0.73-12.34c-0.89-4.03-3.09-8.01-6.75-9.91
			c-3.57-1.86-7.95-1.44-11.73-0.07s-7.86,2.67-10.76,5.46c-3.27,3.14-3.6,6.35-3.08,8.84c0.52,2.49,1.91,4.7,3.35,6.81
			c2.67,3.93,5.6,7.77,9.35,10.7c2.15,1.68,4.56,3.05,7.11,4.03c2.77,1.07,5.99,1.65,8.62,0.29c2.28-1.18,3.67-3.63,4.23-6.14
			C290,171.37,289.87,168.77,289.83,166.21z M276.19,159.46c-0.39,2.39-2.65,4.01-5.04,3.62c-2.39-0.39-4.01-2.65-3.62-5.04
			c0.39-2.39,2.65-4.01,5.04-3.62S276.58,157.07,276.19,159.46z"/>
	</g>
</g>
<g>
	<g>
		<path class="st0" d="M215.97,147.02c-1.87-3.75-2.36-3.45-7.47-8.83c-2.85-3-7.47-6.75-11.59-7.15c-4.12-0.4-8.39,1.33-11.07,4.49
			c-4.18,4.94-4.06,12.09-6.17,18.21c-1.03,2.98-2.64,5.85-2.76,9c-0.19,5.1,4.25,9.91,9.34,10.14c4.94,0.22,9.18-3.2,13.68-5.25
			c2.78-1.27,5.77-2.03,8.59-3.2s5.58-2.83,7.24-5.4C218.05,155.51,217.84,150.77,215.97,147.02z M210.83,152.73
			c-0.33,2-2.21,3.35-4.2,3.02c-2-0.33-3.35-2.21-3.02-4.2c0.33-2,2.21-3.35,4.2-3.02C209.8,148.86,211.15,150.74,210.83,152.73z"/>
	</g>
</g>
<path class="st0" d="M206.46,185.27c-0.13-0.63,0.16-1.28,0.24-1.91c0.02-0.19,0.05-0.4,0.18-0.54c0.26-0.31,0.76-0.2,1.1,0
	c1.35,0.79,1.84,2.46,2.54,3.86c0.96,1.92,2.47,3.49,3.95,5.03c1.79,1.85,3.58,3.72,5.63,5.28c5.92,4.52,13.89,6.25,21.15,4.58
	c0.87-0.2,1.72-0.44,2.58-0.69c0.09-0.03,0.19-0.05,0.27,0c0.09,0.05,0.11,0.17,0.12,0.27c0.08,0.88-0.33,1.75-0.93,2.38
	c-0.61,0.64-1.4,1.07-2.21,1.41c-3.45,1.46-7.4,1.47-11.04,0.59c-3.64-0.89-7.02-2.63-10.22-4.57c-2.34-1.42-4.6-2.96-6.72-4.69
	C210.31,193.98,208.04,192.84,206.46,185.27z"/>
<path class="st0" d="M240.66,170.54c-0.14,2.92-0.28,5.85-0.83,8.72c-0.43,2.27-1.12,4.48-1.83,6.67c-1.72,5.3-3.66,10.59-6.7,15.25
	c-0.39,0.61-0.84,1.23-1.49,1.54s-1.56,0.21-1.93-0.42c-0.52-0.9,0.38-1.93,1.13-2.66c1.99-1.96,3.36-4.46,4.47-7.02
	c3.19-7.3,4.6-15.36,4.09-23.3C238.08,169.32,238.59,169.32,240.66,170.54z"/>
<path class="st0" d="M225.14,210.44c-1.57-0.36-3.12-0.79-4.64-1.29c-0.43-0.14-0.86-0.29-1.25-0.53c-0.44-0.27-0.81-0.66-1.21-0.99
	c-0.55-0.45-1.18-0.81-1.85-1.06c-0.66,0.78-0.25,2.02,0.42,2.78c0.97,1.1,2.41,1.72,3.87,1.91
	C221.93,211.46,223.41,211.26,225.14,210.44z"/>
<path class="st0" d="M124.05,218.94c-10.76,6-21.62,13.55-26.26,24.97c-2.98,7.34-3.04,15.65-1.18,23.36s5.54,14.86,9.84,21.51
	c5.7,8.81,12.66,17,21.48,22.68c13.78,8.87,30.73,10.87,47.03,12.65c7.34,0.8,14.93,1.58,21.96-0.67
	c11.68-3.72,19.78-16.39,18.27-28.56c-0.57-4.54-2.56-9.2-6.46-11.59c-4.86-2.98-11.08-1.7-16.64-0.43
	c-10.14,2.32-21.59,4.04-30.28-1.68c-8.04-5.29-11.22-15.35-13.66-24.66c-2.44-9.31-5.14-19.38-12.74-25.29
	C132.52,228.97,128.61,226.64,124.05,218.94z"/>
<path class="st3" d="M256.42,240.54c4.38-0.14,8.66,0.12,13.13-1.26c0.55-0.17,1.67-0.8,1.67-0.24c0,2.36-2.09,4.2-2.93,5.15
	c-13.74,15.44-31.25,24.45-50.66,33.6c-1.94,0.92-3.93,1.84-6.1,2.17c-4.67,0.71-9.34-1.41-13.57-3.52
	c-19.86-9.91-38.99-21.07-57.21-33.38c-10.24-6.92-20.88-15.17-23.48-26.45c15.68,4.29,31.37,8.58,46.94,13.22
	c24.35,7.26,49.72,15.49,74.64,11.74"/>
<path class="st3" d="M134.62,224.05c-19.18,2.97-38.95,2.14-57.82-2.43C91.99,210.64,112.08,206.73,134.62,224.05z"/>
<g>
	<g>
		<path class="st0" d="M252.31,158.72c-1.52-1.82-2.61-2.47-4.14-2.94c-1.08-0.33-2.97-0.37-5.97-0.86
			c-2.07-0.34-3.85-0.33-5.93-0.6c-2.08-0.27-4-0.1-5.73,1.09c-1.89,1.3-2.81,3.72-2.65,6c0.16,2.28,1.27,4.42,2.74,6.17
			c1.48,1.75,2.65,3.05,4.48,4.42c0.7,0.52,3.01,1.51,3.87,1.62c2.18,0.26,3.46-0.15,4.27-0.34c2.64-0.59,3.57-0.37,6.06-2.33
			c2.49-1.96,4.21-4.94,4.46-8.1C253.87,161.85,253.91,160.63,252.31,158.72z M248.45,161.3c-0.21,1.28-3.04,1.88-6.33,1.34
			c-3.29-0.54-5.78-2.01-5.57-3.29c0.21-1.28,3.04-1.88,6.33-1.34C246.17,158.55,248.66,160.02,248.45,161.3z"/>
	</g>
</g>
<g id="Layer_1">
	<path class="st0" d="M285.79,288.79c7.99,0.31,15.94,1.37,23.73,3.15c3.39,0.78,7.04,1.89,8.99,4.77c1.71,2.53,1.67,5.82,1.43,8.86
		c-0.87,10.94-3.65,21.72-8.18,31.71c-1.74,3.84-3.81,7.66-6.96,10.45c-5.82,5.16-14.63,5.97-21.98,3.45
		c-7.36-2.52-13.41-7.91-18.3-13.95c-3.25-4.01-6.18-8.66-6.31-13.82"/>
	<path class="st4" d="M295.93,278.55c-3.77-18.02-0.35-37.43,9.33-53.09c3.88-6.26,9.07-12.18,16.06-14.52
		c0.32,0.33,0.65,0.66,0.97,0.99c3.25-4,9.21-4.12,14.37-3.89c-8.98,9.12-16.15,20.01-20.97,31.86
		c-4.22,10.36-6.63,21.35-9.03,32.28c-0.62,2.81-1.23,5.63-1.27,8.51c-0.03,2.1,0.2,4.38-1,6.1c-0.67,0.96-1.71,1.6-2.73,2.19
		c-4.58,2.64-9.38,4.9-14.39,6.64"/>
	<path class="st5" d="M269.03,257.51c8.56-13.75,14.71-19.15,18.23-23.49c5.9-7.29,11.24-11.87,18.99-17.15
		c8.12-5.54,14.81-7.76,24.35-8.74c-7.83,6.99-12.55,16.34-16.48,22.75c-4.1,6.68-7.12,14.72-9.25,22.15
		c-2.31,8.07-5.25,16.13-3.97,25.89"/>
	<path class="st4" d="M185.72,251.52c-1.39-2.15-0.51-5.41,1.76-6.57c0.5-0.25,1.08-0.45,1.36-0.93c0.44-0.77-0.11-1.87,0.43-2.58
		c0.46-0.6,1.38-0.49,2.14-0.55c2.92-0.2,4.56-3.34,6.87-5.14c2.76-2.14,6.53-2.32,10.02-2.26c35.71,0.59,70.72,16.85,94.89,43.15
		c1.28,1.39,2.59,2.95,2.75,4.83c0.22,2.63-1.83,4.84-3.76,6.63c-3.48,3.23-7.06,6.35-10.73,9.35c-1.93,1.58-3.92,3.14-6.22,4.09
		c-4.21,1.74-9.03,1.23-13.38-0.1c-4.35-1.33-8.43-3.44-12.73-4.92"/>
	<path class="st6" d="M182.61,246.79c21.76-1.75,43.78-0.25,65.1,4.44c4.61,1.01,9.21,2.18,13.57,4
		c10.13,4.23,18.47,11.76,26.55,19.19c2.9,2.66,5.84,5.41,7.66,8.9c3.71-0.57,7.42-1.13,11.12-1.7
		c-7.67,16.95-14.66,31.01-19.36,40.14c-5.31,10.31-9.56,18.54-18.5,33.57c-3.28-0.34-6.56-0.69-9.76-1.4
		c-21.38-6.56-43.77-8.99-66-11.4c-9.14-0.99-18.58-1.95-27.35,0.8C174.41,312.38,180.29,280.59,182.61,246.79z"/>
	<g>
		<defs>
			<path id="SVGID_2_" d="M182.61,246.79c21.76-1.75,43.78-0.25,65.1,4.44c4.61,1.01,9.21,2.18,13.57,4
				c10.13,4.23,18.47,11.76,26.55,19.19c2.9,2.66,5.84,5.41,7.66,8.9c3.71-0.57,7.42-1.13,11.12-1.7
				c-7.67,16.95-14.66,31.01-19.36,40.14c-5.31,10.31-9.56,18.54-18.5,33.57c-3.28-0.34-6.56-0.69-9.76-1.4
				c-21.38-6.56-43.77-8.99-66-11.4c-9.14-0.99-18.58-1.95-27.35,0.8C174.41,312.38,180.29,280.59,182.61,246.79z"/>
		</defs>
		<clipPath id="SVGID_3_">
			<use xlink:href="#SVGID_2_"  style="overflow:visible;"/>
		</clipPath>
		<path class="st7" d="M301,270.41c-13.8,30.12-28.37,59.89-43.69,89.27c6.01,2.21,12.35,4.46,18.67,3.45
			c7.59-1.21,13.67-6.91,18.36-12.99c8.56-11.1,14.11-24.21,18.89-37.39c3.32-9.14,6.32-18.43,8.33-27.95
			c0.75-3.54,1.33-7.34-0.03-10.7c-1.83-4.51-6.62-6.96-11.03-9.03"/>
	</g>
	<path class="st0" d="M102.85,283.6c-2.81,10.93-5.55,22.03-5.37,33.31s3.6,22.94,11.58,30.91c4.16,4.16,9.34,7.13,14.48,9.99
		c23.68,13.17,48.55,25.28,75.35,29.27c9.62,1.43,20.51,1.43,27.75-5.07c5.29-4.75,7.47-12.01,8.97-18.96
		c1-4.64,1.81-9.33,2.42-14.04c0.52-4.05,0.85-8.39-1.04-12.01c-1.88-3.61-5.63-5.84-9.33-7.54c-19.94-9.15-43.29-8.27-63.43-16.97
		c-12.73-5.5-23.55-14.55-34.17-23.48"/>
	<path class="st0" d="M215.18,294.87c-0.57-4.54-2.56-9.2-6.46-11.59c-4.86-2.98-11.08-1.7-16.64-0.43
		c-10.14,2.31-21.59,4.04-30.28-1.68c-3.33-2.19-5.82-5.22-7.78-8.66c-0.2,0.11-0.39,0.22-0.59,0.33c-1.36,0.84-2.71,1.67-4.07,2.51
		c-7.33,5.83-15.38,10.84-22.75,16.57c-3.72,2.89-7.4,5.84-10.97,8.92c3.66,4.03,7.72,7.65,12.29,10.59
		c13.78,8.87,30.73,10.87,47.03,12.65c7.34,0.8,14.93,1.58,21.96-0.67C208.59,319.71,216.7,307.04,215.18,294.87z"/>
	<path class="st0" d="M215.85,112.15c2.08-0.36,4.22-0.43,6.32-0.21c0.41,0.04,0.84,0.11,1.19,0.34c0.52,0.36,0.71,1.02,0.87,1.63
		c0.3,1.17,0.6,2.36,0.53,3.57s-0.58,2.45-1.59,3.11c-0.86,0.57-1.96,0.64-2.99,0.55c-2.1-0.17-4.25-0.98-5.55-2.64
		S212.48,112.74,215.85,112.15z"/>
	<path class="st0" d="M270.77,119.32c-1.67-0.28-3.13-1.7-4.81-1.48c-1.21,0.16-2.17,1.16-2.62,2.29c-0.45,1.13-0.5,2.37-0.53,3.59
		c-0.02,0.65-0.02,1.36,0.36,1.88c0.57,0.78,1.7,0.82,2.66,0.76c1.71-0.11,3.45-0.31,4.97-1.08
		C272.32,124.51,273.6,123.06,270.77,119.32z"/>
</g>
</svg>
