<?xml version="1.0" encoding="utf-8"?>
<!-- Generator: Adobe Adobe Illustrator 24.2.0, SVG Export Plug-In . SVG Version: 6.00 Build 0)  -->
<svg version="1.1" xmlns="http://www.w3.org/2000/svg" xmlns:xlink="http://www.w3.org/1999/xlink" x="0px" y="0px"
	 viewBox="0 0 800 600" style="enable-background:new 0 0 800 600;" xml:space="preserve">
<style type="text/css">
	.st0{clip-path:url(#SVGID_2_);fill:#1E2D2A;}
	.st1{clip-path:url(#SVGID_4_);fill:#1E2D2A;}
	.st2{clip-path:url(#SVGID_6_);fill:#FBFFF7;}
	.st3{clip-path:url(#SVGID_8_);fill:#FBFFF7;}
	.st4{fill:#1E2D2A;}
</style>
<g id="Layer_3">
</g>
<g id="Layer_2">
	<g>
		<g>
			<defs>
				<rect id="SVGID_1_" x="98.82" y="0" width="204.99" height="198.44"/>
			</defs>
			<clipPath id="SVGID_2_">
				<use xlink:href="#SVGID_1_"  style="overflow:visible;"/>
			</clipPath>
			
				<ellipse transform="matrix(0.8075 -0.5899 0.5899 0.8075 -19.7732 137.8485)" class="st0" cx="201.32" cy="99.22" rx="106.1" ry="95.34"/>
		</g>
		<g>
			<defs>
				<rect id="SVGID_3_" x="497.59" y="0" width="204.99" height="198.44"/>
			</defs>
			<clipPath id="SVGID_4_">
				<use xlink:href="#SVGID_3_"  style="overflow:visible;"/>
			</clipPath>
			
				<ellipse transform="matrix(0.5899 -0.8075 0.8075 0.5899 165.9976 525.2636)" class="st1" cx="600.08" cy="99.22" rx="95.34" ry="106.1"/>
		</g>
	</g>
	<g>
		<g>
			<defs>
				<rect id="SVGID_5_" x="92.12" y="49.37" width="307.88" height="550.63"/>
			</defs>
			<clipPath id="SVGID_6_">
				<use xlink:href="#SVGID_5_"  style="overflow:visible;"/>
			</clipPath>
			<path class="st2" d="M440.93,52.16c-83.97-13.51-175.09,24.85-213.87,57.57c-21.99,18.55-62.07,54.35-80.1,78.49
				c-20.9,27.97-29.15,45.63-37.92,69.41c-12.77,34.61-18.56,70.44-16.53,107.27c1.71,30.88,6.69,61.54,19.12,89.85
				c7.24,16.49,23.72,43.54,37.97,57.79c31.72,31.72,61.8,47.55,104.16,62.29c86.4,30.06,181.93,33.3,270.17,9.16"/>
		</g>
		<g>
			<defs>
				<rect id="SVGID_7_" x="400" y="49.37" width="307.88" height="550.63"/>
			</defs>
			<clipPath id="SVGID_8_">
				<use xlink:href="#SVGID_7_"  style="overflow:visible;"/>
			</clipPath>
			<path class="st3" d="M359.07,52.16c83.97-13.51,175.09,24.85,213.87,57.57c21.99,18.55,62.07,54.35,80.1,78.49
				c20.9,27.97,29.15,45.63,37.92,69.41c12.77,34.61,18.56,70.44,16.53,107.27c-1.71,30.88-6.69,61.54-19.12,89.85
				c-7.24,16.49-23.72,43.54-37.97,57.79c-31.72,31.72-61.8,47.55-104.16,62.29c-86.4,30.06-181.93,33.3-270.17,9.16"/>
		</g>
	</g>
</g>
<g id="Layer_4">
	<g>
		<g>
			<path class="st4" d="M350.84,292.24c-1.15-2.3-2.73-4.36-4.4-6.33c-6.9-8.14-15.43-14.9-24.93-19.76
				c-12.61-6.45-24.45-9.91-35.06-5.93c-9.8,3.68-16.44,13.04-20.18,22.81c-3.74,9.77-5.16,20.27-8.08,30.32
				c-1.63,5.6-3.72,11.09-4.84,16.82c-1.12,5.73-1.19,11.85,1.13,17.2c3.19,7.33,10.61,12.26,18.44,13.88s16.01,0.3,23.62-2.17
				c16.41-5.34,30.76-15.92,42.51-28.55c4.85-5.21,9.38-10.91,11.96-17.55C353.59,306.36,354.02,298.61,350.84,292.24z
				 M321.99,317.76c-5.72,0-10.35-4.63-10.35-10.35s4.63-10.35,10.35-10.35s10.35,4.63,10.35,10.35S327.71,317.76,321.99,317.76z"/>
		</g>
	</g>
	<g>
		<g>
			<path class="st4" d="M546.6,330.18c-1.12-5.73-3.21-11.21-4.84-16.82c-2.92-10.05-4.34-20.55-8.08-30.32
				c-3.74-9.77-10.39-19.13-20.18-22.81c-10.61-3.98-22.45-0.52-35.06,5.93c-9.5,4.86-18.03,11.62-24.93,19.76
				c-1.67,1.96-3.25,4.03-4.4,6.33c-3.19,6.37-2.75,14.11-0.17,20.75s7.11,12.34,11.96,17.55c11.76,12.63,26.11,23.21,42.51,28.55
				c7.6,2.47,15.79,3.8,23.62,2.17c7.83-1.62,15.25-6.55,18.44-13.88C547.79,342.03,547.71,335.91,546.6,330.18z M477.96,317.76
				c-5.72,0-10.35-4.63-10.35-10.35s4.63-10.35,10.35-10.35c5.72,0,10.35,4.63,10.35,10.35S483.67,317.76,477.96,317.76z"/>
		</g>
	</g>
	<g>
		<g>
			<path class="st4" d="M429.38,302.64c-5.59-3.08-9.55-3.45-16.91-3.87l-10.04,0.1c-6.1-0.21-12.42,0.23-18.37,1.62
				c-5.95,1.39-11.73,4.57-14.93,9.77c-1.47,2.39-2.35,5.12-2.84,7.89c-0.51,2.83-0.62,5.78,0.12,8.56
				c0.45,1.69,1.21,3.28,2.09,4.79c4.87,8.32,13.27,13.93,21.8,18.41c2.25,1.18,5.83,2.45,8.34,2.87c4.44,0.74,6.84,0.21,10.61-1.27
				c3.77-1.48,7.18-3.73,10.47-6.1c4.46-3.22,8.79-6.72,12.24-11c2.06-2.55,3.79-5.37,5.14-8.36c1.15-2.55,1.38-5.92,1.44-8.71
				C438.66,310.96,434.97,305.71,429.38,302.64z M402.21,319.38c-10.53,0-19.07-3.04-19.07-6.79s8.54-6.79,19.07-6.79
				c10.53,0,19.07,3.04,19.07,6.79S412.74,319.38,402.21,319.38z"/>
		</g>
	</g>
	<path class="st4" d="M402.17,339.99c-1.89,27.17-3.71,54.99,3.67,81.2c2.2,0.42,4.46,0.52,6.68,0.3c-1.31-1.54-1.74-3.64-2.07-5.64
		c-2.19-13.26-2.08-26.78-2.94-40.2C406.76,363.83,405.29,351.69,402.17,339.99z"/>
	<path class="st4" d="M380.71,414.6c3.59,3.29,8.71,4.26,13.57,4.6c23.84,1.63,47.34-8.96,65.33-24.69
		c3.14-2.75,6.43-5.79,10.56-6.38c0.55-0.08,1.17-0.09,1.6,0.25c0.37,0.29,0.52,0.78,0.61,1.25c0.85,4.39-1.77,8.67-4.56,12.17
		c-8.18,10.23-19.18,18.45-31.76,22.1c-9.98,2.9-20.54,2.87-30.94,2.82c-6.46-0.03-13.04-0.08-19.21-2
		C380.95,423.18,375.81,419.56,380.71,414.6z"/>
	<path class="st4" d="M423.03,440.62c-5.93,1.55-12.18,0.32-18.31,0.47c-0.57,0.01-1.19,0.06-1.63,0.41
		c-0.98,0.79-0.42,2.44,0.53,3.27c1.09,0.96,2.52,1.43,3.93,1.77c5.96,1.42,12.38,0.76,17.93-1.84c2.76-1.29,5.48-3.3,6.25-6.25"/>
	<path class="st4" d="M491.95,215.67c-8.52,1.43-16.14,7.37-19.61,15.29c-0.74,1.7-1.27,3.78-0.25,5.33c0.48,0.73,1.24,1.22,2,1.64
		c7.23,4.01,16.84,3.2,23.29-1.96c2.26-1.81,4.22-4.25,4.6-7.12c0.34-2.57-0.63-5.16-1.98-7.38
		C498.29,218.64,495.65,216.05,491.95,215.67z"/>
	<path class="st4" d="M333.74,218.23c3.83,3.91,7.78,8.04,9.36,13.29c0.5,1.67,0.67,3.68-0.52,4.95c-0.68,0.73-1.68,1.06-2.63,1.36
		c-3.25,1.03-6.51,2.06-9.86,2.71c-4.96,0.95-10.74,0.77-14.2-2.91c-1.85-1.97-2.74-4.66-3.21-7.33c-0.56-3.17-0.6-6.5,0.47-9.54
		C314.21,217.72,316.5,215.01,333.74,218.23z"/>
</g>
</svg>
