<?xml version="1.0" encoding="utf-8"?>
<!-- Generator: Adobe Adobe Illustrator 24.2.0, SVG Export Plug-In . SVG Version: 6.00 Build 0)  -->
<svg version="1.1" id="Layer_1" xmlns="http://www.w3.org/2000/svg" xmlns:xlink="http://www.w3.org/1999/xlink" x="0px" y="0px"
	 viewBox="0 0 800 800" style="enable-background:new 0 0 800 800;" xml:space="preserve">
<style type="text/css">
	.st0{fill:#F17E8C;}
	.st1{fill:#826E5C;}
	.st2{fill:#AA7F63;}
	.st3{fill:#F2A796;}
	.st4{fill:#F3FC77;}
	.st5{fill:#61CBB3;}
	.st6{fill:#99C95C;}
</style>
<path class="st0" d="M625.36,427.83l-302.6,302.58c-15.92,15.92-15.92,41.72,0,57.64c7.93,7.93,18.38,11.94,28.81,11.94
	s20.85-3.98,28.81-11.96L683,485.45L625.36,427.83z"/>
<path class="st1" d="M784.78,325.32c-42.33,0-170.29,6.88-170.29,93.65c0,42.33,34.3,76.64,76.61,76.64
	c42.33,0,76.63-34.3,76.63-76.64C767.74,376.66,827.09,325.32,784.78,325.32z"/>
<path class="st2" d="M547.85,72.29c-22.56-22.88-50.24-40.6-82.35-52.71C431.05,6.6,391.27,0,347.2,0c-9.86,0-20.09,0.32-30.4,0.98
	c-50.19,3.2-96.7,14.36-138.21,33.18c-39.38,17.87-73.53,42.24-101.51,72.43C22.79,165.19-4.38,241.28,0.58,320.92
	c5.57,90.11,30.93,160.35,75.37,208.77c21.63,23.58,47.61,41.6,77.27,53.56c28.95,11.67,61.47,17.6,96.63,17.6
	c95.12,0,122.95-61.33,143.31-106.1c10.35-22.8,19.29-42.5,33.65-49.85c10.72-5.49,26.86-7.67,43.9-9.94
	c30.76-4.13,65.65-8.81,94.38-33.81c32.5-28.3,48.8-76.34,49.8-146.95C615.94,181.81,592.11,117.21,547.85,72.29z M466.67,350
	c-27.61,0-50.01-22.39-50.01-50c0-27.61,22.4-50,50.01-50c27.61,0,50,22.39,50,50C516.67,327.61,494.28,350,466.67,350z"/>
<path class="st3" d="M366.66,116.65c0,18.41-14.92,33.35-33.33,33.35s-33.35-14.94-33.35-33.35s14.94-33.33,33.35-33.33
	S366.66,98.24,366.66,116.65z"/>
<path class="st3" d="M333.33,66.65c-27.59,0-50,22.44-50,50c0,27.59,22.41,50,50,50c27.56,0,50-22.41,50-50
	C383.34,89.09,360.9,66.65,333.33,66.65z M333.33,133.33c-9.2,0-16.67-7.47-16.67-16.68c0-9.18,7.47-16.65,16.67-16.65
	c9.18,0,16.65,7.47,16.65,16.65C349.98,125.86,342.51,133.33,333.33,133.33z"/>
<path class="st4" d="M233.34,166.65c0,18.41-14.94,33.35-33.35,33.35s-33.33-14.94-33.33-33.35s14.92-33.33,33.33-33.33
	C218.4,133.33,233.34,148.24,233.34,166.65z"/>
<path class="st4" d="M199.99,116.65c-27.56,0-50,22.44-50,50c0,27.59,22.44,50,50,50c27.59,0,50-22.41,50-50
	C249.99,139.09,227.57,116.65,199.99,116.65z M199.99,183.33c-9.18,0-16.65-7.47-16.65-16.67c0-9.18,7.47-16.65,16.65-16.65
	c9.2,0,16.67,7.47,16.67,16.65C216.66,175.86,209.19,183.33,199.99,183.33z"/>
<path class="st5" d="M166.66,283.33c0,18.41-14.92,33.32-33.32,33.32c-18.41,0-33.35-14.92-33.35-33.32
	c0-18.41,14.94-33.33,33.35-33.33C151.74,250,166.66,264.92,166.66,283.33z"/>
<path class="st5" d="M133.34,233.32c-27.59,0-50,22.44-50,50c0,27.56,22.41,50,50,50c27.56,0,50-22.43,50-50
	S160.9,233.32,133.34,233.32z M133.34,300c-9.2,0-16.68-7.49-16.68-16.67c0-9.18,7.47-16.68,16.68-16.68
	c9.18,0,16.65,7.5,16.65,16.68C149.99,292.5,142.52,300,133.34,300z"/>
<path class="st6" d="M183.34,416.65c0,18.41-14.94,33.35-33.35,33.35c-18.41,0-33.32-14.94-33.32-33.35
	c0-18.41,14.92-33.33,33.32-33.33C168.39,383.32,183.34,398.24,183.34,416.65z"/>
<path class="st6" d="M149.99,366.65c-27.56,0-50,22.44-50,50s22.44,50,50,50c27.59,0,50-22.44,50-50S177.57,366.65,149.99,366.65z
	 M149.99,433.32c-9.18,0-16.65-7.47-16.65-16.68c0-9.18,7.47-16.65,16.65-16.65c9.2,0,16.68,7.47,16.68,16.65
	C166.66,425.85,159.19,433.32,149.99,433.32z"/>
</svg>
